<svg width="480" height="360" viewBox="0 0 480 360" xmlns="http://www.w3.org/2000/svg">
<rect x="0" y="0" width="480" height="360" opacity="1" fill="#FFFFFF" stroke="none"/>
<polyline fill="none" opacity="1" stroke="#FF0000" stroke-width="3" points="30,329 82,329 "/>
<polyline fill="none" opacity="1" stroke="#FF0000" stroke-width="5" points="30,329 30,280 "/>
<polyline fill="none" opacity="1" stroke="#0000FF" stroke-width="1" points="30,280 82,280 "/>
<polyline fill="none" opacity="1" stroke="#FF0000" stroke-width="4" points="30,280 30,230 "/>
<polyline fill="none" opacity="1" stroke="#FF0000" stroke-width="0" points="30,230 82,230 "/>
<polyline fill="none" opacity="1" stroke="#0000FF" stroke-width="8" points="30,230 30,180 "/>
<polyline fill="none" opacity="1" stroke="#FF0000" stroke-width="5" points="30,180 82,180 "/>
<polyline fill="none" opacity="1" stroke="#FF0000" stroke-width="3" points="30,180 30,130 "/>
<polyline fill="none" opacity="1" stroke="#0000FF" stroke-width="0" points="30,130 82,130 "/>
<polyline fill="none" opacity="1" stroke="#FF0000" stroke-width="7" points="30,130 30,80 "/>
<polyline fill="none" opacity="1" stroke="#FF0000" stroke-width="11" points="30,80 82,80 "/>
<polyline fill="none" opacity="1" stroke="#0000FF" stroke-width="1" points="82,329 134,329 "/>
<polyline fill="none" opacity="1" stroke="#0000FF" stroke-width="3" points="82,329 82,280 "/>
<polyline fill="none" opacity="1" stroke="#0000FF" stroke-width="12" points="82,280 134,280 "/>
<polyline fill="none" opacity="1" stroke="#FF0000" stroke-width="0" points="82,280 82,230 "/>
<polyline fill="none" opacity="1" stroke="#0000FF" stroke-width="8" points="82,230 134,230 "/>
<polyline fill="none" opacity="1" stroke="#FF0000" stroke-width="1" points="82,230 82,180 "/>
<polyline fill="none" opacity="1" stroke="#FF0000" stroke-width="1" points="82,180 134,180 "/>
<polyline fill="none" opacity="1" stroke="#FF0000" stroke-width="7" points="82,180 82,130 "/>
<polyline fill="none" opacity="1" stroke="#FF0000" stroke-width="1" points="82,130 134,130 "/>
<polyline fill="none" opacity="1" stroke="#FF0000" stroke-width="0" points="82,130 82,80 "/>
<polyline fill="none" opacity="1" stroke="#0000FF" stroke-width="5" points="82,80 134,80 "/>
<polyline fill="none" opacity="1" stroke="#0000FF" stroke-width="1" points="134,329 187,329 "/>
<polyline fill="none" opacity="1" stroke="#FF0000" stroke-width="2" points="134,329 134,280 "/>
<polyline fill="none" opacity="1" stroke="#FF0000" stroke-width="0" points="134,280 187,280 "/>
<polyline fill="none" opacity="1" stroke="#0000FF" stroke-width="0" points="134,280 134,230 "/>
<polyline fill="none" opacity="1" stroke="#0000FF" stroke-width="0" points="134,230 187,230 "/>
<polyline fill="none" opacity="1" stroke="#0000FF" stroke-width="9" points="134,230 134,180 "/>
<polyline fill="none" opacity="1" stroke="#FF0000" stroke-width="6" points="134,180 187,180 "/>
<polyline fill="none" opacity="1" stroke="#FF0000" stroke-width="5" points="134,180 134,130 "/>
<polyline fill="none" opacity="1" stroke="#FF0000" stroke-width="0" points="134,130 187,130 "/>
<polyline fill="none" opacity="1" stroke="#0000FF" stroke-width="0" points="134,130 134,80 "/>
<polyline fill="none" opacity="1" stroke="#FF0000" stroke-width="7" points="134,80 187,80 "/>
<polyline fill="none" opacity="1" stroke="#0000FF" stroke-width="2" points="187,329 239,329 "/>
<polyline fill="none" opacity="1" stroke="#0000FF" stroke-width="3" points="187,329 187,280 "/>
<polyline fill="none" opacity="1" stroke="#FF0000" stroke-width="3" points="187,280 239,280 "/>
<polyline fill="none" opacity="1" stroke="#FF0000" stroke-width="3" points="187,280 187,230 "/>
<polyline fill="none" opacity="1" stroke="#0000FF" stroke-width="9" points="187,230 239,230 "/>
<polyline fill="none" opacity="1" stroke="#FF0000" stroke-width="2" points="187,230 187,180 "/>
<polyline fill="none" opacity="1" stroke="#FF0000" stroke-width="4" points="187,180 239,180 "/>
<polyline fill="none" opacity="1" stroke="#0000FF" stroke-width="2" points="187,180 187,130 "/>
<polyline fill="none" opacity="1" stroke="#FF0000" stroke-width="3" points="187,130 239,130 "/>
<polyline fill="none" opacity="1" stroke="#0000FF" stroke-width="3" points="187,130 187,80 "/>
<polyline fill="none" opacity="1" stroke="#0000FF" stroke-width="2" points="187,80 239,80 "/>
<polyline fill="none" opacity="1" stroke="#0000FF" stroke-width="3" points="239,329 291,329 "/>
<polyline fill="none" opacity="1" stroke="#0000FF" stroke-width="5" points="239,329 239,280 "/>
<polyline fill="none" opacity="1" stroke="#FF0000" stroke-width="1" points="239,280 291,280 "/>
<polyline fill="none" opacity="1" stroke="#0000FF" stroke-width="2" points="239,280 239,230 "/>
<polyline fill="none" opacity="1" stroke="#0000FF" stroke-width="9" points="239,230 291,230 "/>
<polyline fill="none" opacity="1" stroke="#FF0000" stroke-width="4" points="239,230 239,180 "/>
<polyline fill="none" opacity="1" stroke="#0000FF" stroke-width="5" points="239,180 291,180 "/>
<polyline fill="none" opacity="1" stroke="#FF0000" stroke-width="0" points="239,180 239,130 "/>
<polyline fill="none" opacity="1" stroke="#0000FF" stroke-width="2" points="239,130 291,130 "/>
<polyline fill="none" opacity="1" stroke="#0000FF" stroke-width="1" points="239,130 239,80 "/>
<polyline fill="none" opacity="1" stroke="#FF0000" stroke-width="4" points="239,80 291,80 "/>
<polyline fill="none" opacity="1" stroke="#FF0000" stroke-width="7" points="291,329 344,329 "/>
<polyline fill="none" opacity="1" stroke="#0000FF" stroke-width="3" points="291,329 291,280 "/>
<polyline fill="none" opacity="1" stroke="#0000FF" stroke-width="1" points="291,280 344,280 "/>
<polyline fill="none" opacity="1" stroke="#0000FF" stroke-width="5" points="291,280 291,230 "/>
<polyline fill="none" opacity="1" stroke="#0000FF" stroke-width="6" points="291,230 344,230 "/>
<polyline fill="none" opacity="1" stroke="#FF0000" stroke-width="5" points="291,230 291,180 "/>
<polyline fill="none" opacity="1" stroke="#0000FF" stroke-width="2" points="291,180 344,180 "/>
<polyline fill="none" opacity="1" stroke="#0000FF" stroke-width="9" points="291,180 291,130 "/>
<polyline fill="none" opacity="1" stroke="#0000FF" stroke-width="0" points="291,130 344,130 "/>
<polyline fill="none" opacity="1" stroke="#0000FF" stroke-width="0" points="291,130 291,80 "/>
<polyline fill="none" opacity="1" stroke="#0000FF" stroke-width="5" points="291,80 344,80 "/>
<polyline fill="none" opacity="1" stroke="#FF0000" stroke-width="4" points="344,329 396,329 "/>
<polyline fill="none" opacity="1" stroke="#0000FF" stroke-width="1" points="344,329 344,280 "/>
<polyline fill="none" opacity="1" stroke="#FF0000" stroke-width="4" points="344,280 396,280 "/>
<polyline fill="none" opacity="1" stroke="#0000FF" stroke-width="0" points="344,280 344,230 "/>
<polyline fill="none" opacity="1" stroke="#FF0000" stroke-width="1" points="344,230 396,230 "/>
<polyline fill="none" opacity="1" stroke="#0000FF" stroke-width="14" points="344,230 344,180 "/>
<polyline fill="none" opacity="1" stroke="#0000FF" stroke-width="1" points="344,180 396,180 "/>
<polyline fill="none" opacity="1" stroke="#FF0000" stroke-width="2" points="344,180 344,130 "/>
<polyline fill="none" opacity="1" stroke="#FF0000" stroke-width="1" points="344,130 396,130 "/>
<polyline fill="none" opacity="1" stroke="#0000FF" stroke-width="8" points="344,130 344,80 "/>
<polyline fill="none" opacity="1" stroke="#0000FF" stroke-width="5" points="344,80 396,80 "/>
<polyline fill="none" opacity="1" stroke="#FF0000" stroke-width="7" points="396,329 396,280 "/>
<polyline fill="none" opacity="1" stroke="#0000FF" stroke-width="12" points="396,280 396,230 "/>
<polyline fill="none" opacity="1" stroke="#0000FF" stroke-width="3" points="396,230 396,180 "/>
<polyline fill="none" opacity="1" stroke="#0000FF" stroke-width="1" points="396,180 396,130 "/>
<polyline fill="none" opacity="1" stroke="#0000FF" stroke-width="2" points="396,130 396,80 "/>
<circle cx="30" cy="329" r="10" opacity="1" fill="#FFFFFF" stroke="none" stroke-width="1"/>
<circle cx="30" cy="329" r="10" opacity="1" fill="none" stroke="#000000" stroke-width="1"/>
<circle cx="30" cy="280" r="10" opacity="1" fill="#000000" stroke="none" stroke-width="1"/>
<circle cx="30" cy="230" r="10" opacity="1" fill="#FFFFFF" stroke="none" stroke-width="1"/>
<circle cx="30" cy="230" r="10" opacity="1" fill="none" stroke="#000000" stroke-width="1"/>
<circle cx="30" cy="180" r="10" opacity="1" fill="#FFFFFF" stroke="none" stroke-width="1"/>
<circle cx="30" cy="180" r="10" opacity="1" fill="none" stroke="#000000" stroke-width="1"/>
<circle cx="30" cy="130" r="10" opacity="1" fill="#FFFFFF" stroke="none" stroke-width="1"/>
<circle cx="30" cy="130" r="10" opacity="1" fill="none" stroke="#000000" stroke-width="1"/>
<circle cx="30" cy="80" r="10" opacity="1" fill="#000000" stroke="none" stroke-width="1"/>
<circle cx="82" cy="329" r="10" opacity="1" fill="#000000" stroke="none" stroke-width="1"/>
<circle cx="82" cy="280" r="10" opacity="1" fill="#000000" stroke="none" stroke-width="1"/>
<circle cx="82" cy="230" r="10" opacity="1" fill="#FFFFFF" stroke="none" stroke-width="1"/>
<circle cx="82" cy="230" r="10" opacity="1" fill="none" stroke="#000000" stroke-width="1"/>
<circle cx="82" cy="180" r="10" opacity="1" fill="#000000" stroke="none" stroke-width="1"/>
<circle cx="82" cy="130" r="10" opacity="1" fill="#FFFFFF" stroke="none" stroke-width="1"/>
<circle cx="82" cy="130" r="10" opacity="1" fill="none" stroke="#000000" stroke-width="1"/>
<circle cx="82" cy="80" r="10" opacity="1" fill="#FFFFFF" stroke="none" stroke-width="1"/>
<circle cx="82" cy="80" r="10" opacity="1" fill="none" stroke="#000000" stroke-width="1"/>
<circle cx="134" cy="329" r="10" opacity="1" fill="#FFFFFF" stroke="none" stroke-width="1"/>
<circle cx="134" cy="329" r="10" opacity="1" fill="none" stroke="#000000" stroke-width="1"/>
<circle cx="134" cy="280" r="10" opacity="1" fill="#000000" stroke="none" stroke-width="1"/>
<circle cx="134" cy="230" r="10" opacity="1" fill="#FFFFFF" stroke="none" stroke-width="1"/>
<circle cx="134" cy="230" r="10" opacity="1" fill="none" stroke="#000000" stroke-width="1"/>
<circle cx="134" cy="180" r="10" opacity="1" fill="#FFFFFF" stroke="none" stroke-width="1"/>
<circle cx="134" cy="180" r="10" opacity="1" fill="none" stroke="#000000" stroke-width="1"/>
<circle cx="134" cy="130" r="10" opacity="1" fill="#000000" stroke="none" stroke-width="1"/>
<circle cx="134" cy="80" r="10" opacity="1" fill="#FFFFFF" stroke="none" stroke-width="1"/>
<circle cx="134" cy="80" r="10" opacity="1" fill="none" stroke="#000000" stroke-width="1"/>
<circle cx="187" cy="329" r="10" opacity="1" fill="#FFFFFF" stroke="none" stroke-width="1"/>
<circle cx="187" cy="329" r="10" opacity="1" fill="none" stroke="#000000" stroke-width="1"/>
<circle cx="187" cy="280" r="10" opacity="1" fill="#FFFFFF" stroke="none" stroke-width="1"/>
<circle cx="187" cy="280" r="10" opacity="1" fill="none" stroke="#000000" stroke-width="1"/>
<circle cx="187" cy="230" r="10" opacity="1" fill="#000000" stroke="none" stroke-width="1"/>
<circle cx="187" cy="180" r="10" opacity="1" fill="#000000" stroke="none" stroke-width="1"/>
<circle cx="187" cy="130" r="10" opacity="1" fill="#000000" stroke="none" stroke-width="1"/>
<circle cx="187" cy="80" r="10" opacity="1" fill="#000000" stroke="none" stroke-width="1"/>
<circle cx="239" cy="329" r="10" opacity="1" fill="#000000" stroke="none" stroke-width="1"/>
<circle cx="239" cy="280" r="10" opacity="1" fill="#000000" stroke="none" stroke-width="1"/>
<circle cx="239" cy="230" r="10" opacity="1" fill="#000000" stroke="none" stroke-width="1"/>
<circle cx="239" cy="180" r="10" opacity="1" fill="#FFFFFF" stroke="none" stroke-width="1"/>
<circle cx="239" cy="180" r="10" opacity="1" fill="none" stroke="#000000" stroke-width="1"/>
<circle cx="239" cy="130" r="10" opacity="1" fill="#FFFFFF" stroke="none" stroke-width="1"/>
<circle cx="239" cy="130" r="10" opacity="1" fill="none" stroke="#000000" stroke-width="1"/>
<circle cx="239" cy="80" r="10" opacity="1" fill="#000000" stroke="none" stroke-width="1"/>
<circle cx="291" cy="329" r="10" opacity="1" fill="#000000" stroke="none" stroke-width="1"/>
<circle cx="291" cy="280" r="10" opacity="1" fill="#000000" stroke="none" stroke-width="1"/>
<circle cx="291" cy="230" r="10" opacity="1" fill="#000000" stroke="none" stroke-width="1"/>
<circle cx="291" cy="180" r="10" opacity="1" fill="#FFFFFF" stroke="none" stroke-width="1"/>
<circle cx="291" cy="180" r="10" opacity="1" fill="none" stroke="#000000" stroke-width="1"/>
<circle cx="291" cy="130" r="10" opacity="1" fill="#FFFFFF" stroke="none" stroke-width="1"/>
<circle cx="291" cy="130" r="10" opacity="1" fill="none" stroke="#000000" stroke-width="1"/>
<circle cx="291" cy="80" r="10" opacity="1" fill="#FFFFFF" stroke="none" stroke-width="1"/>
<circle cx="291" cy="80" r="10" opacity="1" fill="none" stroke="#000000" stroke-width="1"/>
<circle cx="344" cy="329" r="10" opacity="1" fill="#FFFFFF" stroke="none" stroke-width="1"/>
<circle cx="344" cy="329" r="10" opacity="1" fill="none" stroke="#000000" stroke-width="1"/>
<circle cx="344" cy="280" r="10" opacity="1" fill="#000000" stroke="none" stroke-width="1"/>
<circle cx="344" cy="230" r="10" opacity="1" fill="#000000" stroke="none" stroke-width="1"/>
<circle cx="344" cy="180" r="10" opacity="1" fill="#000000" stroke="none" stroke-width="1"/>
<circle cx="344" cy="130" r="10" opacity="1" fill="#FFFFFF" stroke="none" stroke-width="1"/>
<circle cx="344" cy="130" r="10" opacity="1" fill="none" stroke="#000000" stroke-width="1"/>
<circle cx="344" cy="80" r="10" opacity="1" fill="#FFFFFF" stroke="none" stroke-width="1"/>
<circle cx="344" cy="80" r="10" opacity="1" fill="none" stroke="#000000" stroke-width="1"/>
<circle cx="396" cy="329" r="10" opacity="1" fill="#000000" stroke="none" stroke-width="1"/>
<circle cx="396" cy="280" r="10" opacity="1" fill="#FFFFFF" stroke="none" stroke-width="1"/>
<circle cx="396" cy="280" r="10" opacity="1" fill="none" stroke="#000000" stroke-width="1"/>
<circle cx="396" cy="230" r="10" opacity="1" fill="#FFFFFF" stroke="none" stroke-width="1"/>
<circle cx="396" cy="230" r="10" opacity="1" fill="none" stroke="#000000" stroke-width="1"/>
<circle cx="396" cy="180" r="10" opacity="1" fill="#FFFFFF" stroke="none" stroke-width="1"/>
<circle cx="396" cy="180" r="10" opacity="1" fill="none" stroke="#000000" stroke-width="1"/>
<circle cx="396" cy="130" r="10" opacity="1" fill="#FFFFFF" stroke="none" stroke-width="1"/>
<circle cx="396" cy="130" r="10" opacity="1" fill="none" stroke="#000000" stroke-width="1"/>
<circle cx="396" cy="80" r="10" opacity="1" fill="#FFFFFF" stroke="none" stroke-width="1"/>
<circle cx="396" cy="80" r="10" opacity="1" fill="none" stroke="#000000" stroke-width="1"/>
</svg>
