<svg width="480" height="360" viewBox="0 0 480 360" xmlns="http://www.w3.org/2000/svg">
<rect x="0" y="0" width="479" height="359" opacity="1" fill="#FFFFFF" stroke="none"/>
<polyline fill="none" opacity="1" stroke="#FF0000" stroke-width="3" points="30,329 82,329 "/>
<polyline fill="none" opacity="1" stroke="#FF0000" stroke-width="5" points="30,329 30,279 "/>
<polyline fill="none" opacity="1" stroke="#0000FF" stroke-width="1" points="30,279 82,279 "/>
<polyline fill="none" opacity="1" stroke="#FF0000" stroke-width="4" points="30,279 30,229 "/>
<polyline fill="none" opacity="1" stroke="#FF0000" stroke-width="0" points="30,229 82,229 "/>
<polyline fill="none" opacity="1" stroke="#0000FF" stroke-width="8" points="30,229 30,179 "/>
<polyline fill="none" opacity="1" stroke="#FF0000" stroke-width="5" points="30,179 82,179 "/>
<polyline fill="none" opacity="1" stroke="#FF0000" stroke-width="3" points="30,179 30,129 "/>
<polyline fill="none" opacity="1" stroke="#0000FF" stroke-width="0" points="30,129 82,129 "/>
<polyline fill="none" opacity="1" stroke="#FF0000" stroke-width="7" points="30,129 30,79 "/>
<polyline fill="none" opacity="1" stroke="#FF0000" stroke-width="11" points="30,79 82,79 "/>
<polyline fill="none" opacity="1" stroke="#0000FF" stroke-width="1" points="82,329 135,329 "/>
<polyline fill="none" opacity="1" stroke="#0000FF" stroke-width="3" points="82,329 82,279 "/>
<polyline fill="none" opacity="1" stroke="#0000FF" stroke-width="12" points="82,279 135,279 "/>
<polyline fill="none" opacity="1" stroke="#FF0000" stroke-width="0" points="82,279 82,229 "/>
<polyline fill="none" opacity="1" stroke="#0000FF" stroke-width="8" points="82,229 135,229 "/>
<polyline fill="none" opacity="1" stroke="#FF0000" stroke-width="1" points="82,229 82,179 "/>
<polyline fill="none" opacity="1" stroke="#FF0000" stroke-width="1" points="82,179 135,179 "/>
<polyline fill="none" opacity="1" stroke="#FF0000" stroke-width="7" points="82,179 82,129 "/>
<polyline fill="none" opacity="1" stroke="#FF0000" stroke-width="1" points="82,129 135,129 "/>
<polyline fill="none" opacity="1" stroke="#FF0000" stroke-width="0" points="82,129 82,79 "/>
<polyline fill="none" opacity="1" stroke="#0000FF" stroke-width="5" points="82,79 135,79 "/>
<polyline fill="none" opacity="1" stroke="#0000FF" stroke-width="1" points="135,329 187,329 "/>
<polyline fill="none" opacity="1" stroke="#FF0000" stroke-width="2" points="135,329 135,279 "/>
<polyline fill="none" opacity="1" stroke="#FF0000" stroke-width="0" points="135,279 187,279 "/>
<polyline fill="none" opacity="1" stroke="#0000FF" stroke-width="0" points="135,279 135,229 "/>
<polyline fill="none" opacity="1" stroke="#0000FF" stroke-width="0" points="135,229 187,229 "/>
<polyline fill="none" opacity="1" stroke="#0000FF" stroke-width="9" points="135,229 135,179 "/>
<polyline fill="none" opacity="1" stroke="#FF0000" stroke-width="6" points="135,179 187,179 "/>
<polyline fill="none" opacity="1" stroke="#FF0000" stroke-width="5" points="135,179 135,129 "/>
<polyline fill="none" opacity="1" stroke="#FF0000" stroke-width="0" points="135,129 187,129 "/>
<polyline fill="none" opacity="1" stroke="#0000FF" stroke-width="0" points="135,129 135,79 "/>
<polyline fill="none" opacity="1" stroke="#FF0000" stroke-width="7" points="135,79 187,79 "/>
<polyline fill="none" opacity="1" stroke="#0000FF" stroke-width="2" points="187,329 240,329 "/>
<polyline fill="none" opacity="1" stroke="#0000FF" stroke-width="3" points="187,329 187,279 "/>
<polyline fill="none" opacity="1" stroke="#FF0000" stroke-width="3" points="187,279 240,279 "/>
<polyline fill="none" opacity="1" stroke="#FF0000" stroke-width="3" points="187,279 187,229 "/>
<polyline fill="none" opacity="1" stroke="#0000FF" stroke-width="9" points="187,229 240,229 "/>
<polyline fill="none" opacity="1" stroke="#FF0000" stroke-width="2" points="187,229 187,179 "/>
<polyline fill="none" opacity="1" stroke="#FF0000" stroke-width="4" points="187,179 240,179 "/>
<polyline fill="none" opacity="1" stroke="#0000FF" stroke-width="2" points="187,179 187,129 "/>
<polyline fill="none" opacity="1" stroke="#FF0000" stroke-width="3" points="187,129 240,129 "/>
<polyline fill="none" opacity="1" stroke="#0000FF" stroke-width="3" points="187,129 187,79 "/>
<polyline fill="none" opacity="1" stroke="#0000FF" stroke-width="2" points="187,79 240,79 "/>
<polyline fill="none" opacity="1" stroke="#0000FF" stroke-width="3" points="240,329 292,329 "/>
<polyline fill="none" opacity="1" stroke="#0000FF" stroke-width="5" points="240,329 240,279 "/>
<polyline fill="none" opacity="1" stroke="#FF0000" stroke-width="1" points="240,279 292,279 "/>
<polyline fill="none" opacity="1" stroke="#0000FF" stroke-width="2" points="240,279 240,229 "/>
<polyline fill="none" opacity="1" stroke="#0000FF" stroke-width="9" points="240,229 292,229 "/>
<polyline fill="none" opacity="1" stroke="#FF0000" stroke-width="4" points="240,229 240,179 "/>
<polyline fill="none" opacity="1" stroke="#0000FF" stroke-width="5" points="240,179 292,179 "/>
<polyline fill="none" opacity="1" stroke="#FF0000" stroke-width="0" points="240,179 240,129 "/>
<polyline fill="none" opacity="1" stroke="#0000FF" stroke-width="2" points="240,129 292,129 "/>
<polyline fill="none" opacity="1" stroke="#0000FF" stroke-width="1" points="240,129 240,79 "/>
<polyline fill="none" opacity="1" stroke="#FF0000" stroke-width="4" points="240,79 292,79 "/>
<polyline fill="none" opacity="1" stroke="#FF0000" stroke-width="7" points="292,329 345,329 "/>
<polyline fill="none" opacity="1" stroke="#0000FF" stroke-width="3" points="292,329 292,279 "/>
<polyline fill="none" opacity="1" stroke="#0000FF" stroke-width="1" points="292,279 345,279 "/>
<polyline fill="none" opacity="1" stroke="#0000FF" stroke-width="5" points="292,279 292,229 "/>
<polyline fill="none" opacity="1" stroke="#0000FF" stroke-width="6" points="292,229 345,229 "/>
<polyline fill="none" opacity="1" stroke="#FF0000" stroke-width="5" points="292,229 292,179 "/>
<polyline fill="none" opacity="1" stroke="#0000FF" stroke-width="2" points="292,179 345,179 "/>
<polyline fill="none" opacity="1" stroke="#0000FF" stroke-width="9" points="292,179 292,129 "/>
<polyline fill="none" opacity="1" stroke="#0000FF" stroke-width="0" points="292,129 345,129 "/>
<polyline fill="none" opacity="1" stroke="#0000FF" stroke-width="0" points="292,129 292,79 "/>
<polyline fill="none" opacity="1" stroke="#0000FF" stroke-width="5" points="292,79 345,79 "/>
<polyline fill="none" opacity="1" stroke="#FF0000" stroke-width="4" points="345,329 397,329 "/>
<polyline fill="none" opacity="1" stroke="#0000FF" stroke-width="1" points="345,329 345,279 "/>
<polyline fill="none" opacity="1" stroke="#FF0000" stroke-width="4" points="345,279 397,279 "/>
<polyline fill="none" opacity="1" stroke="#0000FF" stroke-width="0" points="345,279 345,229 "/>
<polyline fill="none" opacity="1" stroke="#FF0000" stroke-width="1" points="345,229 397,229 "/>
<polyline fill="none" opacity="1" stroke="#0000FF" stroke-width="14" points="345,229 345,179 "/>
<polyline fill="none" opacity="1" stroke="#0000FF" stroke-width="1" points="345,179 397,179 "/>
<polyline fill="none" opacity="1" stroke="#FF0000" stroke-width="2" points="345,179 345,129 "/>
<polyline fill="none" opacity="1" stroke="#FF0000" stroke-width="1" points="345,129 397,129 "/>
<polyline fill="none" opacity="1" stroke="#0000FF" stroke-width="8" points="345,129 345,79 "/>
<polyline fill="none" opacity="1" stroke="#0000FF" stroke-width="5" points="345,79 397,79 "/>
<polyline fill="none" opacity="1" stroke="#FF0000" stroke-width="7" points="397,329 397,279 "/>
<polyline fill="none" opacity="1" stroke="#0000FF" stroke-width="12" points="397,279 397,229 "/>
<polyline fill="none" opacity="1" stroke="#0000FF" stroke-width="3" points="397,229 397,179 "/>
<polyline fill="none" opacity="1" stroke="#0000FF" stroke-width="1" points="397,179 397,129 "/>
<polyline fill="none" opacity="1" stroke="#0000FF" stroke-width="2" points="397,129 397,79 "/>
<circle cx="30" cy="329" r="10" opacity="1" fill="#FFFFFF" stroke="none" stroke-width="1"/>
<circle cx="30" cy="329" r="10" opacity="1" fill="none" stroke="#000000" stroke-width="1"/>
<circle cx="30" cy="279" r="10" opacity="1" fill="#000000" stroke="none" stroke-width="1"/>
<circle cx="30" cy="229" r="10" opacity="1" fill="#FFFFFF" stroke="none" stroke-width="1"/>
<circle cx="30" cy="229" r="10" opacity="1" fill="none" stroke="#000000" stroke-width="1"/>
<circle cx="30" cy="179" r="10" opacity="1" fill="#FFFFFF" stroke="none" stroke-width="1"/>
<circle cx="30" cy="179" r="10" opacity="1" fill="none" stroke="#000000" stroke-width="1"/>
<circle cx="30" cy="129" r="10" opacity="1" fill="#FFFFFF" stroke="none" stroke-width="1"/>
<circle cx="30" cy="129" r="10" opacity="1" fill="none" stroke="#000000" stroke-width="1"/>
<circle cx="30" cy="79" r="10" opacity="1" fill="#000000" stroke="none" stroke-width="1"/>
<circle cx="82" cy="329" r="10" opacity="1" fill="#000000" stroke="none" stroke-width="1"/>
<circle cx="82" cy="279" r="10" opacity="1" fill="#000000" stroke="none" stroke-width="1"/>
<circle cx="82" cy="229" r="10" opacity="1" fill="#FFFFFF" stroke="none" stroke-width="1"/>
<circle cx="82" cy="229" r="10" opacity="1" fill="none" stroke="#000000" stroke-width="1"/>
<circle cx="82" cy="179" r="10" opacity="1" fill="#000000" stroke="none" stroke-width="1"/>
<circle cx="82" cy="129" r="10" opacity="1" fill="#FFFFFF" stroke="none" stroke-width="1"/>
<circle cx="82" cy="129" r="10" opacity="1" fill="none" stroke="#000000" stroke-width="1"/>
<circle cx="82" cy="79" r="10" opacity="1" fill="#FFFFFF" stroke="none" stroke-width="1"/>
<circle cx="82" cy="79" r="10" opacity="1" fill="none" stroke="#000000" stroke-width="1"/>
<circle cx="135" cy="329" r="10" opacity="1" fill="#FFFFFF" stroke="none" stroke-width="1"/>
<circle cx="135" cy="329" r="10" opacity="1" fill="none" stroke="#000000" stroke-width="1"/>
<circle cx="135" cy="279" r="10" opacity="1" fill="#000000" stroke="none" stroke-width="1"/>
<circle cx="135" cy="229" r="10" opacity="1" fill="#FFFFFF" stroke="none" stroke-width="1"/>
<circle cx="135" cy="229" r="10" opacity="1" fill="none" stroke="#000000" stroke-width="1"/>
<circle cx="135" cy="179" r="10" opacity="1" fill="#FFFFFF" stroke="none" stroke-width="1"/>
<circle cx="135" cy="179" r="10" opacity="1" fill="none" stroke="#000000" stroke-width="1"/>
<circle cx="135" cy="129" r="10" opacity="1" fill="#000000" stroke="none" stroke-width="1"/>
<circle cx="135" cy="79" r="10" opacity="1" fill="#FFFFFF" stroke="none" stroke-width="1"/>
<circle cx="135" cy="79" r="10" opacity="1" fill="none" stroke="#000000" stroke-width="1"/>
<circle cx="187" cy="329" r="10" opacity="1" fill="#FFFFFF" stroke="none" stroke-width="1"/>
<circle cx="187" cy="329" r="10" opacity="1" fill="none" stroke="#000000" stroke-width="1"/>
<circle cx="187" cy="279" r="10" opacity="1" fill="#FFFFFF" stroke="none" stroke-width="1"/>
<circle cx="187" cy="279" r="10" opacity="1" fill="none" stroke="#000000" stroke-width="1"/>
<circle cx="187" cy="229" r="10" opacity="1" fill="#000000" stroke="none" stroke-width="1"/>
<circle cx="187" cy="179" r="10" opacity="1" fill="#000000" stroke="none" stroke-width="1"/>
<circle cx="187" cy="129" r="10" opacity="1" fill="#000000" stroke="none" stroke-width="1"/>
<circle cx="187" cy="79" r="10" opacity="1" fill="#000000" stroke="none" stroke-width="1"/>
<circle cx="240" cy="329" r="10" opacity="1" fill="#000000" stroke="none" stroke-width="1"/>
<circle cx="240" cy="279" r="10" opacity="1" fill="#000000" stroke="none" stroke-width="1"/>
<circle cx="240" cy="229" r="10" opacity="1" fill="#000000" stroke="none" stroke-width="1"/>
<circle cx="240" cy="179" r="10" opacity="1" fill="#FFFFFF" stroke="none" stroke-width="1"/>
<circle cx="240" cy="179" r="10" opacity="1" fill="none" stroke="#000000" stroke-width="1"/>
<circle cx="240" cy="129" r="10" opacity="1" fill="#FFFFFF" stroke="none" stroke-width="1"/>
<circle cx="240" cy="129" r="10" opacity="1" fill="none" stroke="#000000" stroke-width="1"/>
<circle cx="240" cy="79" r="10" opacity="1" fill="#000000" stroke="none" stroke-width="1"/>
<circle cx="292" cy="329" r="10" opacity="1" fill="#000000" stroke="none" stroke-width="1"/>
<circle cx="292" cy="279" r="10" opacity="1" fill="#000000" stroke="none" stroke-width="1"/>
<circle cx="292" cy="229" r="10" opacity="1" fill="#000000" stroke="none" stroke-width="1"/>
<circle cx="292" cy="179" r="10" opacity="1" fill="#FFFFFF" stroke="none" stroke-width="1"/>
<circle cx="292" cy="179" r="10" opacity="1" fill="none" stroke="#000000" stroke-width="1"/>
<circle cx="292" cy="129" r="10" opacity="1" fill="#FFFFFF" stroke="none" stroke-width="1"/>
<circle cx="292" cy="129" r="10" opacity="1" fill="none" stroke="#000000" stroke-width="1"/>
<circle cx="292" cy="79" r="10" opacity="1" fill="#FFFFFF" stroke="none" stroke-width="1"/>
<circle cx="292" cy="79" r="10" opacity="1" fill="none" stroke="#000000" stroke-width="1"/>
<circle cx="345" cy="329" r="10" opacity="1" fill="#FFFFFF" stroke="none" stroke-width="1"/>
<circle cx="345" cy="329" r="10" opacity="1" fill="none" stroke="#000000" stroke-width="1"/>
<circle cx="345" cy="279" r="10" opacity="1" fill="#000000" stroke="none" stroke-width="1"/>
<circle cx="345" cy="229" r="10" opacity="1" fill="#000000" stroke="none" stroke-width="1"/>
<circle cx="345" cy="179" r="10" opacity="1" fill="#000000" stroke="none" stroke-width="1"/>
<circle cx="345" cy="129" r="10" opacity="1" fill="#FFFFFF" stroke="none" stroke-width="1"/>
<circle cx="345" cy="129" r="10" opacity="1" fill="none" stroke="#000000" stroke-width="1"/>
<circle cx="345" cy="79" r="10" opacity="1" fill="#FFFFFF" stroke="none" stroke-width="1"/>
<circle cx="345" cy="79" r="10" opacity="1" fill="none" stroke="#000000" stroke-width="1"/>
<circle cx="397" cy="329" r="10" opacity="1" fill="#000000" stroke="none" stroke-width="1"/>
<circle cx="397" cy="279" r="10" opacity="1" fill="#FFFFFF" stroke="none" stroke-width="1"/>
<circle cx="397" cy="279" r="10" opacity="1" fill="none" stroke="#000000" stroke-width="1"/>
<circle cx="397" cy="229" r="10" opacity="1" fill="#FFFFFF" stroke="none" stroke-width="1"/>
<circle cx="397" cy="229" r="10" opacity="1" fill="none" stroke="#000000" stroke-width="1"/>
<circle cx="397" cy="179" r="10" opacity="1" fill="#FFFFFF" stroke="none" stroke-width="1"/>
<circle cx="397" cy="179" r="10" opacity="1" fill="none" stroke="#000000" stroke-width="1"/>
<circle cx="397" cy="129" r="10" opacity="1" fill="#FFFFFF" stroke="none" stroke-width="1"/>
<circle cx="397" cy="129" r="10" opacity="1" fill="none" stroke="#000000" stroke-width="1"/>
<circle cx="397" cy="79" r="10" opacity="1" fill="#FFFFFF" stroke="none" stroke-width="1"/>
<circle cx="397" cy="79" r="10" opacity="1" fill="none" stroke="#000000" stroke-width="1"/>
</svg>
