<?xml version="1.0" encoding="utf-8" standalone="no"?>
<!DOCTYPE svg PUBLIC "-//W3C//DTD SVG 1.1//EN"
  "http://www.w3.org/Graphics/SVG/1.1/DTD/svg11.dtd">
<!-- Created with matplotlib (https://matplotlib.org/) -->
<svg height="345.6pt" version="1.1" viewBox="0 0 460.8 345.6" width="460.8pt" xmlns="http://www.w3.org/2000/svg" xmlns:xlink="http://www.w3.org/1999/xlink">
 <defs>
  <style type="text/css">
*{stroke-linecap:butt;stroke-linejoin:round;}
  </style>
 </defs>
 <g id="figure_1">
  <g id="patch_1">
   <path d="M 0 345.6 
L 460.8 345.6 
L 460.8 0 
L 0 0 
z
" style="fill:#ffffff;"/>
  </g>
  <g id="patch_2">
   <path d="M 57.6 307.584 
L 414.72 307.584 
L 414.72 41.472 
L 57.6 41.472 
z
" style="fill:#ffffff;"/>
  </g>
  <g id="pane3d_1">
   <g id="patch_3">
    <path d="M 104.941774 248.782626 
L 207.151387 183.537994 
L 205.449705 58.866209 
L 97.541237 117.48717 
" style="fill:#f2f2f2;opacity:0.5;stroke:#f2f2f2;stroke-linejoin:miter;"/>
   </g>
  </g>
  <g id="pane3d_2">
   <g id="patch_4">
    <path d="M 207.151387 183.537994 
L 372.72135 220.013954 
L 379.648599 91.582742 
L 205.449705 58.866209 
" style="fill:#e6e6e6;opacity:0.5;stroke:#e6e6e6;stroke-linejoin:miter;"/>
   </g>
  </g>
  <g id="pane3d_3">
   <g id="patch_5">
    <path d="M 104.941774 248.782626 
L 279.143747 291.264825 
L 372.72135 220.013954 
L 207.151387 183.537994 
" style="fill:#ececec;opacity:0.5;stroke:#ececec;stroke-linejoin:miter;"/>
   </g>
  </g>
  <g id="axis3d_1">
   <g id="line2d_1">
    <path d="M 104.941774 248.782626 
L 279.143747 291.264825 
" style="fill:none;stroke:#000000;stroke-linecap:square;stroke-width:0.8;"/>
   </g>
   <g id="Line3DCollection_1">
    <path d="M 115.562252 251.372616 
L 217.277438 185.768818 
L 216.081723 60.863023 
" style="fill:none;stroke:#b0b0b0;stroke-width:0.8;"/>
    <path d="M 145.006041 258.552999 
L 245.328825 191.94869 
L 245.549536 66.397413 
" style="fill:none;stroke:#b0b0b0;stroke-width:0.8;"/>
    <path d="M 174.9177 265.84748 
L 273.793381 198.219586 
L 275.47361 72.017495 
" style="fill:none;stroke:#b0b0b0;stroke-width:0.8;"/>
    <path d="M 205.30847 273.258801 
L 302.680303 204.583532 
L 305.864624 77.725273 
" style="fill:none;stroke:#b0b0b0;stroke-width:0.8;"/>
    <path d="M 236.189955 280.789791 
L 331.999062 211.042613 
L 336.733593 83.522816 
" style="fill:none;stroke:#b0b0b0;stroke-width:0.8;"/>
    <path d="M 267.574137 288.443373 
L 361.759413 217.59898 
L 368.091882 89.412259 
" style="fill:none;stroke:#b0b0b0;stroke-width:0.8;"/>
   </g>
   <g id="xtick_1">
    <g id="line2d_2">
     <path d="M 116.438581 250.807405 
L 113.806326 252.505145 
" style="fill:none;stroke:#000000;stroke-linecap:square;stroke-width:0.8;"/>
    </g>
    <g id="text_1">
     <!-- 0.0 -->
     <defs>
      <path d="M 31.78125 66.40625 
Q 24.171875 66.40625 20.328125 58.90625 
Q 16.5 51.421875 16.5 36.375 
Q 16.5 21.390625 20.328125 13.890625 
Q 24.171875 6.390625 31.78125 6.390625 
Q 39.453125 6.390625 43.28125 13.890625 
Q 47.125 21.390625 47.125 36.375 
Q 47.125 51.421875 43.28125 58.90625 
Q 39.453125 66.40625 31.78125 66.40625 
z
M 31.78125 74.21875 
Q 44.046875 74.21875 50.515625 64.515625 
Q 56.984375 54.828125 56.984375 36.375 
Q 56.984375 17.96875 50.515625 8.265625 
Q 44.046875 -1.421875 31.78125 -1.421875 
Q 19.53125 -1.421875 13.0625 8.265625 
Q 6.59375 17.96875 6.59375 36.375 
Q 6.59375 54.828125 13.0625 64.515625 
Q 19.53125 74.21875 31.78125 74.21875 
z
" id="DejaVuSans-48"/>
      <path d="M 10.6875 12.40625 
L 21 12.40625 
L 21 0 
L 10.6875 0 
z
" id="DejaVuSans-46"/>
     </defs>
     <g transform="translate(100.290567 272.84452)scale(0.1 -0.1)">
      <use xlink:href="#DejaVuSans-48"/>
      <use x="63.623047" xlink:href="#DejaVuSans-46"/>
      <use x="95.410156" xlink:href="#DejaVuSans-48"/>
     </g>
    </g>
   </g>
   <g id="xtick_2">
    <g id="line2d_3">
     <path d="M 145.87086 257.978845 
L 143.273152 259.703464 
" style="fill:none;stroke:#000000;stroke-linecap:square;stroke-width:0.8;"/>
    </g>
    <g id="text_2">
     <!-- 0.2 -->
     <defs>
      <path d="M 19.1875 8.296875 
L 53.609375 8.296875 
L 53.609375 0 
L 7.328125 0 
L 7.328125 8.296875 
Q 12.9375 14.109375 22.625 23.890625 
Q 32.328125 33.6875 34.8125 36.53125 
Q 39.546875 41.84375 41.421875 45.53125 
Q 43.3125 49.21875 43.3125 52.78125 
Q 43.3125 58.59375 39.234375 62.25 
Q 35.15625 65.921875 28.609375 65.921875 
Q 23.96875 65.921875 18.8125 64.3125 
Q 13.671875 62.703125 7.8125 59.421875 
L 7.8125 69.390625 
Q 13.765625 71.78125 18.9375 73 
Q 24.125 74.21875 28.421875 74.21875 
Q 39.75 74.21875 46.484375 68.546875 
Q 53.21875 62.890625 53.21875 53.421875 
Q 53.21875 48.921875 51.53125 44.890625 
Q 49.859375 40.875 45.40625 35.40625 
Q 44.1875 33.984375 37.640625 27.21875 
Q 31.109375 20.453125 19.1875 8.296875 
z
" id="DejaVuSans-50"/>
     </defs>
     <g transform="translate(129.731045 280.147754)scale(0.1 -0.1)">
      <use xlink:href="#DejaVuSans-48"/>
      <use x="63.623047" xlink:href="#DejaVuSans-46"/>
      <use x="95.410156" xlink:href="#DejaVuSans-50"/>
     </g>
    </g>
   </g>
   <g id="xtick_3">
    <g id="line2d_4">
     <path d="M 175.770531 265.26417 
L 173.208806 267.016311 
" style="fill:none;stroke:#000000;stroke-linecap:square;stroke-width:0.8;"/>
    </g>
    <g id="text_3">
     <!-- 0.4 -->
     <defs>
      <path d="M 37.796875 64.3125 
L 12.890625 25.390625 
L 37.796875 25.390625 
z
M 35.203125 72.90625 
L 47.609375 72.90625 
L 47.609375 25.390625 
L 58.015625 25.390625 
L 58.015625 17.1875 
L 47.609375 17.1875 
L 47.609375 0 
L 37.796875 0 
L 37.796875 17.1875 
L 4.890625 17.1875 
L 4.890625 26.703125 
z
" id="DejaVuSans-52"/>
     </defs>
     <g transform="translate(159.640213 287.567254)scale(0.1 -0.1)">
      <use xlink:href="#DejaVuSans-48"/>
      <use x="63.623047" xlink:href="#DejaVuSans-46"/>
      <use x="95.410156" xlink:href="#DejaVuSans-52"/>
     </g>
    </g>
   </g>
   <g id="xtick_4">
    <g id="line2d_5">
     <path d="M 206.148817 272.666113 
L 203.624565 274.44644 
" style="fill:none;stroke:#000000;stroke-linecap:square;stroke-width:0.8;"/>
    </g>
    <g id="text_4">
     <!-- 0.6 -->
     <defs>
      <path d="M 33.015625 40.375 
Q 26.375 40.375 22.484375 35.828125 
Q 18.609375 31.296875 18.609375 23.390625 
Q 18.609375 15.53125 22.484375 10.953125 
Q 26.375 6.390625 33.015625 6.390625 
Q 39.65625 6.390625 43.53125 10.953125 
Q 47.40625 15.53125 47.40625 23.390625 
Q 47.40625 31.296875 43.53125 35.828125 
Q 39.65625 40.375 33.015625 40.375 
z
M 52.59375 71.296875 
L 52.59375 62.3125 
Q 48.875 64.0625 45.09375 64.984375 
Q 41.3125 65.921875 37.59375 65.921875 
Q 27.828125 65.921875 22.671875 59.328125 
Q 17.53125 52.734375 16.796875 39.40625 
Q 19.671875 43.65625 24.015625 45.921875 
Q 28.375 48.1875 33.59375 48.1875 
Q 44.578125 48.1875 50.953125 41.515625 
Q 57.328125 34.859375 57.328125 23.390625 
Q 57.328125 12.15625 50.6875 5.359375 
Q 44.046875 -1.421875 33.015625 -1.421875 
Q 20.359375 -1.421875 13.671875 8.265625 
Q 6.984375 17.96875 6.984375 36.375 
Q 6.984375 53.65625 15.1875 63.9375 
Q 23.390625 74.21875 37.203125 74.21875 
Q 40.921875 74.21875 44.703125 73.484375 
Q 48.484375 72.75 52.59375 71.296875 
z
" id="DejaVuSans-54"/>
     </defs>
     <g transform="translate(190.029353 295.105819)scale(0.1 -0.1)">
      <use xlink:href="#DejaVuSans-48"/>
      <use x="63.623047" xlink:href="#DejaVuSans-46"/>
      <use x="95.410156" xlink:href="#DejaVuSans-54"/>
     </g>
    </g>
   </g>
   <g id="xtick_5">
    <g id="line2d_6">
     <path d="M 237.017303 280.187498 
L 234.532073 281.996697 
" style="fill:none;stroke:#000000;stroke-linecap:square;stroke-width:0.8;"/>
    </g>
    <g id="text_5">
     <!-- 0.8 -->
     <defs>
      <path d="M 31.78125 34.625 
Q 24.75 34.625 20.71875 30.859375 
Q 16.703125 27.09375 16.703125 20.515625 
Q 16.703125 13.921875 20.71875 10.15625 
Q 24.75 6.390625 31.78125 6.390625 
Q 38.8125 6.390625 42.859375 10.171875 
Q 46.921875 13.96875 46.921875 20.515625 
Q 46.921875 27.09375 42.890625 30.859375 
Q 38.875 34.625 31.78125 34.625 
z
M 21.921875 38.8125 
Q 15.578125 40.375 12.03125 44.71875 
Q 8.5 49.078125 8.5 55.328125 
Q 8.5 64.0625 14.71875 69.140625 
Q 20.953125 74.21875 31.78125 74.21875 
Q 42.671875 74.21875 48.875 69.140625 
Q 55.078125 64.0625 55.078125 55.328125 
Q 55.078125 49.078125 51.53125 44.71875 
Q 48 40.375 41.703125 38.8125 
Q 48.828125 37.15625 52.796875 32.3125 
Q 56.78125 27.484375 56.78125 20.515625 
Q 56.78125 9.90625 50.3125 4.234375 
Q 43.84375 -1.421875 31.78125 -1.421875 
Q 19.734375 -1.421875 13.25 4.234375 
Q 6.78125 9.90625 6.78125 20.515625 
Q 6.78125 27.484375 10.78125 32.3125 
Q 14.796875 37.15625 21.921875 38.8125 
z
M 18.3125 54.390625 
Q 18.3125 48.734375 21.84375 45.5625 
Q 25.390625 42.390625 31.78125 42.390625 
Q 38.140625 42.390625 41.71875 45.5625 
Q 45.3125 48.734375 45.3125 54.390625 
Q 45.3125 60.0625 41.71875 63.234375 
Q 38.140625 66.40625 31.78125 66.40625 
Q 25.390625 66.40625 21.84375 63.234375 
Q 18.3125 60.0625 18.3125 54.390625 
z
" id="DejaVuSans-56"/>
     </defs>
     <g transform="translate(220.910113 302.76634)scale(0.1 -0.1)">
      <use xlink:href="#DejaVuSans-48"/>
      <use x="63.623047" xlink:href="#DejaVuSans-46"/>
      <use x="95.410156" xlink:href="#DejaVuSans-56"/>
     </g>
    </g>
   </g>
   <g id="xtick_6">
    <g id="line2d_7">
     <path d="M 268.387949 287.831239 
L 265.943353 289.670018 
" style="fill:none;stroke:#000000;stroke-linecap:square;stroke-width:0.8;"/>
    </g>
    <g id="text_6">
     <!-- 1.0 -->
     <defs>
      <path d="M 12.40625 8.296875 
L 28.515625 8.296875 
L 28.515625 63.921875 
L 10.984375 60.40625 
L 10.984375 69.390625 
L 28.421875 72.90625 
L 38.28125 72.90625 
L 38.28125 8.296875 
L 54.390625 8.296875 
L 54.390625 0 
L 12.40625 0 
z
" id="DejaVuSans-49"/>
     </defs>
     <g transform="translate(252.294518 310.551799)scale(0.1 -0.1)">
      <use xlink:href="#DejaVuSans-49"/>
      <use x="63.623047" xlink:href="#DejaVuSans-46"/>
      <use x="95.410156" xlink:href="#DejaVuSans-48"/>
     </g>
    </g>
   </g>
  </g>
  <g id="axis3d_2">
   <g id="line2d_8">
    <path d="M 372.72135 220.013954 
L 279.143747 291.264825 
" style="fill:none;stroke:#000000;stroke-linecap:square;stroke-width:0.8;"/>
   </g>
   <g id="Line3DCollection_2">
    <path d="M 104.930092 113.473196 
L 111.915028 244.331309 
L 285.548062 286.38852 
" style="fill:none;stroke:#b0b0b0;stroke-width:0.8;"/>
    <path d="M 124.810294 102.673334 
L 130.695501 232.342955 
L 302.78167 273.266688 
" style="fill:none;stroke:#b0b0b0;stroke-width:0.8;"/>
    <path d="M 144.142663 92.171081 
L 148.984318 220.668445 
L 319.5437 260.503919 
" style="fill:none;stroke:#b0b0b0;stroke-width:0.8;"/>
    <path d="M 162.949534 81.954303 
L 166.800537 209.295614 
L 335.853248 248.085675 
" style="fill:none;stroke:#b0b0b0;stroke-width:0.8;"/>
    <path d="M 181.252048 72.011516 
L 184.162243 198.212917 
L 351.728392 235.998191 
" style="fill:none;stroke:#b0b0b0;stroke-width:0.8;"/>
    <path d="M 199.070224 62.331844 
L 201.086609 187.409393 
L 367.186258 224.228425 
" style="fill:none;stroke:#b0b0b0;stroke-width:0.8;"/>
   </g>
   <g id="xtick_7">
    <g id="line2d_9">
     <path d="M 284.094906 286.036538 
L 288.457621 287.09327 
" style="fill:none;stroke:#000000;stroke-linecap:square;stroke-width:0.8;"/>
    </g>
    <g id="text_7">
     <!-- 0.0 -->
     <g transform="translate(290.295847 306.144728)scale(0.1 -0.1)">
      <use xlink:href="#DejaVuSans-48"/>
      <use x="63.623047" xlink:href="#DejaVuSans-46"/>
      <use x="95.410156" xlink:href="#DejaVuSans-48"/>
     </g>
    </g>
   </g>
   <g id="xtick_8">
    <g id="line2d_10">
     <path d="M 301.342341 272.924401 
L 305.6635 273.952014 
" style="fill:none;stroke:#000000;stroke-linecap:square;stroke-width:0.8;"/>
    </g>
    <g id="text_8">
     <!-- 0.2 -->
     <g transform="translate(307.344719 292.860928)scale(0.1 -0.1)">
      <use xlink:href="#DejaVuSans-48"/>
      <use x="63.623047" xlink:href="#DejaVuSans-46"/>
      <use x="95.410156" xlink:href="#DejaVuSans-50"/>
     </g>
    </g>
   </g>
   <g id="xtick_9">
    <g id="line2d_11">
     <path d="M 318.11799 260.170933 
L 322.398219 261.170614 
" style="fill:none;stroke:#000000;stroke-linecap:square;stroke-width:0.8;"/>
    </g>
    <g id="text_9">
     <!-- 0.4 -->
     <g transform="translate(323.927299 279.940443)scale(0.1 -0.1)">
      <use xlink:href="#DejaVuSans-48"/>
      <use x="63.623047" xlink:href="#DejaVuSans-46"/>
      <use x="95.410156" xlink:href="#DejaVuSans-52"/>
     </g>
    </g>
   </g>
   <g id="xtick_10">
    <g id="line2d_12">
     <path d="M 334.440952 247.761616 
L 338.68087 248.734488 
" style="fill:none;stroke:#000000;stroke-linecap:square;stroke-width:0.8;"/>
    </g>
    <g id="text_10">
     <!-- 0.6 -->
     <g transform="translate(340.06246 267.36857)scale(0.1 -0.1)">
      <use xlink:href="#DejaVuSans-48"/>
      <use x="63.623047" xlink:href="#DejaVuSans-46"/>
      <use x="95.410156" xlink:href="#DejaVuSans-54"/>
     </g>
    </g>
   </g>
   <g id="xtick_11">
    <g id="line2d_13">
     <path d="M 350.329304 235.682704 
L 354.529527 236.629832 
" style="fill:none;stroke:#000000;stroke-linecap:square;stroke-width:0.8;"/>
    </g>
    <g id="text_11">
     <!-- 0.8 -->
     <g transform="translate(355.768069 255.131387)scale(0.1 -0.1)">
      <use xlink:href="#DejaVuSans-48"/>
      <use x="63.623047" xlink:href="#DejaVuSans-46"/>
      <use x="95.410156" xlink:href="#DejaVuSans-56"/>
     </g>
    </g>
   </g>
   <g id="xtick_12">
    <g id="line2d_14">
     <path d="M 365.800177 223.921175 
L 369.961313 224.843567 
" style="fill:none;stroke:#000000;stroke-linecap:square;stroke-width:0.8;"/>
    </g>
    <g id="text_12">
     <!-- 1.0 -->
     <g transform="translate(371.061053 243.215704)scale(0.1 -0.1)">
      <use xlink:href="#DejaVuSans-49"/>
      <use x="63.623047" xlink:href="#DejaVuSans-46"/>
      <use x="95.410156" xlink:href="#DejaVuSans-48"/>
     </g>
    </g>
   </g>
  </g>
  <g id="axis3d_3">
   <g id="line2d_15">
    <path d="M 372.72135 220.013954 
L 379.648599 91.582742 
" style="fill:none;stroke:#000000;stroke-linecap:square;stroke-width:0.8;"/>
   </g>
   <g id="Line3DCollection_3">
    <path d="M 373.115067 212.714427 
L 207.054471 176.437566 
L 104.521839 241.332414 
" style="fill:none;stroke:#b0b0b0;stroke-width:0.8;"/>
    <path d="M 374.492214 187.18213 
L 206.715668 151.615516 
L 103.052343 215.261584 
" style="fill:none;stroke:#b0b0b0;stroke-width:0.8;"/>
    <path d="M 375.89837 161.111996 
L 206.37003 126.292774 
L 101.550855 188.623162 
" style="fill:none;stroke:#b0b0b0;stroke-width:0.8;"/>
    <path d="M 377.334462 134.486847 
L 206.01735 100.454035 
L 100.016317 161.398407 
" style="fill:none;stroke:#b0b0b0;stroke-width:0.8;"/>
    <path d="M 378.801456 107.288771 
L 205.657409 74.083367 
L 98.447627 133.567746 
" style="fill:none;stroke:#b0b0b0;stroke-width:0.8;"/>
   </g>
   <g id="xtick_13">
    <g id="line2d_16">
     <path d="M 371.729416 212.411724 
L 375.889259 213.320465 
" style="fill:none;stroke:#000000;stroke-linecap:square;stroke-width:0.8;"/>
    </g>
    <g id="text_13">
     <!-- −1.0 -->
     <defs>
      <path d="M 10.59375 35.5 
L 73.1875 35.5 
L 73.1875 27.203125 
L 10.59375 27.203125 
z
" id="DejaVuSans-8722"/>
     </defs>
     <g transform="translate(379.359272 218.35392)scale(0.1 -0.1)">
      <use xlink:href="#DejaVuSans-8722"/>
      <use x="83.789062" xlink:href="#DejaVuSans-49"/>
      <use x="147.412109" xlink:href="#DejaVuSans-46"/>
      <use x="179.199219" xlink:href="#DejaVuSans-48"/>
     </g>
    </g>
   </g>
   <g id="xtick_14">
    <g id="line2d_17">
     <path d="M 373.091642 186.885226 
L 377.296307 187.776565 
" style="fill:none;stroke:#000000;stroke-linecap:square;stroke-width:0.8;"/>
    </g>
    <g id="text_14">
     <!-- −0.5 -->
     <defs>
      <path d="M 10.796875 72.90625 
L 49.515625 72.90625 
L 49.515625 64.59375 
L 19.828125 64.59375 
L 19.828125 46.734375 
Q 21.96875 47.46875 24.109375 47.828125 
Q 26.265625 48.1875 28.421875 48.1875 
Q 40.625 48.1875 47.75 41.5 
Q 54.890625 34.8125 54.890625 23.390625 
Q 54.890625 11.625 47.5625 5.09375 
Q 40.234375 -1.421875 26.90625 -1.421875 
Q 22.3125 -1.421875 17.546875 -0.640625 
Q 12.796875 0.140625 7.71875 1.703125 
L 7.71875 11.625 
Q 12.109375 9.234375 16.796875 8.0625 
Q 21.484375 6.890625 26.703125 6.890625 
Q 35.15625 6.890625 40.078125 11.328125 
Q 45.015625 15.765625 45.015625 23.390625 
Q 45.015625 31 40.078125 35.4375 
Q 35.15625 39.890625 26.703125 39.890625 
Q 22.75 39.890625 18.8125 39.015625 
Q 14.890625 38.140625 10.796875 36.28125 
z
" id="DejaVuSans-53"/>
     </defs>
     <g transform="translate(380.924486 192.859189)scale(0.1 -0.1)">
      <use xlink:href="#DejaVuSans-8722"/>
      <use x="83.789062" xlink:href="#DejaVuSans-48"/>
      <use x="147.412109" xlink:href="#DejaVuSans-46"/>
      <use x="179.199219" xlink:href="#DejaVuSans-53"/>
     </g>
    </g>
   </g>
   <g id="xtick_15">
    <g id="line2d_18">
     <path d="M 374.482553 160.821203 
L 378.733016 161.6942 
" style="fill:none;stroke:#000000;stroke-linecap:square;stroke-width:0.8;"/>
    </g>
    <g id="text_15">
     <!-- 0.0 -->
     <g transform="translate(386.712441 166.828643)scale(0.1 -0.1)">
      <use xlink:href="#DejaVuSans-48"/>
      <use x="63.623047" xlink:href="#DejaVuSans-46"/>
      <use x="95.410156" xlink:href="#DejaVuSans-48"/>
     </g>
    </g>
   </g>
   <g id="xtick_16">
    <g id="line2d_19">
     <path d="M 375.903065 134.202495 
L 380.200333 135.056164 
" style="fill:none;stroke:#000000;stroke-linecap:square;stroke-width:0.8;"/>
    </g>
    <g id="text_16">
     <!-- 0.5 -->
     <g transform="translate(388.344495 140.24521)scale(0.1 -0.1)">
      <use xlink:href="#DejaVuSans-48"/>
      <use x="63.623047" xlink:href="#DejaVuSans-46"/>
      <use x="95.410156" xlink:href="#DejaVuSans-53"/>
     </g>
    </g>
   </g>
   <g id="xtick_17">
    <g id="line2d_20">
     <path d="M 377.354134 107.011205 
L 381.699247 107.844507 
" style="fill:none;stroke:#000000;stroke-linecap:square;stroke-width:0.8;"/>
    </g>
    <g id="text_17">
     <!-- 1.0 -->
     <g transform="translate(390.011586 113.091087)scale(0.1 -0.1)">
      <use xlink:href="#DejaVuSans-49"/>
      <use x="63.623047" xlink:href="#DejaVuSans-46"/>
      <use x="95.410156" xlink:href="#DejaVuSans-48"/>
     </g>
    </g>
   </g>
  </g>
  <g id="axes_1">
   <g id="Path3DCollection_1">
    <path clip-path="url(#pe2f3f0c98f)" d="M 277.211091 194.851609 
C 278.537107 194.851609 279.808991 194.324777 280.746625 193.387143 
C 281.68426 192.449508 282.211091 191.177624 282.211091 189.851609 
C 282.211091 188.525593 281.68426 187.253709 280.746625 186.316075 
C 279.808991 185.37844 278.537107 184.851609 277.211091 184.851609 
C 275.885076 184.851609 274.613192 185.37844 273.675558 186.316075 
C 272.737923 187.253709 272.211091 188.525593 272.211091 189.851609 
C 272.211091 191.177624 272.737923 192.449508 273.675558 193.387143 
C 274.613192 194.324777 275.885076 194.851609 277.211091 194.851609 
z
" style="fill:#ff0000;fill-opacity:0.466478;stroke:#ff0000;stroke-opacity:0.466478;"/>
    <path clip-path="url(#pe2f3f0c98f)" d="M 175.281104 215.53624 
C 176.607119 215.53624 177.879003 215.009409 178.816638 214.071774 
C 179.754272 213.13414 180.281104 211.862256 180.281104 210.53624 
C 180.281104 209.210225 179.754272 207.938341 178.816638 207.000706 
C 177.879003 206.063072 176.607119 205.53624 175.281104 205.53624 
C 173.955088 205.53624 172.683204 206.063072 171.74557 207.000706 
C 170.807935 207.938341 170.281104 209.210225 170.281104 210.53624 
C 170.281104 211.862256 170.807935 213.13414 171.74557 214.071774 
C 172.683204 215.009409 173.955088 215.53624 175.281104 215.53624 
z
" style="fill:#ff0000;fill-opacity:0.427803;stroke:#ff0000;stroke-opacity:0.427803;"/>
    <path clip-path="url(#pe2f3f0c98f)" d="M 317.167453 189.788857 
C 317.586776 189.788857 317.988981 189.622259 318.285487 189.325753 
C 318.581994 189.029247 318.748592 188.627042 318.748592 188.207719 
C 318.748592 187.788396 318.581994 187.386191 318.285487 187.089685 
C 317.988981 186.793179 317.586776 186.62658 317.167453 186.62658 
C 316.748131 186.62658 316.345926 186.793179 316.049419 187.089685 
C 315.752913 187.386191 315.586315 187.788396 315.586315 188.207719 
C 315.586315 188.627042 315.752913 189.029247 316.049419 189.325753 
C 316.345926 189.622259 316.748131 189.788857 317.167453 189.788857 
z
" style="fill:#ff0000;fill-opacity:0.338886;stroke:#ff0000;stroke-opacity:0.338886;"/>
    <path clip-path="url(#pe2f3f0c98f)" d="M 232.274307 152.479622 
C 233.600323 152.479622 234.872207 151.95279 235.809841 151.015156 
C 236.747476 150.077521 237.274307 148.805637 237.274307 147.479622 
C 237.274307 146.153606 236.747476 144.881722 235.809841 143.944088 
C 234.872207 143.006453 233.600323 142.479622 232.274307 142.479622 
C 230.948292 142.479622 229.676408 143.006453 228.738774 143.944088 
C 227.801139 144.881722 227.274307 146.153606 227.274307 147.479622 
C 227.274307 148.805637 227.801139 150.077521 228.738774 151.015156 
C 229.676408 151.95279 230.948292 152.479622 232.274307 152.479622 
z
" style="fill:#ff0000;fill-opacity:0.699895;stroke:#ff0000;stroke-opacity:0.699895;"/>
    <path clip-path="url(#pe2f3f0c98f)" d="M 329.556007 186.050837 
C 329.97533 186.050837 330.377535 185.884238 330.674041 185.587732 
C 330.970547 185.291226 331.137146 184.889021 331.137146 184.469698 
C 331.137146 184.050375 330.970547 183.64817 330.674041 183.351664 
C 330.377535 183.055158 329.97533 182.888559 329.556007 182.888559 
C 329.136684 182.888559 328.734479 183.055158 328.437973 183.351664 
C 328.141467 183.64817 327.974868 184.050375 327.974868 184.469698 
C 327.974868 184.889021 328.141467 185.291226 328.437973 185.587732 
C 328.734479 185.884238 329.136684 186.050837 329.556007 186.050837 
z
" style="fill:#ff0000;fill-opacity:0.466528;stroke:#ff0000;stroke-opacity:0.466528;"/>
    <path clip-path="url(#pe2f3f0c98f)" d="M 141.519222 150.762228 
C 142.845237 150.762228 144.117121 150.235396 145.054756 149.297762 
C 145.99239 148.360127 146.519222 147.088243 146.519222 145.762228 
C 146.519222 144.436212 145.99239 143.164329 145.054756 142.226694 
C 144.117121 141.289059 142.845237 140.762228 141.519222 140.762228 
C 140.193206 140.762228 138.921323 141.289059 137.983688 142.226694 
C 137.046054 143.164329 136.519222 144.436212 136.519222 145.762228 
C 136.519222 147.088243 137.046054 148.360127 137.983688 149.297762 
C 138.921323 150.235396 140.193206 150.762228 141.519222 150.762228 
z
" style="fill:#ff0000;fill-opacity:0.944232;stroke:#ff0000;stroke-opacity:0.944232;"/>
    <path clip-path="url(#pe2f3f0c98f)" d="M 196.135882 164.267384 
C 197.461898 164.267384 198.733781 163.740553 199.671416 162.802918 
C 200.609051 161.865284 201.135882 160.5934 201.135882 159.267384 
C 201.135882 157.941369 200.609051 156.669485 199.671416 155.73185 
C 198.733781 154.794216 197.461898 154.267384 196.135882 154.267384 
C 194.809867 154.267384 193.537983 154.794216 192.600348 155.73185 
C 191.662714 156.669485 191.135882 157.941369 191.135882 159.267384 
C 191.135882 160.5934 191.662714 161.865284 192.600348 162.802918 
C 193.537983 163.740553 194.809867 164.267384 196.135882 164.267384 
z
" style="fill:#ff0000;fill-opacity:0.425489;stroke:#ff0000;stroke-opacity:0.425489;"/>
    <path clip-path="url(#pe2f3f0c98f)" d="M 222.134331 170.58526 
C 223.460347 170.58526 224.732231 170.058428 225.669865 169.120793 
C 226.6075 168.183159 227.134331 166.911275 227.134331 165.58526 
C 227.134331 164.259244 226.6075 162.98736 225.669865 162.049726 
C 224.732231 161.112091 223.460347 160.58526 222.134331 160.58526 
C 220.808316 160.58526 219.536432 161.112091 218.598798 162.049726 
C 217.661163 162.98736 217.134331 164.259244 217.134331 165.58526 
C 217.134331 166.911275 217.661163 168.183159 218.598798 169.120793 
C 219.536432 170.058428 220.808316 170.58526 222.134331 170.58526 
z
" style="fill:#ff0000;fill-opacity:0.865391;stroke:#ff0000;stroke-opacity:0.865391;"/>
    <path clip-path="url(#pe2f3f0c98f)" d="M 244.827447 213.753282 
C 245.24677 213.753282 245.648975 213.586683 245.945481 213.290177 
C 246.241987 212.993671 246.408586 212.591466 246.408586 212.172143 
C 246.408586 211.75282 246.241987 211.350615 245.945481 211.054109 
C 245.648975 210.757603 245.24677 210.591004 244.827447 210.591004 
C 244.408124 210.591004 244.005919 210.757603 243.709413 211.054109 
C 243.412907 211.350615 243.246308 211.75282 243.246308 212.172143 
C 243.246308 212.591466 243.412907 212.993671 243.709413 213.290177 
C 244.005919 213.586683 244.408124 213.753282 244.827447 213.753282 
z
" style="fill:#ff0000;fill-opacity:0.887967;stroke:#ff0000;stroke-opacity:0.887967;"/>
    <path clip-path="url(#pe2f3f0c98f)" d="M 209.358467 252.640194 
C 210.684483 252.640194 211.956367 252.113362 212.894001 251.175728 
C 213.831636 250.238093 214.358467 248.966209 214.358467 247.640194 
C 214.358467 246.314178 213.831636 245.042294 212.894001 244.10466 
C 211.956367 243.167025 210.684483 242.640194 209.358467 242.640194 
C 208.032452 242.640194 206.760568 243.167025 205.822933 244.10466 
C 204.885299 245.042294 204.358467 246.314178 204.358467 247.640194 
C 204.358467 248.966209 204.885299 250.238093 205.822933 251.175728 
C 206.760568 252.113362 208.032452 252.640194 209.358467 252.640194 
z
" style="fill:#ff0000;fill-opacity:0.792427;stroke:#ff0000;stroke-opacity:0.792427;"/>
    <path clip-path="url(#pe2f3f0c98f)" d="M 212.158492 170.928036 
C 212.577815 170.928036 212.98002 170.761437 213.276526 170.464931 
C 213.573032 170.168425 213.739631 169.76622 213.739631 169.346897 
C 213.739631 168.927574 213.573032 168.525369 213.276526 168.228863 
C 212.98002 167.932357 212.577815 167.765758 212.158492 167.765758 
C 211.739169 167.765758 211.336964 167.932357 211.040458 168.228863 
C 210.743952 168.525369 210.577353 168.927574 210.577353 169.346897 
C 210.577353 169.76622 210.743952 170.168425 211.040458 170.464931 
C 211.336964 170.761437 211.739169 170.928036 212.158492 170.928036 
z
" style="fill:#ff0000;fill-opacity:0.60609;stroke:#ff0000;stroke-opacity:0.60609;"/>
    <path clip-path="url(#pe2f3f0c98f)" d="M 225.362252 162.699864 
C 225.781575 162.699864 226.18378 162.533265 226.480286 162.236759 
C 226.776792 161.940253 226.94339 161.538048 226.94339 161.118725 
C 226.94339 160.699402 226.776792 160.297197 226.480286 160.000691 
C 226.18378 159.704185 225.781575 159.537586 225.362252 159.537586 
C 224.942929 159.537586 224.540724 159.704185 224.244218 160.000691 
C 223.947712 160.297197 223.781113 160.699402 223.781113 161.118725 
C 223.781113 161.538048 223.947712 161.940253 224.244218 162.236759 
C 224.540724 162.533265 224.942929 162.699864 225.362252 162.699864 
z
" style="fill:#ff0000;fill-opacity:0.534276;stroke:#ff0000;stroke-opacity:0.534276;"/>
    <path clip-path="url(#pe2f3f0c98f)" d="M 299.314427 213.931654 
C 300.640443 213.931654 301.912327 213.404822 302.849961 212.467188 
C 303.787596 211.529553 304.314427 210.257669 304.314427 208.931654 
C 304.314427 207.605638 303.787596 206.333754 302.849961 205.39612 
C 301.912327 204.458485 300.640443 203.931654 299.314427 203.931654 
C 297.988412 203.931654 296.716528 204.458485 295.778894 205.39612 
C 294.841259 206.333754 294.314427 207.605638 294.314427 208.931654 
C 294.314427 210.257669 294.841259 211.529553 295.778894 212.467188 
C 296.716528 213.404822 297.988412 213.931654 299.314427 213.931654 
z
" style="fill:#ff0000;fill-opacity:0.942062;stroke:#ff0000;stroke-opacity:0.942062;"/>
    <path clip-path="url(#pe2f3f0c98f)" d="M 296.79634 212.242702 
C 298.122356 212.242702 299.39424 211.715871 300.331874 210.778236 
C 301.269509 209.840602 301.79634 208.568718 301.79634 207.242702 
C 301.79634 205.916687 301.269509 204.644803 300.331874 203.707169 
C 299.39424 202.769534 298.122356 202.242702 296.79634 202.242702 
C 295.470325 202.242702 294.198441 202.769534 293.260806 203.707169 
C 292.323172 204.644803 291.79634 205.916687 291.79634 207.242702 
C 291.79634 208.568718 292.323172 209.840602 293.260806 210.778236 
C 294.198441 211.715871 295.470325 212.242702 296.79634 212.242702 
z
" style="fill:#ff0000;fill-opacity:0.3;stroke:#ff0000;stroke-opacity:0.3;"/>
    <path clip-path="url(#pe2f3f0c98f)" d="M 348.921897 158.139256 
C 349.34122 158.139256 349.743425 157.972657 350.039931 157.676151 
C 350.336437 157.379645 350.503036 156.97744 350.503036 156.558117 
C 350.503036 156.138794 350.336437 155.736589 350.039931 155.440083 
C 349.743425 155.143577 349.34122 154.976978 348.921897 154.976978 
C 348.502574 154.976978 348.100369 155.143577 347.803863 155.440083 
C 347.507357 155.736589 347.340758 156.138794 347.340758 156.558117 
C 347.340758 156.97744 347.507357 157.379645 347.803863 157.676151 
C 348.100369 157.972657 348.502574 158.139256 348.921897 158.139256 
z
" style="fill:#ff0000;fill-opacity:0.645915;stroke:#ff0000;stroke-opacity:0.645915;"/>
    <path clip-path="url(#pe2f3f0c98f)" d="M 168.750035 194.65991 
C 169.169358 194.65991 169.571563 194.493311 169.868069 194.196805 
C 170.164575 193.900299 170.331174 193.498094 170.331174 193.078771 
C 170.331174 192.659448 170.164575 192.257243 169.868069 191.960737 
C 169.571563 191.664231 169.169358 191.497632 168.750035 191.497632 
C 168.330712 191.497632 167.928507 191.664231 167.632001 191.960737 
C 167.335495 192.257243 167.168897 192.659448 167.168897 193.078771 
C 167.168897 193.498094 167.335495 193.900299 167.632001 194.196805 
C 167.928507 194.493311 168.330712 194.65991 168.750035 194.65991 
z
" style="fill:#ff0000;fill-opacity:0.603437;stroke:#ff0000;stroke-opacity:0.603437;"/>
    <path clip-path="url(#pe2f3f0c98f)" d="M 251.28021 223.453133 
C 251.699533 223.453133 252.101738 223.286534 252.398244 222.990028 
C 252.69475 222.693522 252.861349 222.291317 252.861349 221.871994 
C 252.861349 221.452671 252.69475 221.050466 252.398244 220.75396 
C 252.101738 220.457454 251.699533 220.290855 251.28021 220.290855 
C 250.860887 220.290855 250.458682 220.457454 250.162176 220.75396 
C 249.86567 221.050466 249.699071 221.452671 249.699071 221.871994 
C 249.699071 222.291317 249.86567 222.693522 250.162176 222.990028 
C 250.458682 223.286534 250.860887 223.453133 251.28021 223.453133 
z
" style="fill:#ff0000;fill-opacity:0.904993;stroke:#ff0000;stroke-opacity:0.904993;"/>
    <path clip-path="url(#pe2f3f0c98f)" d="M 349.430546 161.580059 
C 349.849869 161.580059 350.252074 161.41346 350.54858 161.116954 
C 350.845086 160.820448 351.011685 160.418243 351.011685 159.99892 
C 351.011685 159.579597 350.845086 159.177393 350.54858 158.880886 
C 350.252074 158.58438 349.849869 158.417782 349.430546 158.417782 
C 349.011223 158.417782 348.609018 158.58438 348.312512 158.880886 
C 348.016006 159.177393 347.849407 159.579597 347.849407 159.99892 
C 347.849407 160.418243 348.016006 160.820448 348.312512 161.116954 
C 348.609018 161.41346 349.011223 161.580059 349.430546 161.580059 
z
" style="fill:#ff0000;fill-opacity:0.56645;stroke:#ff0000;stroke-opacity:0.56645;"/>
    <path clip-path="url(#pe2f3f0c98f)" d="M 273.853675 213.434709 
C 274.272997 213.434709 274.675202 213.26811 274.971709 212.971604 
C 275.268215 212.675098 275.434813 212.272893 275.434813 211.85357 
C 275.434813 211.434247 275.268215 211.032042 274.971709 210.735536 
C 274.675202 210.43903 274.272997 210.272431 273.853675 210.272431 
C 273.434352 210.272431 273.032147 210.43903 272.735641 210.735536 
C 272.439135 211.032042 272.272536 211.434247 272.272536 211.85357 
C 272.272536 212.272893 272.439135 212.675098 272.735641 212.971604 
C 273.032147 213.26811 273.434352 213.434709 273.853675 213.434709 
z
" style="fill:#ff0000;stroke:#ff0000;"/>
    <path clip-path="url(#pe2f3f0c98f)" d="M 193.598686 191.734435 
C 194.018009 191.734435 194.420214 191.567836 194.71672 191.27133 
C 195.013226 190.974824 195.179825 190.572619 195.179825 190.153296 
C 195.179825 189.733973 195.013226 189.331768 194.71672 189.035262 
C 194.420214 188.738756 194.018009 188.572157 193.598686 188.572157 
C 193.179363 188.572157 192.777158 188.738756 192.480652 189.035262 
C 192.184146 189.331768 192.017548 189.733973 192.017548 190.153296 
C 192.017548 190.572619 192.184146 190.974824 192.480652 191.27133 
C 192.777158 191.567836 193.179363 191.734435 193.598686 191.734435 
z
" style="fill:#ff0000;fill-opacity:0.567278;stroke:#ff0000;stroke-opacity:0.567278;"/>
   </g>
   <g id="Line3DCollection_4">
    <path clip-path="url(#pe2f3f0c98f)" d="M 116.501958 124.551567 
L 124.693532 129.177875 
L 133.003687 136.205255 
L 141.423879 145.993278 
L 149.929366 158.589649 
L 158.480822 173.629844 
L 167.030151 190.309007 
L 175.529522 207.449647 
L 183.941343 223.661398 
L 192.246399 237.560373 
L 200.447842 247.997707 
L 208.570052 254.245578 
L 216.652871 256.101772 
L 224.74293 253.894036 
L 232.884408 248.387131 
L 241.11153 240.61606 
L 249.444494 231.685628 
L 257.889346 222.584748 
L 266.441101 214.058286 
L 275.088464 206.559109 
" style="fill:none;stroke:#008000;"/>
    <path clip-path="url(#pe2f3f0c98f)" d="M 122.187913 131.128291 
L 130.328452 135.824747 
L 138.554891 142.262573 
L 146.864169 150.798622 
L 155.241425 161.583721 
L 163.659756 174.450826 
L 172.08355 188.851847 
L 180.475156 203.876376 
L 188.803273 218.36321 
L 197.050569 231.085347 
L 205.218158 240.964237 
L 213.32554 247.259795 
L 221.406146 249.690621 
L 229.499898 248.458596 
L 237.645015 244.176276 
L 245.871301 237.718912 
L 254.19654 230.041184 
L 262.626471 222.006709 
L 271.157601 214.271812 
L 279.781294 207.244376 
" style="fill:none;stroke:#008000;"/>
    <path clip-path="url(#pe2f3f0c98f)" d="M 127.945457 141.076324 
L 136.022972 145.807864 
L 144.145656 151.335571 
L 152.317797 157.990281 
L 160.537437 166.042239 
L 168.793831 175.58211 
L 177.067627 186.41821 
L 185.334409 198.032104 
L 193.570858 209.620899 
L 201.761563 220.225695 
L 209.904068 228.914288 
L 218.010367 234.966562 
L 226.10439 238.010759 
L 234.216468 238.075673 
L 242.376686 235.549894 
L 250.609257 231.065874 
L 258.929425 225.346731 
L 267.343349 219.061698 
L 275.850277 212.728802 
L 284.445598 206.682844 
" style="fill:none;stroke:#008000;"/>
    <path clip-path="url(#pe2f3f0c98f)" d="M 133.720614 153.59795 
L 141.727372 158.366312 
L 149.735108 162.784502 
L 157.756612 167.133261 
L 165.804424 171.801652 
L 173.885837 177.167784 
L 181.999678 183.458932 
L 190.136342 190.638688 
L 198.281316 198.365993 
L 206.42089 206.047637 
L 214.547776 212.970747 
L 222.664463 218.471564 
L 230.783158 222.085173 
L 238.922676 223.631289 
L 247.103749 223.216831 
L 255.344635 221.165307 
L 263.658457 217.905692 
L 272.052739 213.862395 
L 280.530599 209.381008 
L 289.092476 204.705365 
" style="fill:none;stroke:#008000;"/>
    <path clip-path="url(#pe2f3f0c98f)" d="M 139.443623 167.336953 
L 147.377306 172.174151 
L 155.269603 175.437922 
L 163.142053 177.339023 
L 171.021584 178.368231 
L 178.933237 179.184397 
L 186.893723 180.446165 
L 194.908032 182.635396 
L 202.970207 185.929399 
L 211.067769 190.165304 
L 219.187832 194.906154 
L 227.322395 199.579578 
L 235.47102 203.635241 
L 243.640439 206.667208 
L 251.842002 208.468867 
L 260.088519 209.018496 
L 268.391846 208.419157 
L 276.7618 206.828114 
L 285.206117 204.406319 
L 293.730712 201.302182 
" style="fill:none;stroke:#008000;"/>
    <path clip-path="url(#pe2f3f0c98f)" d="M 145.042055 180.57479 
L 152.905972 185.525933 
L 160.69287 187.743796 
L 168.432348 187.358696 
L 176.16402 184.935437 
L 183.928339 181.374533 
L 191.757495 177.727069 
L 199.669055 174.967 
L 207.664255 173.784186 
L 215.731149 174.459593 
L 223.851086 176.856446 
L 232.005848 180.518074 
L 240.182991 184.825787 
L 248.378148 189.156615 
L 256.594506 192.994256 
L 264.840686 195.975958 
L 273.128332 197.886756 
L 281.470188 198.628361 
L 289.878737 198.189639 
L 298.365041 196.633219 
" style="fill:none;stroke:#008000;"/>
    <path clip-path="url(#pe2f3f0c98f)" d="M 150.454931 191.523493 
L 158.257364 196.625716 
L 165.957469 198.028429 
L 173.591415 195.783898 
L 181.208562 190.501005 
L 188.86091 183.26172 
L 196.592066 175.42938 
L 204.428714 168.385869 
L 212.376989 163.261879 
L 220.424616 160.734235 
L 228.547676 160.945551 
L 236.719286 163.558111 
L 244.91722 167.906352 
L 253.128462 173.184656 
L 261.350312 178.610465 
L 269.588951 183.529035 
L 277.856773 187.457692 
L 286.169559 190.088741 
L 294.543902 191.275326 
L 302.994892 191.016644 
" style="fill:none;stroke:#008000;"/>
    <path clip-path="url(#pe2f3f0c98f)" d="M 155.644028 198.641447 
L 163.396929 203.906698 
L 171.034307 204.799013 
L 178.596815 201.307988 
L 186.139861 194.061139 
L 193.722231 184.253484 
L 201.393956 173.45555 
L 209.18653 163.330483 
L 217.108186 155.322619 
L 225.145491 150.398517 
L 233.270397 148.911368 
L 241.450042 150.618302 
L 249.655931 154.825926 
L 257.869971 160.600176 
L 266.086532 166.970095 
L 274.311224 173.077745 
L 282.557815 178.260177 
L 290.844581 182.075789 
L 299.19084 184.297924 
L 307.613915 184.894851 
" style="fill:none;stroke:#008000;"/>
    <path clip-path="url(#pe2f3f0c98f)" d="M 160.599749 200.898169 
L 168.317087 206.305365 
L 175.917762 207.015433 
L 183.444456 202.980582 
L 190.954635 194.828906 
L 198.508879 183.801763 
L 206.158452 171.563546 
L 213.935229 159.910618 
L 221.84678 150.439872 
L 229.877984 144.260913 
L 237.998403 141.830975 
L 246.172671 142.952388 
L 254.370325 146.914864 
L 262.572329 152.718821 
L 270.773254 159.303121 
L 278.979821 165.720514 
L 287.207306 171.239032 
L 295.475335 175.377574 
L 303.803977 177.898378 
L 312.210534 178.778392 
" style="fill:none;stroke:#008000;"/>
    <path clip-path="url(#pe2f3f0c98f)" d="M 165.340769 197.935391 
L 173.036785 203.433559 
L 180.62543 204.270603 
L 188.148852 200.391469 
L 195.662693 192.413332 
L 203.224652 181.564155 
L 210.8825 169.493646 
L 218.664611 157.982865 
L 226.575695 148.612655 
L 234.598951 142.475107 
L 242.703762 140.008173 
L 250.856071 140.994567 
L 259.027909 144.708034 
L 267.203348 150.142709 
L 275.380024 156.246999 
L 283.567021 162.102713 
L 291.780798 167.025541 
L 300.04076 170.594388 
L 308.365447 172.633409 
L 316.769701 173.171423 
" style="fill:none;stroke:#008000;"/>
    <path clip-path="url(#pe2f3f0c98f)" d="M 169.908263 190.099558 
L 177.59584 195.619859 
L 185.193079 196.844447 
L 192.739153 193.740608 
L 200.28446 186.906997 
L 207.879895 177.507371 
L 215.565978 167.081806 
L 223.364738 157.264242 
L 231.276743 149.467786 
L 239.284163 144.620172 
L 247.358649 143.02425 
L 255.47112 144.378063 
L 263.600089 147.932644 
L 271.736181 152.721846 
L 279.882325 157.78735 
L 288.050718 162.342536 
L 296.258349 165.854079 
L 304.52269 168.051067 
L 312.858471 168.887779 
L 321.275753 168.487447 
" style="fill:none;stroke:#008000;"/>
    <path clip-path="url(#pe2f3f0c98f)" d="M 174.356492 178.346204 
L 182.045836 183.81811 
L 189.666375 185.624378 
L 197.252243 183.779201 
L 204.845912 178.85663 
L 212.488628 171.915286 
L 220.211183 164.310274 
L 228.027691 157.425521 
L 235.934335 152.389718 
L 243.913438 149.854307 
L 251.941308 149.898552 
L 259.996897 152.084305 
L 268.068253 155.630269 
L 276.154992 159.638513 
L 284.266767 163.300648 
L 292.419154 166.033866 
L 300.628873 167.531395 
L 308.909885 167.74126 
L 317.271145 166.802628 
L 325.71597 164.970066 
" style="fill:none;stroke:#008000;"/>
    <path clip-path="url(#pe2f3f0c98f)" d="M 178.742051 164.038578 
L 186.439811 169.404467 
L 194.091556 171.911271 
L 201.724876 171.636678 
L 209.3726 169.124559 
L 217.064733 165.29881 
L 224.821251 161.278195 
L 232.648071 158.130042 
L 240.537637 156.626828 
L 248.473902 157.077845 
L 256.439826 159.288265 
L 264.424503 162.654145 
L 272.42736 166.354228 
L 280.458284 169.57062 
L 288.534231 171.671589 
L 296.674017 172.314459 
L 304.893317 171.459601 
L 313.201362 169.313783 
L 321.59989 166.235672 
L 330.084086 162.637298 
" style="fill:none;stroke:#008000;"/>
    <path clip-path="url(#pe2f3f0c98f)" d="M 183.114109 148.683324 
L 190.823048 153.906473 
L 198.507227 157.154695 
L 206.186894 158.576449 
L 213.884569 158.680715 
L 221.618704 158.240281 
L 229.398672 158.112842 
L 237.222988 159.021488 
L 245.081595 161.357499 
L 252.961517 165.069412 
L 260.853704 169.676906 
L 268.758394 174.404506 
L 276.686957 178.388564 
L 284.659701 180.890494 
L 292.700673 181.455917 
L 300.831466 179.985153 
L 309.066069 176.711517 
L 317.408223 172.109312 
L 325.851682 166.767478 
L 334.382807 161.266576 
" style="fill:none;stroke:#008000;"/>
    <path clip-path="url(#pe2f3f0c98f)" d="M 187.507629 133.662076 
L 195.226877 138.725624 
L 202.939105 142.68033 
L 210.657152 145.743555 
L 218.393579 148.386416 
L 226.15611 151.228427 
L 233.944773 154.868184 
L 241.75219 159.693721 
L 249.567284 165.732292 
L 257.381262 172.594078 
L 265.193596 179.53523 
L 273.01557 185.623947 
L 280.869906 189.958245 
L 288.786481 191.87079 
L 296.795576 191.066809 
L 304.920845 187.666643 
L 313.174104 182.153319 
L 321.553349 175.249222 
L 330.044274 167.760327 
L 338.62448 160.429426 
" style="fill:none;stroke:#008000;"/>
    <path clip-path="url(#pe2f3f0c98f)" d="M 191.940738 120.021069 
L 199.666551 124.919177 
L 207.398579 129.476902 
L 215.142838 133.970781 
L 222.903114 138.833293 
L 230.678071 144.541712 
L 238.460328 151.460751 
L 246.238466 159.682893 
L 254.001767 168.921451 
L 261.746229 178.501285 
L 269.479556 187.461335 
L 277.223025 194.744376 
L 285.009184 199.420486 
L 292.875866 200.883019 
L 300.858223 198.968817 
L 308.981077 193.978873 
L 317.253738 186.602123 
L 325.668645 177.767383 
L 334.204018 168.463444 
L 342.829498 159.571916 
" style="fill:none;stroke:#008000;"/>
    <path clip-path="url(#pe2f3f0c98f)" d="M 196.416174 108.364025 
L 204.143046 113.089758 
L 211.884814 118.091691 
L 219.641754 123.690047 
L 227.410612 130.279653 
L 235.183151 138.216373 
L 242.946799 147.67282 
L 250.687939 158.506063 
L 258.397278 170.186889 
L 266.07564 181.826933 
L 273.737968 192.309168 
L 281.413737 200.49202 
L 289.143142 205.433531 
L 296.969846 206.578232 
L 304.932174 203.863237 
L 313.05512 197.723061 
L 321.345293 188.996934 
L 329.79014 178.763723 
L 338.361547 168.145118 
L 347.022641 158.123834 
" style="fill:none;stroke:#008000;"/>
    <path clip-path="url(#pe2f3f0c98f)" d="M 200.925618 98.859848 
L 208.647481 103.395441 
L 216.38905 108.646536 
L 224.146222 114.958241 
L 231.910682 122.689387 
L 239.669583 132.100082 
L 247.407332 143.220704 
L 255.109704 155.742693 
L 262.769477 168.975208 
L 270.39182 181.896942 
L 277.99739 193.302779 
L 285.621603 202.013201 
L 293.309739 207.094439 
L 301.108883 208.035869 
L 309.058686 204.844947 
L 317.183297 198.041388 
L 325.486567 188.554785 
L 333.951816 177.550388 
L 342.546171 166.223642 
L 351.228178 155.611135 
" style="fill:none;stroke:#008000;"/>
    <path clip-path="url(#pe2f3f0c98f)" d="M 205.455066 91.340325 
L 213.166349 95.653969 
L 220.89935 100.946341 
L 228.647028 107.567795 
L 236.397957 115.842309 
L 244.136809 125.959698 
L 251.846858 137.857751 
L 259.514491 151.131446 
L 267.13478 165.008168 
L 274.716374 178.412952 
L 282.283809 190.120255 
L 289.875961 198.960256 
L 297.540506 204.030425 
L 305.325501 204.862576 
L 313.270088 201.508666 
L 321.396634 194.528474 
L 329.706333 184.883452 
L 338.179469 173.760898 
L 346.780263 162.368355 
L 355.46492 151.745409 
" style="fill:none;stroke:#008000;"/>
    <path clip-path="url(#pe2f3f0c98f)" d="M 209.989566 85.440649 
L 217.685902 89.490717 
L 225.404328 94.628064 
L 233.1362 101.190044 
L 240.868701 109.465774 
L 248.58581 119.596304 
L 256.271152 131.469864 
L 263.912538 144.645553 
L 271.507224 158.339588 
L 279.066242 171.494353 
L 286.616074 182.925749 
L 294.196599 191.518813 
L 301.855299 196.426156 
L 309.6389 197.223142 
L 317.584374 193.985563 
L 325.711555 187.273946 
L 334.019254 178.028762 
L 342.485963 167.399935 
L 351.074972 156.549219 
L 359.742451 146.470706 
" style="fill:none;stroke:#008000;"/>
    <path clip-path="url(#pe2f3f0c98f)" d="M 116.501958 124.551567 
L 122.187913 131.128291 
L 127.945457 141.076324 
L 133.720614 153.59795 
L 139.443623 167.336953 
L 145.042055 180.57479 
L 150.454931 191.523493 
L 155.644028 198.641447 
L 160.599749 200.898169 
L 165.340769 197.935391 
L 169.908263 190.099558 
L 174.356492 178.346204 
L 178.742051 164.038578 
L 183.114109 148.683324 
L 187.507629 133.662076 
L 191.940738 120.021069 
L 196.416174 108.364025 
L 200.925618 98.859848 
L 205.455066 91.340325 
L 209.989566 85.440649 
" style="fill:none;stroke:#008000;"/>
    <path clip-path="url(#pe2f3f0c98f)" d="M 124.693532 129.177875 
L 130.328452 135.824747 
L 136.022972 145.807864 
L 141.727372 158.366312 
L 147.377306 172.174151 
L 152.905972 185.525933 
L 158.257364 196.625716 
L 163.396929 203.906698 
L 168.317087 206.305365 
L 173.036785 203.433559 
L 177.59584 195.619859 
L 182.045836 183.81811 
L 186.439811 169.404467 
L 190.823048 153.906473 
L 195.226877 138.725624 
L 199.666551 124.919177 
L 204.143046 113.089758 
L 208.647481 103.395441 
L 213.166349 95.653969 
L 217.685902 89.490717 
" style="fill:none;stroke:#008000;"/>
    <path clip-path="url(#pe2f3f0c98f)" d="M 133.003687 136.205255 
L 138.554891 142.262573 
L 144.145656 151.335571 
L 149.735108 162.784502 
L 155.269603 175.437922 
L 160.69287 187.743796 
L 165.957469 198.028429 
L 171.034307 204.799013 
L 175.917762 207.015433 
L 180.62543 204.270603 
L 185.193079 196.844447 
L 189.666375 185.624378 
L 194.091556 171.911271 
L 198.507227 157.154695 
L 202.939105 142.68033 
L 207.398579 129.476902 
L 211.884814 118.091691 
L 216.38905 108.646536 
L 220.89935 100.946341 
L 225.404328 94.628064 
" style="fill:none;stroke:#008000;"/>
    <path clip-path="url(#pe2f3f0c98f)" d="M 141.423879 145.993278 
L 146.864169 150.798622 
L 152.317797 157.990281 
L 157.756612 167.133261 
L 163.142053 177.339023 
L 168.432348 187.358696 
L 173.591415 195.783898 
L 178.596815 201.307988 
L 183.444456 202.980582 
L 188.148852 200.391469 
L 192.739153 193.740608 
L 197.252243 183.779201 
L 201.724876 171.636678 
L 206.186894 158.576449 
L 210.657152 145.743555 
L 215.142838 133.970781 
L 219.641754 123.690047 
L 224.146222 114.958241 
L 228.647028 107.567795 
L 233.1362 101.190044 
" style="fill:none;stroke:#008000;"/>
    <path clip-path="url(#pe2f3f0c98f)" d="M 149.929366 158.589649 
L 155.241425 161.583721 
L 160.537437 166.042239 
L 165.804424 171.801652 
L 171.021584 178.368231 
L 176.16402 184.935437 
L 181.208562 190.501005 
L 186.139861 194.061139 
L 190.954635 194.828906 
L 195.662693 192.413332 
L 200.28446 186.906997 
L 204.845912 178.85663 
L 209.3726 169.124559 
L 213.884569 158.680715 
L 218.393579 148.386416 
L 222.903114 138.833293 
L 227.410612 130.279653 
L 231.910682 122.689387 
L 236.397957 115.842309 
L 240.868701 109.465774 
" style="fill:none;stroke:#008000;"/>
    <path clip-path="url(#pe2f3f0c98f)" d="M 158.480822 173.629844 
L 163.659756 174.450826 
L 168.793831 175.58211 
L 173.885837 177.167784 
L 178.933237 179.184397 
L 183.928339 181.374533 
L 188.86091 183.26172 
L 193.722231 184.253484 
L 198.508879 183.801763 
L 203.224652 181.564155 
L 207.879895 177.507371 
L 212.488628 171.915286 
L 217.064733 165.29881 
L 221.618704 158.240281 
L 226.15611 151.228427 
L 230.678071 144.541712 
L 235.183151 138.216373 
L 239.669583 132.100082 
L 244.136809 125.959698 
L 248.58581 119.596304 
" style="fill:none;stroke:#008000;"/>
    <path clip-path="url(#pe2f3f0c98f)" d="M 167.030151 190.309007 
L 172.08355 188.851847 
L 177.067627 186.41821 
L 181.999678 183.458932 
L 186.893723 180.446165 
L 191.757495 177.727069 
L 196.592066 175.42938 
L 201.393956 173.45555 
L 206.158452 171.563546 
L 210.8825 169.493646 
L 215.565978 167.081806 
L 220.211183 164.310274 
L 224.821251 161.278195 
L 229.398672 158.112842 
L 233.944773 154.868184 
L 238.460328 151.460751 
L 242.946799 147.67282 
L 247.407332 143.220704 
L 251.846858 137.857751 
L 256.271152 131.469864 
" style="fill:none;stroke:#008000;"/>
    <path clip-path="url(#pe2f3f0c98f)" d="M 175.529522 207.449647 
L 180.475156 203.876376 
L 185.334409 198.032104 
L 190.136342 190.638688 
L 194.908032 182.635396 
L 199.669055 174.967 
L 204.428714 168.385869 
L 209.18653 163.330483 
L 213.935229 159.910618 
L 218.664611 157.982865 
L 223.364738 157.264242 
L 228.027691 157.425521 
L 232.648071 158.130042 
L 237.222988 159.021488 
L 241.75219 159.693721 
L 246.238466 159.682893 
L 250.687939 158.506063 
L 255.109704 155.742693 
L 259.514491 151.131446 
L 263.912538 144.645553 
" style="fill:none;stroke:#008000;"/>
    <path clip-path="url(#pe2f3f0c98f)" d="M 183.941343 223.661398 
L 188.803273 218.36321 
L 193.570858 209.620899 
L 198.281316 198.365993 
L 202.970207 185.929399 
L 207.664255 173.784186 
L 212.376989 163.261879 
L 217.108186 155.322619 
L 221.84678 150.439872 
L 226.575695 148.612655 
L 231.276743 149.467786 
L 235.934335 152.389718 
L 240.537637 156.626828 
L 245.081595 161.357499 
L 249.567284 165.732292 
L 254.001767 168.921451 
L 258.397278 170.186889 
L 262.769477 168.975208 
L 267.13478 165.008168 
L 271.507224 158.339588 
" style="fill:none;stroke:#008000;"/>
    <path clip-path="url(#pe2f3f0c98f)" d="M 192.246399 237.560373 
L 197.050569 231.085347 
L 201.761563 220.225695 
L 206.42089 206.047637 
L 211.067769 190.165304 
L 215.731149 174.459593 
L 220.424616 160.734235 
L 225.145491 150.398517 
L 229.877984 144.260913 
L 234.598951 142.475107 
L 239.284163 144.620172 
L 243.913438 149.854307 
L 248.473902 157.077845 
L 252.961517 165.069412 
L 257.381262 172.594078 
L 261.746229 178.501285 
L 266.07564 181.826933 
L 270.39182 181.896942 
L 274.716374 178.412952 
L 279.066242 171.494353 
" style="fill:none;stroke:#008000;"/>
    <path clip-path="url(#pe2f3f0c98f)" d="M 200.447842 247.997707 
L 205.218158 240.964237 
L 209.904068 228.914288 
L 214.547776 212.970747 
L 219.187832 194.906154 
L 223.851086 176.856446 
L 228.547676 160.945551 
L 233.270397 148.911368 
L 237.998403 141.830975 
L 242.703762 140.008173 
L 247.358649 143.02425 
L 251.941308 149.898552 
L 256.439826 159.288265 
L 260.853704 169.676906 
L 265.193596 179.53523 
L 269.479556 187.461335 
L 273.737968 192.309168 
L 277.99739 193.302779 
L 282.283809 190.120255 
L 286.616074 182.925749 
" style="fill:none;stroke:#008000;"/>
    <path clip-path="url(#pe2f3f0c98f)" d="M 208.570052 254.245578 
L 213.32554 247.259795 
L 218.010367 234.966562 
L 222.664463 218.471564 
L 227.322395 199.579578 
L 232.005848 180.518074 
L 236.719286 163.558111 
L 241.450042 150.618302 
L 246.172671 142.952388 
L 250.856071 140.994567 
L 255.47112 144.378063 
L 259.996897 152.084305 
L 264.424503 162.654145 
L 268.758394 174.404506 
L 273.01557 185.623947 
L 277.223025 194.744376 
L 281.413737 200.49202 
L 285.621603 202.013201 
L 289.875961 198.960256 
L 294.196599 191.518813 
" style="fill:none;stroke:#008000;"/>
    <path clip-path="url(#pe2f3f0c98f)" d="M 216.652871 256.101772 
L 221.406146 249.690621 
L 226.10439 238.010759 
L 230.783158 222.085173 
L 235.47102 203.635241 
L 240.182991 184.825787 
L 244.91722 167.906352 
L 249.655931 154.825926 
L 254.370325 146.914864 
L 259.027909 144.708034 
L 263.600089 147.932644 
L 268.068253 155.630269 
L 272.42736 166.354228 
L 276.686957 178.388564 
L 280.869906 189.958245 
L 285.009184 199.420486 
L 289.143142 205.433531 
L 293.309739 207.094439 
L 297.540506 204.030425 
L 301.855299 196.426156 
" style="fill:none;stroke:#008000;"/>
    <path clip-path="url(#pe2f3f0c98f)" d="M 224.74293 253.894036 
L 229.499898 248.458596 
L 234.216468 238.075673 
L 238.922676 223.631289 
L 243.640439 206.667208 
L 248.378148 189.156615 
L 253.128462 173.184656 
L 257.869971 160.600176 
L 262.572329 152.718821 
L 267.203348 150.142709 
L 271.736181 152.721846 
L 276.154992 159.638513 
L 280.458284 169.57062 
L 284.659701 180.890494 
L 288.786481 191.87079 
L 292.875866 200.883019 
L 296.969846 206.578232 
L 301.108883 208.035869 
L 305.325501 204.862576 
L 309.6389 197.223142 
" style="fill:none;stroke:#008000;"/>
    <path clip-path="url(#pe2f3f0c98f)" d="M 232.884408 248.387131 
L 237.645015 244.176276 
L 242.376686 235.549894 
L 247.103749 223.216831 
L 251.842002 208.468867 
L 256.594506 192.994256 
L 261.350312 178.610465 
L 266.086532 166.970095 
L 270.773254 159.303121 
L 275.380024 156.246999 
L 279.882325 157.78735 
L 284.266767 163.300648 
L 288.534231 171.671589 
L 292.700673 181.455917 
L 296.795576 191.066809 
L 300.858223 198.968817 
L 304.932174 203.863237 
L 309.058686 204.844947 
L 313.270088 201.508666 
L 317.584374 193.985563 
" style="fill:none;stroke:#008000;"/>
    <path clip-path="url(#pe2f3f0c98f)" d="M 241.11153 240.61606 
L 245.871301 237.718912 
L 250.609257 231.065874 
L 255.344635 221.165307 
L 260.088519 209.018496 
L 264.840686 195.975958 
L 269.588951 183.529035 
L 274.311224 173.077745 
L 278.979821 165.720514 
L 283.567021 162.102713 
L 288.050718 162.342536 
L 292.419154 166.033866 
L 296.674017 172.314459 
L 300.831466 179.985153 
L 304.920845 187.666643 
L 308.981077 193.978873 
L 313.05512 197.723061 
L 317.183297 198.041388 
L 321.396634 194.528474 
L 325.711555 187.273946 
" style="fill:none;stroke:#008000;"/>
    <path clip-path="url(#pe2f3f0c98f)" d="M 249.444494 231.685628 
L 254.19654 230.041184 
L 258.929425 225.346731 
L 263.658457 217.905692 
L 268.391846 208.419157 
L 273.128332 197.886756 
L 277.856773 187.457692 
L 282.557815 178.260177 
L 287.207306 171.239032 
L 291.780798 167.025541 
L 296.258349 165.854079 
L 300.628873 167.531395 
L 304.893317 171.459601 
L 309.066069 176.711517 
L 313.174104 182.153319 
L 317.253738 186.602123 
L 321.345293 188.996934 
L 325.486567 188.554785 
L 329.706333 184.883452 
L 334.019254 178.028762 
" style="fill:none;stroke:#008000;"/>
    <path clip-path="url(#pe2f3f0c98f)" d="M 257.889346 222.584748 
L 262.626471 222.006709 
L 267.343349 219.061698 
L 272.052739 213.862395 
L 276.7618 206.828114 
L 281.470188 198.628361 
L 286.169559 190.088741 
L 290.844581 182.075789 
L 295.475335 175.377574 
L 300.04076 170.594388 
L 304.52269 168.051067 
L 308.909885 167.74126 
L 313.201362 169.313783 
L 317.408223 172.109312 
L 321.553349 175.249222 
L 325.668645 177.767383 
L 329.79014 178.763723 
L 333.951816 177.550388 
L 338.179469 173.760898 
L 342.485963 167.399935 
" style="fill:none;stroke:#008000;"/>
    <path clip-path="url(#pe2f3f0c98f)" d="M 266.441101 214.058286 
L 271.157601 214.271812 
L 275.850277 212.728802 
L 280.530599 209.381008 
L 285.206117 204.406319 
L 289.878737 198.189639 
L 294.543902 191.275326 
L 299.19084 184.297924 
L 303.803977 177.898378 
L 308.365447 172.633409 
L 312.858471 168.887779 
L 317.271145 166.802628 
L 321.59989 166.235672 
L 325.851682 166.767478 
L 330.044274 167.760327 
L 334.204018 168.463444 
L 338.361547 168.145118 
L 342.546171 166.223642 
L 346.780263 162.368355 
L 351.074972 156.549219 
" style="fill:none;stroke:#008000;"/>
    <path clip-path="url(#pe2f3f0c98f)" d="M 275.088464 206.559109 
L 279.781294 207.244376 
L 284.445598 206.682844 
L 289.092476 204.705365 
L 293.730712 201.302182 
L 298.365041 196.633219 
L 302.994892 191.016644 
L 307.613915 184.894851 
L 312.210534 178.778392 
L 316.769701 173.171423 
L 321.275753 168.487447 
L 325.71597 164.970066 
L 330.084086 162.637298 
L 334.382807 161.266576 
L 338.62448 160.429426 
L 342.829498 159.571916 
L 347.022641 158.123834 
L 351.228178 155.611135 
L 355.46492 151.745409 
L 359.742451 146.470706 
" style="fill:none;stroke:#008000;"/>
   </g>
  </g>
 </g>
 <defs>
  <clipPath id="pe2f3f0c98f">
   <rect height="266.112" width="357.12" x="57.6" y="41.472"/>
  </clipPath>
 </defs>
</svg>
