<svg width="480" height="360" viewBox="0 0 480 360" xmlns="http://www.w3.org/2000/svg">
<rect x="0" y="0" width="480" height="360" opacity="1" fill="#FFFFFF" stroke="none"/>
<polygon opacity="0.1" fill="#000000" points="201,233 201,49 109,99 109,283 "/>
<polyline fill="none" opacity="0.2" stroke="#000000" stroke-width="1" points="201,233 201,49 109,99 109,283 201,233 "/>
<polyline fill="none" opacity="0.2" stroke="#000000" stroke-width="1" points="201,214 109,264 "/>
<polyline fill="none" opacity="0.2" stroke="#000000" stroke-width="1" points="201,178 109,227 "/>
<polyline fill="none" opacity="0.2" stroke="#000000" stroke-width="1" points="201,141 109,191 "/>
<polyline fill="none" opacity="0.2" stroke="#000000" stroke-width="1" points="201,104 109,154 "/>
<polyline fill="none" opacity="0.2" stroke="#000000" stroke-width="1" points="201,68 109,117 "/>
<polyline fill="none" opacity="0.2" stroke="#000000" stroke-width="1" points="194,237 194,53 "/>
<polyline fill="none" opacity="0.2" stroke="#000000" stroke-width="1" points="178,245 178,62 "/>
<polyline fill="none" opacity="0.2" stroke="#000000" stroke-width="1" points="163,253 163,70 "/>
<polyline fill="none" opacity="0.2" stroke="#000000" stroke-width="1" points="148,262 148,78 "/>
<polyline fill="none" opacity="0.2" stroke="#000000" stroke-width="1" points="132,270 132,87 "/>
<polyline fill="none" opacity="0.2" stroke="#000000" stroke-width="1" points="117,278 117,95 "/>
<polygon opacity="0.1" fill="#000000" points="201,233 109,283 278,310 370,260 "/>
<polyline fill="none" opacity="0.2" stroke="#000000" stroke-width="1" points="201,233 109,283 278,310 370,260 201,233 "/>
<polyline fill="none" opacity="0.2" stroke="#000000" stroke-width="1" points="215,235 123,285 "/>
<polyline fill="none" opacity="0.2" stroke="#000000" stroke-width="1" points="243,240 151,289 "/>
<polyline fill="none" opacity="0.2" stroke="#000000" stroke-width="1" points="271,244 179,294 "/>
<polyline fill="none" opacity="0.2" stroke="#000000" stroke-width="1" points="300,249 208,298 "/>
<polyline fill="none" opacity="0.2" stroke="#000000" stroke-width="1" points="328,253 236,303 "/>
<polyline fill="none" opacity="0.2" stroke="#000000" stroke-width="1" points="356,258 264,307 "/>
<polyline fill="none" opacity="0.2" stroke="#000000" stroke-width="1" points="194,237 362,264 "/>
<polyline fill="none" opacity="0.2" stroke="#000000" stroke-width="1" points="178,245 347,272 "/>
<polyline fill="none" opacity="0.2" stroke="#000000" stroke-width="1" points="163,253 331,281 "/>
<polyline fill="none" opacity="0.2" stroke="#000000" stroke-width="1" points="148,262 316,289 "/>
<polyline fill="none" opacity="0.2" stroke="#000000" stroke-width="1" points="132,270 301,297 "/>
<polyline fill="none" opacity="0.2" stroke="#000000" stroke-width="1" points="117,278 285,306 "/>
<polygon opacity="0.1" fill="#000000" points="201,233 370,260 370,76 201,49 "/>
<polyline fill="none" opacity="0.2" stroke="#000000" stroke-width="1" points="201,233 370,260 370,76 201,49 201,233 "/>
<polyline fill="none" opacity="0.2" stroke="#000000" stroke-width="1" points="215,235 215,52 "/>
<polyline fill="none" opacity="0.2" stroke="#000000" stroke-width="1" points="243,240 243,56 "/>
<polyline fill="none" opacity="0.2" stroke="#000000" stroke-width="1" points="271,244 271,61 "/>
<polyline fill="none" opacity="0.2" stroke="#000000" stroke-width="1" points="300,249 300,65 "/>
<polyline fill="none" opacity="0.2" stroke="#000000" stroke-width="1" points="328,253 328,70 "/>
<polyline fill="none" opacity="0.2" stroke="#000000" stroke-width="1" points="356,258 356,74 "/>
<polyline fill="none" opacity="0.2" stroke="#000000" stroke-width="1" points="201,214 370,242 "/>
<polyline fill="none" opacity="0.2" stroke="#000000" stroke-width="1" points="201,178 370,205 "/>
<polyline fill="none" opacity="0.2" stroke="#000000" stroke-width="1" points="201,141 370,168 "/>
<polyline fill="none" opacity="0.2" stroke="#000000" stroke-width="1" points="201,104 370,132 "/>
<polyline fill="none" opacity="0.2" stroke="#000000" stroke-width="1" points="201,68 370,95 "/>
<polyline fill="none" opacity="0.8" stroke="#000000" stroke-width="1" points="109,283 278,310 "/>
<polyline fill="none" opacity="0.8" stroke="#000000" stroke-width="1" points="123,285 123,290 "/>
<text x="123" y="295" dy="0.76em" text-anchor="middle" font-family="sans-serif" font-size="9.67741935483871" opacity="1" fill="#000000">
0.0
</text>
<polyline fill="none" opacity="0.8" stroke="#000000" stroke-width="1" points="151,289 151,294 "/>
<text x="151" y="299" dy="0.76em" text-anchor="middle" font-family="sans-serif" font-size="9.67741935483871" opacity="1" fill="#000000">
0.2
</text>
<polyline fill="none" opacity="0.8" stroke="#000000" stroke-width="1" points="179,294 179,299 "/>
<text x="179" y="304" dy="0.76em" text-anchor="middle" font-family="sans-serif" font-size="9.67741935483871" opacity="1" fill="#000000">
0.4
</text>
<polyline fill="none" opacity="0.8" stroke="#000000" stroke-width="1" points="208,298 208,303 "/>
<text x="208" y="308" dy="0.76em" text-anchor="middle" font-family="sans-serif" font-size="9.67741935483871" opacity="1" fill="#000000">
0.6
</text>
<polyline fill="none" opacity="0.8" stroke="#000000" stroke-width="1" points="236,303 236,308 "/>
<text x="236" y="313" dy="0.76em" text-anchor="middle" font-family="sans-serif" font-size="9.67741935483871" opacity="1" fill="#000000">
0.8
</text>
<polyline fill="none" opacity="0.8" stroke="#000000" stroke-width="1" points="264,307 264,312 "/>
<text x="264" y="317" dy="0.76em" text-anchor="middle" font-family="sans-serif" font-size="9.67741935483871" opacity="1" fill="#000000">
1.0
</text>
<polyline fill="none" opacity="0.8" stroke="#000000" stroke-width="1" points="109,283 109,99 "/>
<polyline fill="none" opacity="0.8" stroke="#000000" stroke-width="1" points="109,264 104,264 "/>
<text x="99" y="264" dy="0.5ex" text-anchor="end" font-family="sans-serif" font-size="9.67741935483871" opacity="1" fill="#000000">
-1.0
</text>
<polyline fill="none" opacity="0.8" stroke="#000000" stroke-width="1" points="109,227 104,227 "/>
<text x="99" y="227" dy="0.5ex" text-anchor="end" font-family="sans-serif" font-size="9.67741935483871" opacity="1" fill="#000000">
-0.5
</text>
<polyline fill="none" opacity="0.8" stroke="#000000" stroke-width="1" points="109,191 104,191 "/>
<text x="99" y="191" dy="0.5ex" text-anchor="end" font-family="sans-serif" font-size="9.67741935483871" opacity="1" fill="#000000">
0.0
</text>
<polyline fill="none" opacity="0.8" stroke="#000000" stroke-width="1" points="109,154 104,154 "/>
<text x="99" y="154" dy="0.5ex" text-anchor="end" font-family="sans-serif" font-size="9.67741935483871" opacity="1" fill="#000000">
0.5
</text>
<polyline fill="none" opacity="0.8" stroke="#000000" stroke-width="1" points="109,117 104,117 "/>
<text x="99" y="117" dy="0.5ex" text-anchor="end" font-family="sans-serif" font-size="9.67741935483871" opacity="1" fill="#000000">
1.0
</text>
<polyline fill="none" opacity="0.8" stroke="#000000" stroke-width="1" points="370,260 278,310 "/>
<polyline fill="none" opacity="0.8" stroke="#000000" stroke-width="1" points="362,264 362,269 "/>
<text x="362" y="274" dy="0.76em" text-anchor="middle" font-family="sans-serif" font-size="9.67741935483871" opacity="1" fill="#000000">
0.0
</text>
<polyline fill="none" opacity="0.8" stroke="#000000" stroke-width="1" points="347,272 347,277 "/>
<text x="347" y="282" dy="0.76em" text-anchor="middle" font-family="sans-serif" font-size="9.67741935483871" opacity="1" fill="#000000">
0.2
</text>
<polyline fill="none" opacity="0.8" stroke="#000000" stroke-width="1" points="331,281 331,286 "/>
<text x="331" y="291" dy="0.76em" text-anchor="middle" font-family="sans-serif" font-size="9.67741935483871" opacity="1" fill="#000000">
0.4
</text>
<polyline fill="none" opacity="0.8" stroke="#000000" stroke-width="1" points="316,289 316,294 "/>
<text x="316" y="299" dy="0.76em" text-anchor="middle" font-family="sans-serif" font-size="9.67741935483871" opacity="1" fill="#000000">
0.6
</text>
<polyline fill="none" opacity="0.8" stroke="#000000" stroke-width="1" points="301,297 301,302 "/>
<text x="301" y="307" dy="0.76em" text-anchor="middle" font-family="sans-serif" font-size="9.67741935483871" opacity="1" fill="#000000">
0.8
</text>
<polyline fill="none" opacity="0.8" stroke="#000000" stroke-width="1" points="285,306 285,311 "/>
<text x="285" y="316" dy="0.76em" text-anchor="middle" font-family="sans-serif" font-size="9.67741935483871" opacity="1" fill="#000000">
1.0
</text>
<polygon opacity="0.1" fill="#007F00" points="208,65 204,79 211,84 215,70 "/>
<polygon opacity="0.1" fill="#007F00" points="204,79 200,99 207,104 211,84 "/>
<polygon opacity="0.1" fill="#007F00" points="200,99 196,122 203,127 207,104 "/>
<polygon opacity="0.1" fill="#007F00" points="196,122 192,146 199,152 203,127 "/>
<polygon opacity="0.1" fill="#007F00" points="192,146 188,171 195,176 199,152 "/>
<polygon opacity="0.1" fill="#007F00" points="188,171 183,193 191,198 195,176 "/>
<polygon opacity="0.1" fill="#007F00" points="183,193 180,209 187,215 191,198 "/>
<polygon opacity="0.1" fill="#007F00" points="180,209 175,219 182,226 187,215 "/>
<polygon opacity="0.1" fill="#007F00" points="175,219 172,221 179,228 182,226 "/>
<polygon opacity="0.1" fill="#007F00" points="172,221 167,217 174,223 179,228 "/>
<polygon opacity="0.1" fill="#007F00" points="167,217 164,206 171,212 174,223 "/>
<polygon opacity="0.1" fill="#007F00" points="164,206 159,192 166,198 171,212 "/>
<polygon opacity="0.1" fill="#007F00" points="159,192 155,176 163,182 166,198 "/>
<polygon opacity="0.1" fill="#007F00" points="155,176 151,161 158,167 163,182 "/>
<polygon opacity="0.1" fill="#007F00" points="151,161 147,148 154,154 158,167 "/>
<polygon opacity="0.1" fill="#007F00" points="147,148 143,138 150,144 154,154 "/>
<polygon opacity="0.1" fill="#007F00" points="143,138 139,131 146,136 150,144 "/>
<polygon opacity="0.1" fill="#007F00" points="139,131 135,126 142,131 146,136 "/>
<polygon opacity="0.1" fill="#007F00" points="135,126 131,124 138,129 142,131 "/>
<polygon opacity="0.1" fill="#007F00" points="215,70 211,84 219,92 222,78 "/>
<polygon opacity="0.1" fill="#007F00" points="211,84 207,104 214,110 219,92 "/>
<polygon opacity="0.1" fill="#007F00" points="207,104 203,127 211,132 214,110 "/>
<polygon opacity="0.1" fill="#007F00" points="203,127 199,152 206,155 211,132 "/>
<polygon opacity="0.1" fill="#007F00" points="199,152 195,176 202,178 206,155 "/>
<polygon opacity="0.1" fill="#007F00" points="195,176 191,198 198,200 202,178 "/>
<polygon opacity="0.1" fill="#007F00" points="191,198 187,215 194,215 198,200 "/>
<polygon opacity="0.1" fill="#007F00" points="187,215 182,226 190,225 194,215 "/>
<polygon opacity="0.1" fill="#007F00" points="182,226 179,228 186,227 190,225 "/>
<polygon opacity="0.1" fill="#007F00" points="179,228 174,223 182,224 186,227 "/>
<polygon opacity="0.1" fill="#007F00" points="174,223 171,212 178,213 182,224 "/>
<polygon opacity="0.1" fill="#007F00" points="171,212 166,198 174,200 178,213 "/>
<polygon opacity="0.1" fill="#007F00" points="166,198 163,182 170,186 174,200 "/>
<polygon opacity="0.1" fill="#007F00" points="163,182 158,167 166,172 170,186 "/>
<polygon opacity="0.1" fill="#007F00" points="158,167 154,154 162,159 166,172 "/>
<polygon opacity="0.1" fill="#007F00" points="154,154 150,144 158,149 162,159 "/>
<polygon opacity="0.1" fill="#007F00" points="150,144 146,136 154,142 158,149 "/>
<polygon opacity="0.1" fill="#007F00" points="146,136 142,131 150,138 154,142 "/>
<polygon opacity="0.1" fill="#007F00" points="142,131 138,129 146,135 150,138 "/>
<polygon opacity="0.1" fill="#007F00" points="222,78 219,92 226,102 229,90 "/>
<polygon opacity="0.1" fill="#007F00" points="219,92 214,110 221,118 226,102 "/>
<polygon opacity="0.1" fill="#007F00" points="214,110 211,132 218,136 221,118 "/>
<polygon opacity="0.1" fill="#007F00" points="211,132 206,155 213,157 218,136 "/>
<polygon opacity="0.1" fill="#007F00" points="206,155 202,178 209,176 213,157 "/>
<polygon opacity="0.1" fill="#007F00" points="202,178 198,200 205,195 209,176 "/>
<polygon opacity="0.1" fill="#007F00" points="198,200 194,215 201,209 205,195 "/>
<polygon opacity="0.1" fill="#007F00" points="194,215 190,225 197,218 201,209 "/>
<polygon opacity="0.1" fill="#007F00" points="190,225 186,227 193,221 197,218 "/>
<polygon opacity="0.1" fill="#007F00" points="186,227 182,224 189,218 193,221 "/>
<polygon opacity="0.1" fill="#007F00" points="182,224 178,213 185,210 189,218 "/>
<polygon opacity="0.1" fill="#007F00" points="178,213 174,200 181,199 185,210 "/>
<polygon opacity="0.1" fill="#007F00" points="174,200 170,186 177,187 181,199 "/>
<polygon opacity="0.1" fill="#007F00" points="170,186 166,172 173,175 177,187 "/>
<polygon opacity="0.1" fill="#007F00" points="166,172 162,159 169,164 173,175 "/>
<polygon opacity="0.1" fill="#007F00" points="162,159 158,149 165,156 169,164 "/>
<polygon opacity="0.1" fill="#007F00" points="158,149 154,142 161,150 165,156 "/>
<polygon opacity="0.1" fill="#007F00" points="154,142 150,138 157,146 161,150 "/>
<polygon opacity="0.1" fill="#007F00" points="150,138 146,135 153,143 157,146 "/>
<polygon opacity="0.1" fill="#007F00" points="229,90 226,102 233,115 237,106 "/>
<polygon opacity="0.1" fill="#007F00" points="226,102 221,118 229,127 233,115 "/>
<polygon opacity="0.1" fill="#007F00" points="221,118 218,136 225,142 229,127 "/>
<polygon opacity="0.1" fill="#007F00" points="218,136 213,157 221,157 225,142 "/>
<polygon opacity="0.1" fill="#007F00" points="213,157 209,176 217,172 221,157 "/>
<polygon opacity="0.1" fill="#007F00" points="209,176 205,195 213,186 217,172 "/>
<polygon opacity="0.1" fill="#007F00" points="205,195 201,209 209,198 213,186 "/>
<polygon opacity="0.1" fill="#007F00" points="201,209 197,218 205,205 209,198 "/>
<polygon opacity="0.1" fill="#007F00" points="197,218 193,221 201,208 205,205 "/>
<polygon opacity="0.1" fill="#007F00" points="193,221 189,218 197,207 201,208 "/>
<polygon opacity="0.1" fill="#007F00" points="189,218 185,210 193,201 197,207 "/>
<polygon opacity="0.1" fill="#007F00" points="185,210 181,199 189,194 193,201 "/>
<polygon opacity="0.1" fill="#007F00" points="181,199 177,187 185,186 189,194 "/>
<polygon opacity="0.1" fill="#007F00" points="177,187 173,175 181,177 185,186 "/>
<polygon opacity="0.1" fill="#007F00" points="173,175 169,164 177,170 181,177 "/>
<polygon opacity="0.1" fill="#007F00" points="169,164 165,156 173,164 177,170 "/>
<polygon opacity="0.1" fill="#007F00" points="165,156 161,150 169,160 173,164 "/>
<polygon opacity="0.1" fill="#007F00" points="161,150 157,146 165,156 169,160 "/>
<polygon opacity="0.1" fill="#007F00" points="157,146 153,143 160,153 165,156 "/>
<polygon opacity="0.1" fill="#007F00" points="237,106 233,115 240,131 244,124 "/>
<polygon opacity="0.1" fill="#007F00" points="233,115 229,127 236,139 240,131 "/>
<polygon opacity="0.1" fill="#007F00" points="229,127 225,142 232,148 236,139 "/>
<polygon opacity="0.1" fill="#007F00" points="225,142 221,157 228,157 232,148 "/>
<polygon opacity="0.1" fill="#007F00" points="221,157 217,172 224,166 228,157 "/>
<polygon opacity="0.1" fill="#007F00" points="217,172 213,186 220,175 224,166 "/>
<polygon opacity="0.1" fill="#007F00" points="213,186 209,198 216,182 220,175 "/>
<polygon opacity="0.1" fill="#007F00" points="209,198 205,205 212,188 216,182 "/>
<polygon opacity="0.1" fill="#007F00" points="205,205 201,208 208,191 212,188 "/>
<polygon opacity="0.1" fill="#007F00" points="201,208 197,207 204,192 208,191 "/>
<polygon opacity="0.1" fill="#007F00" points="197,207 193,201 200,191 204,192 "/>
<polygon opacity="0.1" fill="#007F00" points="193,201 189,194 196,188 200,191 "/>
<polygon opacity="0.1" fill="#007F00" points="189,194 185,186 192,184 196,188 "/>
<polygon opacity="0.1" fill="#007F00" points="185,186 181,177 188,181 192,184 "/>
<polygon opacity="0.1" fill="#007F00" points="181,177 177,170 184,177 188,181 "/>
<polygon opacity="0.1" fill="#007F00" points="177,170 173,164 180,174 184,177 "/>
<polygon opacity="0.1" fill="#007F00" points="173,164 169,160 176,172 180,174 "/>
<polygon opacity="0.1" fill="#007F00" points="169,160 165,156 172,170 176,172 "/>
<polygon opacity="0.1" fill="#007F00" points="165,156 160,153 167,167 172,170 "/>
<polygon opacity="0.1" fill="#007F00" points="244,124 240,131 248,150 252,145 "/>
<polygon opacity="0.1" fill="#007F00" points="240,131 236,139 244,153 248,150 "/>
<polygon opacity="0.1" fill="#007F00" points="236,139 232,148 240,155 244,153 "/>
<polygon opacity="0.1" fill="#007F00" points="232,148 228,157 236,157 240,155 "/>
<polygon opacity="0.1" fill="#007F00" points="228,157 224,166 232,160 236,157 "/>
<polygon opacity="0.1" fill="#007F00" points="224,166 220,175 228,163 232,160 "/>
<polygon opacity="0.1" fill="#007F00" points="220,175 216,182 224,167 228,163 "/>
<polygon opacity="0.1" fill="#007F00" points="216,182 212,188 220,170 224,167 "/>
<polygon opacity="0.1" fill="#007F00" points="212,188 208,191 216,173 220,170 "/>
<polygon opacity="0.1" fill="#007F00" points="208,191 204,192 212,176 216,173 "/>
<polygon opacity="0.1" fill="#007F00" points="204,192 200,191 208,179 212,176 "/>
<polygon opacity="0.1" fill="#007F00" points="200,191 196,188 204,181 208,179 "/>
<polygon opacity="0.1" fill="#007F00" points="196,188 192,184 200,183 204,181 "/>
<polygon opacity="0.1" fill="#007F00" points="192,184 188,181 195,184 200,183 "/>
<polygon opacity="0.1" fill="#007F00" points="188,181 184,177 192,186 195,184 "/>
<polygon opacity="0.1" fill="#007F00" points="184,177 180,174 187,186 192,186 "/>
<polygon opacity="0.1" fill="#007F00" points="180,174 176,172 184,186 187,186 "/>
<polygon opacity="0.1" fill="#007F00" points="176,172 172,170 179,185 184,186 "/>
<polygon opacity="0.1" fill="#007F00" points="172,170 167,167 175,182 179,185 "/>
<polygon opacity="0.1" fill="#007F00" points="252,145 248,150 255,168 259,167 "/>
<polygon opacity="0.1" fill="#007F00" points="248,150 244,153 251,167 255,168 "/>
<polygon opacity="0.1" fill="#007F00" points="244,153 240,155 247,164 251,167 "/>
<polygon opacity="0.1" fill="#007F00" points="240,155 236,157 243,159 247,164 "/>
<polygon opacity="0.1" fill="#007F00" points="236,157 232,160 239,155 243,159 "/>
<polygon opacity="0.1" fill="#007F00" points="232,160 228,163 235,152 239,155 "/>
<polygon opacity="0.1" fill="#007F00" points="228,163 224,167 231,152 235,152 "/>
<polygon opacity="0.1" fill="#007F00" points="224,167 220,170 227,153 231,152 "/>
<polygon opacity="0.1" fill="#007F00" points="220,170 216,173 223,157 227,153 "/>
<polygon opacity="0.1" fill="#007F00" points="216,173 212,176 219,162 223,157 "/>
<polygon opacity="0.1" fill="#007F00" points="212,176 208,179 215,168 219,162 "/>
<polygon opacity="0.1" fill="#007F00" points="208,179 204,181 211,176 215,168 "/>
<polygon opacity="0.1" fill="#007F00" points="204,181 200,183 207,182 211,176 "/>
<polygon opacity="0.1" fill="#007F00" points="200,183 195,184 203,190 207,182 "/>
<polygon opacity="0.1" fill="#007F00" points="195,184 192,186 199,196 203,190 "/>
<polygon opacity="0.1" fill="#007F00" points="192,186 187,186 194,200 199,196 "/>
<polygon opacity="0.1" fill="#007F00" points="187,186 184,186 191,203 194,200 "/>
<polygon opacity="0.1" fill="#007F00" points="184,186 179,185 186,203 191,203 "/>
<polygon opacity="0.1" fill="#007F00" points="179,185 175,182 182,199 186,203 "/>
<polygon opacity="0.1" fill="#007F00" points="259,167 255,168 263,187 267,188 "/>
<polygon opacity="0.1" fill="#007F00" points="255,168 251,167 259,182 263,187 "/>
<polygon opacity="0.1" fill="#007F00" points="251,167 247,164 255,173 259,182 "/>
<polygon opacity="0.1" fill="#007F00" points="247,164 243,159 251,163 255,173 "/>
<polygon opacity="0.1" fill="#007F00" points="243,159 239,155 247,152 251,163 "/>
<polygon opacity="0.1" fill="#007F00" points="239,155 235,152 242,144 247,152 "/>
<polygon opacity="0.1" fill="#007F00" points="235,152 231,152 239,139 242,144 "/>
<polygon opacity="0.1" fill="#007F00" points="231,152 227,153 234,139 239,139 "/>
<polygon opacity="0.1" fill="#007F00" points="227,153 223,157 231,143 234,139 "/>
<polygon opacity="0.1" fill="#007F00" points="223,157 219,162 226,150 231,143 "/>
<polygon opacity="0.1" fill="#007F00" points="219,162 215,168 223,160 226,150 "/>
<polygon opacity="0.1" fill="#007F00" points="215,168 211,176 218,172 223,160 "/>
<polygon opacity="0.1" fill="#007F00" points="211,176 207,182 214,185 218,172 "/>
<polygon opacity="0.1" fill="#007F00" points="207,182 203,190 210,197 214,185 "/>
<polygon opacity="0.1" fill="#007F00" points="203,190 199,196 206,208 210,197 "/>
<polygon opacity="0.1" fill="#007F00" points="199,196 194,200 202,216 206,208 "/>
<polygon opacity="0.1" fill="#007F00" points="194,200 191,203 198,221 202,216 "/>
<polygon opacity="0.1" fill="#007F00" points="191,203 186,203 194,221 198,221 "/>
<polygon opacity="0.1" fill="#007F00" points="186,203 182,199 190,218 194,221 "/>
<polygon opacity="0.1" fill="#007F00" points="267,188 263,187 270,203 274,205 "/>
<polygon opacity="0.1" fill="#007F00" points="263,187 259,182 266,195 270,203 "/>
<polygon opacity="0.1" fill="#007F00" points="259,182 255,173 262,182 266,195 "/>
<polygon opacity="0.1" fill="#007F00" points="255,173 251,163 258,167 262,182 "/>
<polygon opacity="0.1" fill="#007F00" points="251,163 247,152 254,151 258,167 "/>
<polygon opacity="0.1" fill="#007F00" points="247,152 242,144 249,140 254,151 "/>
<polygon opacity="0.1" fill="#007F00" points="242,144 239,139 246,132 249,140 "/>
<polygon opacity="0.1" fill="#007F00" points="239,139 234,139 241,130 246,132 "/>
<polygon opacity="0.1" fill="#007F00" points="234,139 231,143 238,133 241,130 "/>
<polygon opacity="0.1" fill="#007F00" points="231,143 226,150 233,142 238,133 "/>
<polygon opacity="0.1" fill="#007F00" points="226,150 223,160 230,156 233,142 "/>
<polygon opacity="0.1" fill="#007F00" points="223,160 218,172 225,172 230,156 "/>
<polygon opacity="0.1" fill="#007F00" points="218,172 214,185 221,189 225,172 "/>
<polygon opacity="0.1" fill="#007F00" points="214,185 210,197 217,206 221,189 "/>
<polygon opacity="0.1" fill="#007F00" points="210,197 206,208 213,220 217,206 "/>
<polygon opacity="0.1" fill="#007F00" points="206,208 202,216 209,231 213,220 "/>
<polygon opacity="0.1" fill="#007F00" points="202,216 198,221 205,238 209,231 "/>
<polygon opacity="0.1" fill="#007F00" points="198,221 194,221 201,239 205,238 "/>
<polygon opacity="0.1" fill="#007F00" points="194,221 190,218 197,235 201,239 "/>
<polygon opacity="0.1" fill="#007F00" points="274,205 270,203 278,216 281,219 "/>
<polygon opacity="0.1" fill="#007F00" points="270,203 266,195 273,206 278,216 "/>
<polygon opacity="0.1" fill="#007F00" points="266,195 262,182 269,190 273,206 "/>
<polygon opacity="0.1" fill="#007F00" points="262,182 258,167 265,172 269,190 "/>
<polygon opacity="0.1" fill="#007F00" points="258,167 254,151 261,154 265,172 "/>
<polygon opacity="0.1" fill="#007F00" points="254,151 249,140 257,139 261,154 "/>
<polygon opacity="0.1" fill="#007F00" points="249,140 246,132 253,129 257,139 "/>
<polygon opacity="0.1" fill="#007F00" points="246,132 241,130 249,126 253,129 "/>
<polygon opacity="0.1" fill="#007F00" points="241,130 238,133 245,129 249,126 "/>
<polygon opacity="0.1" fill="#007F00" points="238,133 233,142 241,139 245,129 "/>
<polygon opacity="0.1" fill="#007F00" points="233,142 230,156 237,155 241,139 "/>
<polygon opacity="0.1" fill="#007F00" points="230,156 225,172 233,174 237,155 "/>
<polygon opacity="0.1" fill="#007F00" points="225,172 221,189 229,194 233,174 "/>
<polygon opacity="0.1" fill="#007F00" points="221,189 217,206 225,214 229,194 "/>
<polygon opacity="0.1" fill="#007F00" points="217,206 213,220 221,232 225,214 "/>
<polygon opacity="0.1" fill="#007F00" points="213,220 209,231 217,245 221,232 "/>
<polygon opacity="0.1" fill="#007F00" points="209,231 205,238 213,253 217,245 "/>
<polygon opacity="0.1" fill="#007F00" points="205,238 201,239 209,255 213,253 "/>
<polygon opacity="0.1" fill="#007F00" points="201,239 197,235 205,251 209,255 "/>
<polygon opacity="0.1" fill="#007F00" points="281,219 278,216 285,223 288,226 "/>
<polygon opacity="0.1" fill="#007F00" points="278,216 273,206 280,212 285,223 "/>
<polygon opacity="0.1" fill="#007F00" points="273,206 269,190 276,196 280,212 "/>
<polygon opacity="0.1" fill="#007F00" points="269,190 265,172 272,177 276,196 "/>
<polygon opacity="0.1" fill="#007F00" points="265,172 261,154 268,157 272,177 "/>
<polygon opacity="0.1" fill="#007F00" points="261,154 257,139 264,141 268,157 "/>
<polygon opacity="0.1" fill="#007F00" points="257,139 253,129 260,130 264,141 "/>
<polygon opacity="0.1" fill="#007F00" points="253,129 249,126 256,126 260,130 "/>
<polygon opacity="0.1" fill="#007F00" points="249,126 245,129 252,130 256,126 "/>
<polygon opacity="0.1" fill="#007F00" points="245,129 241,139 248,140 252,130 "/>
<polygon opacity="0.1" fill="#007F00" points="241,139 237,155 244,157 248,140 "/>
<polygon opacity="0.1" fill="#007F00" points="237,155 233,174 240,177 244,157 "/>
<polygon opacity="0.1" fill="#007F00" points="233,174 229,194 236,199 240,177 "/>
<polygon opacity="0.1" fill="#007F00" points="229,194 225,214 232,222 236,199 "/>
<polygon opacity="0.1" fill="#007F00" points="225,214 221,232 228,241 232,222 "/>
<polygon opacity="0.1" fill="#007F00" points="221,232 217,245 224,256 228,241 "/>
<polygon opacity="0.1" fill="#007F00" points="217,245 213,253 220,265 224,256 "/>
<polygon opacity="0.1" fill="#007F00" points="213,253 209,255 216,267 220,265 "/>
<polygon opacity="0.1" fill="#007F00" points="209,255 205,251 212,262 216,267 "/>
<polygon opacity="0.1" fill="#007F00" points="288,226 285,223 292,225 296,227 "/>
<polygon opacity="0.1" fill="#007F00" points="285,223 280,212 288,215 292,225 "/>
<polygon opacity="0.1" fill="#007F00" points="280,212 276,196 284,200 288,215 "/>
<polygon opacity="0.1" fill="#007F00" points="276,196 272,177 280,181 284,200 "/>
<polygon opacity="0.1" fill="#007F00" points="272,177 268,157 276,162 280,181 "/>
<polygon opacity="0.1" fill="#007F00" points="268,157 264,141 272,146 276,162 "/>
<polygon opacity="0.1" fill="#007F00" points="264,141 260,130 268,134 272,146 "/>
<polygon opacity="0.1" fill="#007F00" points="260,130 256,126 264,130 268,134 "/>
<polygon opacity="0.1" fill="#007F00" points="256,126 252,130 260,133 264,130 "/>
<polygon opacity="0.1" fill="#007F00" points="252,130 248,140 256,144 260,133 "/>
<polygon opacity="0.1" fill="#007F00" points="248,140 244,157 252,160 256,144 "/>
<polygon opacity="0.1" fill="#007F00" points="244,157 240,177 248,181 252,160 "/>
<polygon opacity="0.1" fill="#007F00" points="240,177 236,199 244,204 248,181 "/>
<polygon opacity="0.1" fill="#007F00" points="236,199 232,222 240,227 244,204 "/>
<polygon opacity="0.1" fill="#007F00" points="232,222 228,241 236,246 240,227 "/>
<polygon opacity="0.1" fill="#007F00" points="228,241 224,256 232,262 236,246 "/>
<polygon opacity="0.1" fill="#007F00" points="224,256 220,265 228,270 232,262 "/>
<polygon opacity="0.1" fill="#007F00" points="220,265 216,267 224,273 228,270 "/>
<polygon opacity="0.1" fill="#007F00" points="216,267 212,262 219,268 224,273 "/>
<polygon opacity="0.1" fill="#007F00" points="296,227 292,225 299,221 303,222 "/>
<polygon opacity="0.1" fill="#007F00" points="292,225 288,215 295,214 299,221 "/>
<polygon opacity="0.1" fill="#007F00" points="288,215 284,200 291,201 295,214 "/>
<polygon opacity="0.1" fill="#007F00" points="284,200 280,181 287,184 291,201 "/>
<polygon opacity="0.1" fill="#007F00" points="280,181 276,162 283,167 287,184 "/>
<polygon opacity="0.1" fill="#007F00" points="276,162 272,146 279,151 283,167 "/>
<polygon opacity="0.1" fill="#007F00" points="272,146 268,134 275,141 279,151 "/>
<polygon opacity="0.1" fill="#007F00" points="268,134 264,130 271,137 275,141 "/>
<polygon opacity="0.1" fill="#007F00" points="264,130 260,133 267,140 271,137 "/>
<polygon opacity="0.1" fill="#007F00" points="260,133 256,144 263,149 267,140 "/>
<polygon opacity="0.1" fill="#007F00" points="256,144 252,160 259,165 263,149 "/>
<polygon opacity="0.1" fill="#007F00" points="252,160 248,181 255,184 259,165 "/>
<polygon opacity="0.1" fill="#007F00" points="248,181 244,204 251,206 255,184 "/>
<polygon opacity="0.1" fill="#007F00" points="244,204 240,227 247,228 251,206 "/>
<polygon opacity="0.1" fill="#007F00" points="240,227 236,246 243,247 247,228 "/>
<polygon opacity="0.1" fill="#007F00" points="236,246 232,262 239,262 243,247 "/>
<polygon opacity="0.1" fill="#007F00" points="232,262 228,270 235,271 239,262 "/>
<polygon opacity="0.1" fill="#007F00" points="228,270 224,273 231,272 235,271 "/>
<polygon opacity="0.1" fill="#007F00" points="224,273 219,268 226,268 231,272 "/>
<polygon opacity="0.1" fill="#007F00" points="303,222 299,221 307,214 311,213 "/>
<polygon opacity="0.1" fill="#007F00" points="299,221 295,214 303,209 307,214 "/>
<polygon opacity="0.1" fill="#007F00" points="295,214 291,201 299,199 303,209 "/>
<polygon opacity="0.1" fill="#007F00" points="291,201 287,184 295,185 299,199 "/>
<polygon opacity="0.1" fill="#007F00" points="287,184 283,167 291,170 295,185 "/>
<polygon opacity="0.1" fill="#007F00" points="283,167 279,151 287,158 291,170 "/>
<polygon opacity="0.1" fill="#007F00" points="279,151 275,141 283,149 287,158 "/>
<polygon opacity="0.1" fill="#007F00" points="275,141 271,137 279,144 283,149 "/>
<polygon opacity="0.1" fill="#007F00" points="271,137 267,140 275,146 279,144 "/>
<polygon opacity="0.1" fill="#007F00" points="267,140 263,149 271,155 275,146 "/>
<polygon opacity="0.1" fill="#007F00" points="263,149 259,165 267,168 271,155 "/>
<polygon opacity="0.1" fill="#007F00" points="259,165 255,184 263,186 267,168 "/>
<polygon opacity="0.1" fill="#007F00" points="255,184 251,206 259,206 263,186 "/>
<polygon opacity="0.1" fill="#007F00" points="251,206 247,228 254,226 259,206 "/>
<polygon opacity="0.1" fill="#007F00" points="247,228 243,247 251,243 254,226 "/>
<polygon opacity="0.1" fill="#007F00" points="243,247 239,262 246,257 251,243 "/>
<polygon opacity="0.1" fill="#007F00" points="239,262 235,271 243,264 246,257 "/>
<polygon opacity="0.1" fill="#007F00" points="235,271 231,272 238,267 243,264 "/>
<polygon opacity="0.1" fill="#007F00" points="231,272 226,268 234,262 238,267 "/>
<polygon opacity="0.1" fill="#007F00" points="311,213 307,214 314,204 318,201 "/>
<polygon opacity="0.1" fill="#007F00" points="307,214 303,209 310,202 314,204 "/>
<polygon opacity="0.1" fill="#007F00" points="303,209 299,199 306,195 310,202 "/>
<polygon opacity="0.1" fill="#007F00" points="299,199 295,185 302,185 306,195 "/>
<polygon opacity="0.1" fill="#007F00" points="295,185 291,170 298,174 302,185 "/>
<polygon opacity="0.1" fill="#007F00" points="291,170 287,158 294,163 298,174 "/>
<polygon opacity="0.1" fill="#007F00" points="287,158 283,149 290,155 294,163 "/>
<polygon opacity="0.1" fill="#007F00" points="283,149 279,144 286,152 290,155 "/>
<polygon opacity="0.1" fill="#007F00" points="279,144 275,146 282,153 286,152 "/>
<polygon opacity="0.1" fill="#007F00" points="275,146 271,155 278,159 282,153 "/>
<polygon opacity="0.1" fill="#007F00" points="271,155 267,168 274,171 278,159 "/>
<polygon opacity="0.1" fill="#007F00" points="267,168 263,186 270,186 274,171 "/>
<polygon opacity="0.1" fill="#007F00" points="263,186 259,206 266,203 270,186 "/>
<polygon opacity="0.1" fill="#007F00" points="259,206 254,226 261,219 266,203 "/>
<polygon opacity="0.1" fill="#007F00" points="254,226 251,243 258,235 261,219 "/>
<polygon opacity="0.1" fill="#007F00" points="251,243 246,257 253,247 258,235 "/>
<polygon opacity="0.1" fill="#007F00" points="246,257 243,264 250,253 253,247 "/>
<polygon opacity="0.1" fill="#007F00" points="243,264 238,267 245,255 250,253 "/>
<polygon opacity="0.1" fill="#007F00" points="238,267 234,262 241,251 245,255 "/>
<polygon opacity="0.1" fill="#007F00" points="318,201 314,204 322,192 326,188 "/>
<polygon opacity="0.1" fill="#007F00" points="314,204 310,202 318,192 322,192 "/>
<polygon opacity="0.1" fill="#007F00" points="310,202 306,195 314,189 318,192 "/>
<polygon opacity="0.1" fill="#007F00" points="306,195 302,185 309,183 314,189 "/>
<polygon opacity="0.1" fill="#007F00" points="302,185 298,174 306,175 309,183 "/>
<polygon opacity="0.1" fill="#007F00" points="298,174 294,163 301,167 306,175 "/>
<polygon opacity="0.1" fill="#007F00" points="294,163 290,155 298,161 301,167 "/>
<polygon opacity="0.1" fill="#007F00" points="290,155 286,152 293,158 298,161 "/>
<polygon opacity="0.1" fill="#007F00" points="286,152 282,153 290,158 293,158 "/>
<polygon opacity="0.1" fill="#007F00" points="282,153 278,159 285,163 290,158 "/>
<polygon opacity="0.1" fill="#007F00" points="278,159 274,171 281,172 285,163 "/>
<polygon opacity="0.1" fill="#007F00" points="274,171 270,186 277,183 281,172 "/>
<polygon opacity="0.1" fill="#007F00" points="270,186 266,203 273,197 277,183 "/>
<polygon opacity="0.1" fill="#007F00" points="266,203 261,219 269,211 273,197 "/>
<polygon opacity="0.1" fill="#007F00" points="261,219 258,235 265,223 269,211 "/>
<polygon opacity="0.1" fill="#007F00" points="258,235 253,247 261,233 265,223 "/>
<polygon opacity="0.1" fill="#007F00" points="253,247 250,253 257,239 261,233 "/>
<polygon opacity="0.1" fill="#007F00" points="250,253 245,255 253,240 257,239 "/>
<polygon opacity="0.1" fill="#007F00" points="245,255 241,251 249,237 253,240 "/>
<polygon opacity="0.1" fill="#007F00" points="326,188 322,192 329,180 333,174 "/>
<polygon opacity="0.1" fill="#007F00" points="322,192 318,192 325,183 329,180 "/>
<polygon opacity="0.1" fill="#007F00" points="318,192 314,189 321,182 325,183 "/>
<polygon opacity="0.1" fill="#007F00" points="314,189 309,183 317,179 321,182 "/>
<polygon opacity="0.1" fill="#007F00" points="309,183 306,175 313,175 317,179 "/>
<polygon opacity="0.1" fill="#007F00" points="306,175 301,167 308,169 313,175 "/>
<polygon opacity="0.1" fill="#007F00" points="301,167 298,161 305,165 308,169 "/>
<polygon opacity="0.1" fill="#007F00" points="298,161 293,158 300,162 305,165 "/>
<polygon opacity="0.1" fill="#007F00" points="293,158 290,158 297,162 300,162 "/>
<polygon opacity="0.1" fill="#007F00" points="290,158 285,163 292,165 297,162 "/>
<polygon opacity="0.1" fill="#007F00" points="285,163 281,172 289,171 292,165 "/>
<polygon opacity="0.1" fill="#007F00" points="281,172 277,183 284,179 289,171 "/>
<polygon opacity="0.1" fill="#007F00" points="277,183 273,197 280,189 284,179 "/>
<polygon opacity="0.1" fill="#007F00" points="273,197 269,211 276,200 280,189 "/>
<polygon opacity="0.1" fill="#007F00" points="269,211 265,223 272,209 276,200 "/>
<polygon opacity="0.1" fill="#007F00" points="265,223 261,233 268,218 272,209 "/>
<polygon opacity="0.1" fill="#007F00" points="261,233 257,239 264,222 268,218 "/>
<polygon opacity="0.1" fill="#007F00" points="257,239 253,240 260,223 264,222 "/>
<polygon opacity="0.1" fill="#007F00" points="253,240 249,237 256,221 260,223 "/>
<polygon opacity="0.1" fill="#007F00" points="333,174 329,180 337,168 340,161 "/>
<polygon opacity="0.1" fill="#007F00" points="329,180 325,183 332,172 337,168 "/>
<polygon opacity="0.1" fill="#007F00" points="325,183 321,182 328,175 332,172 "/>
<polygon opacity="0.1" fill="#007F00" points="321,182 317,179 324,174 328,175 "/>
<polygon opacity="0.1" fill="#007F00" points="317,179 313,175 320,173 324,174 "/>
<polygon opacity="0.1" fill="#007F00" points="313,175 308,169 316,170 320,173 "/>
<polygon opacity="0.1" fill="#007F00" points="308,169 305,165 312,166 316,170 "/>
<polygon opacity="0.1" fill="#007F00" points="305,165 300,162 308,165 312,166 "/>
<polygon opacity="0.1" fill="#007F00" points="300,162 297,162 304,164 308,165 "/>
<polygon opacity="0.1" fill="#007F00" points="297,162 292,165 300,165 304,164 "/>
<polygon opacity="0.1" fill="#007F00" points="292,165 289,171 296,168 300,165 "/>
<polygon opacity="0.1" fill="#007F00" points="289,171 284,179 292,174 296,168 "/>
<polygon opacity="0.1" fill="#007F00" points="284,179 280,189 288,181 292,174 "/>
<polygon opacity="0.1" fill="#007F00" points="280,189 276,200 284,189 288,181 "/>
<polygon opacity="0.1" fill="#007F00" points="276,200 272,209 280,196 284,189 "/>
<polygon opacity="0.1" fill="#007F00" points="272,209 268,218 276,201 280,196 "/>
<polygon opacity="0.1" fill="#007F00" points="268,218 264,222 272,205 276,201 "/>
<polygon opacity="0.1" fill="#007F00" points="264,222 260,223 268,206 272,205 "/>
<polygon opacity="0.1" fill="#007F00" points="260,223 256,221 264,204 268,206 "/>
<polygon opacity="0.1" fill="#007F00" points="340,161 337,168 344,158 348,150 "/>
<polygon opacity="0.1" fill="#007F00" points="337,168 332,172 340,163 344,158 "/>
<polygon opacity="0.1" fill="#007F00" points="332,172 328,175 336,167 340,163 "/>
<polygon opacity="0.1" fill="#007F00" points="328,175 324,174 332,169 336,167 "/>
<polygon opacity="0.1" fill="#007F00" points="324,174 320,173 328,169 332,169 "/>
<polygon opacity="0.1" fill="#007F00" points="320,173 316,170 324,169 328,169 "/>
<polygon opacity="0.1" fill="#007F00" points="316,170 312,166 320,166 324,169 "/>
<polygon opacity="0.1" fill="#007F00" points="312,166 308,165 316,165 320,166 "/>
<polygon opacity="0.1" fill="#007F00" points="308,165 304,164 312,164 316,165 "/>
<polygon opacity="0.1" fill="#007F00" points="304,164 300,165 308,164 312,164 "/>
<polygon opacity="0.1" fill="#007F00" points="300,165 296,168 304,165 308,164 "/>
<polygon opacity="0.1" fill="#007F00" points="296,168 292,174 300,168 304,165 "/>
<polygon opacity="0.1" fill="#007F00" points="292,174 288,181 296,172 300,168 "/>
<polygon opacity="0.1" fill="#007F00" points="288,181 284,189 292,178 296,172 "/>
<polygon opacity="0.1" fill="#007F00" points="284,189 280,196 288,183 292,178 "/>
<polygon opacity="0.1" fill="#007F00" points="280,196 276,201 284,187 288,183 "/>
<polygon opacity="0.1" fill="#007F00" points="276,201 272,205 280,189 284,187 "/>
<polygon opacity="0.1" fill="#007F00" points="272,205 268,206 276,190 280,189 "/>
<polygon opacity="0.1" fill="#007F00" points="268,206 264,204 271,189 276,190 "/>
<polyline fill="none" opacity="0.5" stroke="#007F00" stroke-width="1" points="208,65 204,79 200,99 196,122 192,146 188,171 183,193 180,209 175,219 172,221 167,217 164,206 159,192 155,176 151,161 147,148 143,138 139,131 135,126 131,124 "/>
<polyline fill="none" opacity="0.5" stroke="#007F00" stroke-width="1" points="215,70 211,84 207,104 203,127 199,152 195,176 191,198 187,215 182,226 179,228 174,223 171,212 166,198 163,182 158,167 154,154 150,144 146,136 142,131 138,129 "/>
<polyline fill="none" opacity="0.5" stroke="#007F00" stroke-width="1" points="222,78 219,92 214,110 211,132 206,155 202,178 198,200 194,215 190,225 186,227 182,224 178,213 174,200 170,186 166,172 162,159 158,149 154,142 150,138 146,135 "/>
<polyline fill="none" opacity="0.5" stroke="#007F00" stroke-width="1" points="229,90 226,102 221,118 218,136 213,157 209,176 205,195 201,209 197,218 193,221 189,218 185,210 181,199 177,187 173,175 169,164 165,156 161,150 157,146 153,143 "/>
<polyline fill="none" opacity="0.5" stroke="#007F00" stroke-width="1" points="237,106 233,115 229,127 225,142 221,157 217,172 213,186 209,198 205,205 201,208 197,207 193,201 189,194 185,186 181,177 177,170 173,164 169,160 165,156 160,153 "/>
<polyline fill="none" opacity="0.5" stroke="#007F00" stroke-width="1" points="244,124 240,131 236,139 232,148 228,157 224,166 220,175 216,182 212,188 208,191 204,192 200,191 196,188 192,184 188,181 184,177 180,174 176,172 172,170 167,167 "/>
<polyline fill="none" opacity="0.5" stroke="#007F00" stroke-width="1" points="252,145 248,150 244,153 240,155 236,157 232,160 228,163 224,167 220,170 216,173 212,176 208,179 204,181 200,183 195,184 192,186 187,186 184,186 179,185 175,182 "/>
<polyline fill="none" opacity="0.5" stroke="#007F00" stroke-width="1" points="259,167 255,168 251,167 247,164 243,159 239,155 235,152 231,152 227,153 223,157 219,162 215,168 211,176 207,182 203,190 199,196 194,200 191,203 186,203 182,199 "/>
<polyline fill="none" opacity="0.5" stroke="#007F00" stroke-width="1" points="267,188 263,187 259,182 255,173 251,163 247,152 242,144 239,139 234,139 231,143 226,150 223,160 218,172 214,185 210,197 206,208 202,216 198,221 194,221 190,218 "/>
<polyline fill="none" opacity="0.5" stroke="#007F00" stroke-width="1" points="274,205 270,203 266,195 262,182 258,167 254,151 249,140 246,132 241,130 238,133 233,142 230,156 225,172 221,189 217,206 213,220 209,231 205,238 201,239 197,235 "/>
<polyline fill="none" opacity="0.5" stroke="#007F00" stroke-width="1" points="281,219 278,216 273,206 269,190 265,172 261,154 257,139 253,129 249,126 245,129 241,139 237,155 233,174 229,194 225,214 221,232 217,245 213,253 209,255 205,251 "/>
<polyline fill="none" opacity="0.5" stroke="#007F00" stroke-width="1" points="288,226 285,223 280,212 276,196 272,177 268,157 264,141 260,130 256,126 252,130 248,140 244,157 240,177 236,199 232,222 228,241 224,256 220,265 216,267 212,262 "/>
<polyline fill="none" opacity="0.5" stroke="#007F00" stroke-width="1" points="296,227 292,225 288,215 284,200 280,181 276,162 272,146 268,134 264,130 260,133 256,144 252,160 248,181 244,204 240,227 236,246 232,262 228,270 224,273 219,268 "/>
<polyline fill="none" opacity="0.5" stroke="#007F00" stroke-width="1" points="303,222 299,221 295,214 291,201 287,184 283,167 279,151 275,141 271,137 267,140 263,149 259,165 255,184 251,206 247,228 243,247 239,262 235,271 231,272 226,268 "/>
<polyline fill="none" opacity="0.5" stroke="#007F00" stroke-width="1" points="311,213 307,214 303,209 299,199 295,185 291,170 287,158 283,149 279,144 275,146 271,155 267,168 263,186 259,206 254,226 251,243 246,257 243,264 238,267 234,262 "/>
<polyline fill="none" opacity="0.5" stroke="#007F00" stroke-width="1" points="318,201 314,204 310,202 306,195 302,185 298,174 294,163 290,155 286,152 282,153 278,159 274,171 270,186 266,203 261,219 258,235 253,247 250,253 245,255 241,251 "/>
<polyline fill="none" opacity="0.5" stroke="#007F00" stroke-width="1" points="326,188 322,192 318,192 314,189 309,183 306,175 301,167 298,161 293,158 290,158 285,163 281,172 277,183 273,197 269,211 265,223 261,233 257,239 253,240 249,237 "/>
<polyline fill="none" opacity="0.5" stroke="#007F00" stroke-width="1" points="333,174 329,180 325,183 321,182 317,179 313,175 308,169 305,165 300,162 297,162 292,165 289,171 284,179 280,189 276,200 272,209 268,218 264,222 260,223 256,221 "/>
<polyline fill="none" opacity="0.5" stroke="#007F00" stroke-width="1" points="340,161 337,168 332,172 328,175 324,174 320,173 316,170 312,166 308,165 304,164 300,165 296,168 292,174 288,181 284,189 280,196 276,201 272,205 268,206 264,204 "/>
<polyline fill="none" opacity="0.5" stroke="#007F00" stroke-width="1" points="348,150 344,158 340,163 336,167 332,169 328,169 324,169 320,166 316,165 312,164 308,164 304,165 300,168 296,172 292,178 288,183 284,187 280,189 276,190 271,189 "/>
<polyline fill="none" opacity="0.5" stroke="#007F00" stroke-width="1" points="208,65 215,70 222,78 229,90 237,106 244,124 252,145 259,167 267,188 274,205 281,219 288,226 296,227 303,222 311,213 318,201 326,188 333,174 340,161 348,150 "/>
<polyline fill="none" opacity="0.5" stroke="#007F00" stroke-width="1" points="204,79 211,84 219,92 226,102 233,115 240,131 248,150 255,168 263,187 270,203 278,216 285,223 292,225 299,221 307,214 314,204 322,192 329,180 337,168 344,158 "/>
<polyline fill="none" opacity="0.5" stroke="#007F00" stroke-width="1" points="200,99 207,104 214,110 221,118 229,127 236,139 244,153 251,167 259,182 266,195 273,206 280,212 288,215 295,214 303,209 310,202 318,192 325,183 332,172 340,163 "/>
<polyline fill="none" opacity="0.5" stroke="#007F00" stroke-width="1" points="196,122 203,127 211,132 218,136 225,142 232,148 240,155 247,164 255,173 262,182 269,190 276,196 284,200 291,201 299,199 306,195 314,189 321,182 328,175 336,167 "/>
<polyline fill="none" opacity="0.5" stroke="#007F00" stroke-width="1" points="192,146 199,152 206,155 213,157 221,157 228,157 236,157 243,159 251,163 258,167 265,172 272,177 280,181 287,184 295,185 302,185 309,183 317,179 324,174 332,169 "/>
<polyline fill="none" opacity="0.5" stroke="#007F00" stroke-width="1" points="188,171 195,176 202,178 209,176 217,172 224,166 232,160 239,155 247,152 254,151 261,154 268,157 276,162 283,167 291,170 298,174 306,175 313,175 320,173 328,169 "/>
<polyline fill="none" opacity="0.5" stroke="#007F00" stroke-width="1" points="183,193 191,198 198,200 205,195 213,186 220,175 228,163 235,152 242,144 249,140 257,139 264,141 272,146 279,151 287,158 294,163 301,167 308,169 316,170 324,169 "/>
<polyline fill="none" opacity="0.5" stroke="#007F00" stroke-width="1" points="180,209 187,215 194,215 201,209 209,198 216,182 224,167 231,152 239,139 246,132 253,129 260,130 268,134 275,141 283,149 290,155 298,161 305,165 312,166 320,166 "/>
<polyline fill="none" opacity="0.5" stroke="#007F00" stroke-width="1" points="175,219 182,226 190,225 197,218 205,205 212,188 220,170 227,153 234,139 241,130 249,126 256,126 264,130 271,137 279,144 286,152 293,158 300,162 308,165 316,165 "/>
<polyline fill="none" opacity="0.5" stroke="#007F00" stroke-width="1" points="172,221 179,228 186,227 193,221 201,208 208,191 216,173 223,157 231,143 238,133 245,129 252,130 260,133 267,140 275,146 282,153 290,158 297,162 304,164 312,164 "/>
<polyline fill="none" opacity="0.5" stroke="#007F00" stroke-width="1" points="167,217 174,223 182,224 189,218 197,207 204,192 212,176 219,162 226,150 233,142 241,139 248,140 256,144 263,149 271,155 278,159 285,163 292,165 300,165 308,164 "/>
<polyline fill="none" opacity="0.5" stroke="#007F00" stroke-width="1" points="164,206 171,212 178,213 185,210 193,201 200,191 208,179 215,168 223,160 230,156 237,155 244,157 252,160 259,165 267,168 274,171 281,172 289,171 296,168 304,165 "/>
<polyline fill="none" opacity="0.5" stroke="#007F00" stroke-width="1" points="159,192 166,198 174,200 181,199 189,194 196,188 204,181 211,176 218,172 225,172 233,174 240,177 248,181 255,184 263,186 270,186 277,183 284,179 292,174 300,168 "/>
<polyline fill="none" opacity="0.5" stroke="#007F00" stroke-width="1" points="155,176 163,182 170,186 177,187 185,186 192,184 200,183 207,182 214,185 221,189 229,194 236,199 244,204 251,206 259,206 266,203 273,197 280,189 288,181 296,172 "/>
<polyline fill="none" opacity="0.5" stroke="#007F00" stroke-width="1" points="151,161 158,167 166,172 173,175 181,177 188,181 195,184 203,190 210,197 217,206 225,214 232,222 240,227 247,228 254,226 261,219 269,211 276,200 284,189 292,178 "/>
<polyline fill="none" opacity="0.5" stroke="#007F00" stroke-width="1" points="147,148 154,154 162,159 169,164 177,170 184,177 192,186 199,196 206,208 213,220 221,232 228,241 236,246 243,247 251,243 258,235 265,223 272,209 280,196 288,183 "/>
<polyline fill="none" opacity="0.5" stroke="#007F00" stroke-width="1" points="143,138 150,144 158,149 165,156 173,164 180,174 187,186 194,200 202,216 209,231 217,245 224,256 232,262 239,262 246,257 253,247 261,233 268,218 276,201 284,187 "/>
<polyline fill="none" opacity="0.5" stroke="#007F00" stroke-width="1" points="139,131 146,136 154,142 161,150 169,160 176,172 184,186 191,203 198,221 205,238 213,253 220,265 228,270 235,271 243,264 250,253 257,239 264,222 272,205 280,189 "/>
<polyline fill="none" opacity="0.5" stroke="#007F00" stroke-width="1" points="135,126 142,131 150,138 157,146 165,156 172,170 179,185 186,203 194,221 201,239 209,255 216,267 224,273 231,272 238,267 245,255 253,240 260,223 268,206 276,190 "/>
<polyline fill="none" opacity="0.5" stroke="#007F00" stroke-width="1" points="131,124 138,129 146,135 153,143 160,153 167,167 175,182 182,199 190,218 197,235 205,251 212,262 219,268 226,268 234,262 241,251 249,237 256,221 264,204 271,189 "/>
<circle cx="235" cy="229" r="5" opacity="0.8" fill="#FF0000" stroke="none" stroke-width="1"/>
<circle cx="190" cy="230" r="5" opacity="0.8" fill="#FF0000" stroke="none" stroke-width="1"/>
<circle cx="234" cy="253" r="2" opacity="0.8" fill="#FF0000" stroke="none" stroke-width="1"/>
<circle cx="226" cy="149" r="5" opacity="0.8" fill="#FF0000" stroke="none" stroke-width="1"/>
<circle cx="258" cy="235" r="2" opacity="0.8" fill="#FF0000" stroke="none" stroke-width="1"/>
<circle cx="218" cy="98" r="5" opacity="0.8" fill="#FF0000" stroke="none" stroke-width="1"/>
<circle cx="173" cy="185" r="5" opacity="0.8" fill="#FF0000" stroke="none" stroke-width="1"/>
<circle cx="255" cy="143" r="5" opacity="0.8" fill="#FF0000" stroke="none" stroke-width="1"/>
<circle cx="292" cy="189" r="2" opacity="0.8" fill="#FF0000" stroke="none" stroke-width="1"/>
<circle cx="280" cy="225" r="5" opacity="0.8" fill="#FF0000" stroke="none" stroke-width="1"/>
<circle cx="214" cy="176" r="2" opacity="0.8" fill="#FF0000" stroke="none" stroke-width="1"/>
<circle cx="205" cy="180" r="2" opacity="0.8" fill="#FF0000" stroke="none" stroke-width="1"/>
<circle cx="323" cy="191" r="5" opacity="0.8" fill="#FF0000" stroke="none" stroke-width="1"/>
<circle cx="228" cy="273" r="5" opacity="0.8" fill="#FF0000" stroke="none" stroke-width="1"/>
<circle cx="278" cy="191" r="2" opacity="0.8" fill="#FF0000" stroke="none" stroke-width="1"/>
<circle cx="205" cy="189" r="2" opacity="0.8" fill="#FF0000" stroke="none" stroke-width="1"/>
<circle cx="302" cy="197" r="2" opacity="0.8" fill="#FF0000" stroke="none" stroke-width="1"/>
<circle cx="268" cy="204" r="2" opacity="0.8" fill="#FF0000" stroke="none" stroke-width="1"/>
<circle cx="320" cy="181" r="2" opacity="0.8" fill="#FF0000" stroke="none" stroke-width="1"/>
<circle cx="210" cy="196" r="2" opacity="0.8" fill="#FF0000" stroke="none" stroke-width="1"/>
</svg>
