<svg width="480" height="360" viewBox="0 0 480 360" xmlns="http://www.w3.org/2000/svg">
<rect x="0" y="0" width="479" height="359" opacity="1" fill="#FFFFFF" stroke="none"/>
<polygon opacity="0.1" fill="#000000" points="201,233 201,49 109,99 109,283 "/>
<polyline fill="none" opacity="0.2" stroke="#000000" stroke-width="1" points="201,233 201,49 109,99 109,283 201,233 "/>
<polyline fill="none" opacity="0.2" stroke="#000000" stroke-width="1" points="201,233 109,283 "/>
<polyline fill="none" opacity="0.2" stroke="#000000" stroke-width="1" points="201,192 109,242 "/>
<polyline fill="none" opacity="0.2" stroke="#000000" stroke-width="1" points="201,152 109,201 "/>
<polyline fill="none" opacity="0.2" stroke="#000000" stroke-width="1" points="201,110 109,160 "/>
<polyline fill="none" opacity="0.2" stroke="#000000" stroke-width="1" points="201,70 109,120 "/>
<polyline fill="none" opacity="0.2" stroke="#000000" stroke-width="1" points="201,233 201,49 "/>
<polyline fill="none" opacity="0.2" stroke="#000000" stroke-width="1" points="185,242 185,58 "/>
<polyline fill="none" opacity="0.2" stroke="#000000" stroke-width="1" points="168,251 168,67 "/>
<polyline fill="none" opacity="0.2" stroke="#000000" stroke-width="1" points="151,260 151,76 "/>
<polyline fill="none" opacity="0.2" stroke="#000000" stroke-width="1" points="135,269 135,85 "/>
<polyline fill="none" opacity="0.2" stroke="#000000" stroke-width="1" points="118,278 118,95 "/>
<polygon opacity="0.1" fill="#000000" points="201,233 109,283 278,310 370,260 "/>
<polyline fill="none" opacity="0.2" stroke="#000000" stroke-width="1" points="201,233 109,283 278,310 370,260 201,233 "/>
<polyline fill="none" opacity="0.2" stroke="#000000" stroke-width="1" points="201,233 109,283 "/>
<polyline fill="none" opacity="0.2" stroke="#000000" stroke-width="1" points="231,238 139,287 "/>
<polyline fill="none" opacity="0.2" stroke="#000000" stroke-width="1" points="262,243 170,292 "/>
<polyline fill="none" opacity="0.2" stroke="#000000" stroke-width="1" points="293,247 200,297 "/>
<polyline fill="none" opacity="0.2" stroke="#000000" stroke-width="1" points="323,252 231,302 "/>
<polyline fill="none" opacity="0.2" stroke="#000000" stroke-width="1" points="354,257 262,307 "/>
<polyline fill="none" opacity="0.2" stroke="#000000" stroke-width="1" points="201,233 370,260 "/>
<polyline fill="none" opacity="0.2" stroke="#000000" stroke-width="1" points="185,242 353,269 "/>
<polyline fill="none" opacity="0.2" stroke="#000000" stroke-width="1" points="168,251 336,278 "/>
<polyline fill="none" opacity="0.2" stroke="#000000" stroke-width="1" points="151,260 320,287 "/>
<polyline fill="none" opacity="0.2" stroke="#000000" stroke-width="1" points="135,269 303,296 "/>
<polyline fill="none" opacity="0.2" stroke="#000000" stroke-width="1" points="118,278 286,305 "/>
<polygon opacity="0.1" fill="#000000" points="201,233 370,260 370,76 201,49 "/>
<polyline fill="none" opacity="0.2" stroke="#000000" stroke-width="1" points="201,233 370,260 370,76 201,49 201,233 "/>
<polyline fill="none" opacity="0.2" stroke="#000000" stroke-width="1" points="201,233 201,49 "/>
<polyline fill="none" opacity="0.2" stroke="#000000" stroke-width="1" points="231,238 231,54 "/>
<polyline fill="none" opacity="0.2" stroke="#000000" stroke-width="1" points="262,243 262,59 "/>
<polyline fill="none" opacity="0.2" stroke="#000000" stroke-width="1" points="293,247 293,64 "/>
<polyline fill="none" opacity="0.2" stroke="#000000" stroke-width="1" points="323,252 323,69 "/>
<polyline fill="none" opacity="0.2" stroke="#000000" stroke-width="1" points="354,257 354,74 "/>
<polyline fill="none" opacity="0.2" stroke="#000000" stroke-width="1" points="201,233 370,260 "/>
<polyline fill="none" opacity="0.2" stroke="#000000" stroke-width="1" points="201,192 370,219 "/>
<polyline fill="none" opacity="0.2" stroke="#000000" stroke-width="1" points="201,152 370,179 "/>
<polyline fill="none" opacity="0.2" stroke="#000000" stroke-width="1" points="201,110 370,138 "/>
<polyline fill="none" opacity="0.2" stroke="#000000" stroke-width="1" points="201,70 370,97 "/>
<polyline fill="none" opacity="0.8" stroke="#000000" stroke-width="1" points="109,283 278,310 "/>
<polyline fill="none" opacity="0.8" stroke="#000000" stroke-width="1" points="109,283 109,288 "/>
<text x="109" y="293" dy="0.76em" text-anchor="middle" font-family="sans-serf" font-size="9.67741935483871" opacity="1" fill="#000000">
0.0
</text>
<polyline fill="none" opacity="0.8" stroke="#000000" stroke-width="1" points="139,287 139,292 "/>
<text x="139" y="297" dy="0.76em" text-anchor="middle" font-family="sans-serf" font-size="9.67741935483871" opacity="1" fill="#000000">
0.2
</text>
<polyline fill="none" opacity="0.8" stroke="#000000" stroke-width="1" points="170,292 170,297 "/>
<text x="170" y="302" dy="0.76em" text-anchor="middle" font-family="sans-serf" font-size="9.67741935483871" opacity="1" fill="#000000">
0.4
</text>
<polyline fill="none" opacity="0.8" stroke="#000000" stroke-width="1" points="200,297 200,302 "/>
<text x="200" y="307" dy="0.76em" text-anchor="middle" font-family="sans-serf" font-size="9.67741935483871" opacity="1" fill="#000000">
0.6
</text>
<polyline fill="none" opacity="0.8" stroke="#000000" stroke-width="1" points="231,302 231,307 "/>
<text x="231" y="312" dy="0.76em" text-anchor="middle" font-family="sans-serf" font-size="9.67741935483871" opacity="1" fill="#000000">
0.8
</text>
<polyline fill="none" opacity="0.8" stroke="#000000" stroke-width="1" points="262,307 262,312 "/>
<text x="262" y="317" dy="0.76em" text-anchor="middle" font-family="sans-serf" font-size="9.67741935483871" opacity="1" fill="#000000">
1.0
</text>
<polyline fill="none" opacity="0.8" stroke="#000000" stroke-width="1" points="109,283 109,99 "/>
<polyline fill="none" opacity="0.8" stroke="#000000" stroke-width="1" points="109,283 104,283 "/>
<text x="99" y="283" dy="0.5ex" text-anchor="end" font-family="sans-serf" font-size="9.67741935483871" opacity="1" fill="#000000">
-1.0
</text>
<polyline fill="none" opacity="0.8" stroke="#000000" stroke-width="1" points="109,242 104,242 "/>
<text x="99" y="242" dy="0.5ex" text-anchor="end" font-family="sans-serf" font-size="9.67741935483871" opacity="1" fill="#000000">
-0.5
</text>
<polyline fill="none" opacity="0.8" stroke="#000000" stroke-width="1" points="109,201 104,201 "/>
<text x="99" y="201" dy="0.5ex" text-anchor="end" font-family="sans-serf" font-size="9.67741935483871" opacity="1" fill="#000000">
0.0
</text>
<polyline fill="none" opacity="0.8" stroke="#000000" stroke-width="1" points="109,160 104,160 "/>
<text x="99" y="160" dy="0.5ex" text-anchor="end" font-family="sans-serf" font-size="9.67741935483871" opacity="1" fill="#000000">
0.5
</text>
<polyline fill="none" opacity="0.8" stroke="#000000" stroke-width="1" points="109,120 104,120 "/>
<text x="99" y="120" dy="0.5ex" text-anchor="end" font-family="sans-serf" font-size="9.67741935483871" opacity="1" fill="#000000">
1.0
</text>
<polyline fill="none" opacity="0.8" stroke="#000000" stroke-width="1" points="370,260 278,310 "/>
<polyline fill="none" opacity="0.8" stroke="#000000" stroke-width="1" points="370,260 370,265 "/>
<text x="370" y="270" dy="0.76em" text-anchor="middle" font-family="sans-serf" font-size="9.67741935483871" opacity="1" fill="#000000">
0.0
</text>
<polyline fill="none" opacity="0.8" stroke="#000000" stroke-width="1" points="353,269 353,274 "/>
<text x="353" y="279" dy="0.76em" text-anchor="middle" font-family="sans-serf" font-size="9.67741935483871" opacity="1" fill="#000000">
0.2
</text>
<polyline fill="none" opacity="0.8" stroke="#000000" stroke-width="1" points="336,278 336,283 "/>
<text x="336" y="288" dy="0.76em" text-anchor="middle" font-family="sans-serf" font-size="9.67741935483871" opacity="1" fill="#000000">
0.4
</text>
<polyline fill="none" opacity="0.8" stroke="#000000" stroke-width="1" points="320,287 320,292 "/>
<text x="320" y="297" dy="0.76em" text-anchor="middle" font-family="sans-serf" font-size="9.67741935483871" opacity="1" fill="#000000">
0.6
</text>
<polyline fill="none" opacity="0.8" stroke="#000000" stroke-width="1" points="303,296 303,301 "/>
<text x="303" y="306" dy="0.76em" text-anchor="middle" font-family="sans-serf" font-size="9.67741935483871" opacity="1" fill="#000000">
0.8
</text>
<polyline fill="none" opacity="0.8" stroke="#000000" stroke-width="1" points="286,305 286,310 "/>
<text x="286" y="315" dy="0.76em" text-anchor="middle" font-family="sans-serf" font-size="9.67741935483871" opacity="1" fill="#000000">
1.0
</text>
<polygon opacity="0.1" fill="#007F00" points="201,59 197,75 205,81 209,65 "/>
<polygon opacity="0.1" fill="#007F00" points="197,75 193,97 201,102 205,81 "/>
<polygon opacity="0.1" fill="#007F00" points="193,97 188,122 196,128 201,102 "/>
<polygon opacity="0.1" fill="#007F00" points="188,122 184,150 192,155 196,128 "/>
<polygon opacity="0.1" fill="#007F00" points="184,150 179,177 187,183 192,155 "/>
<polygon opacity="0.1" fill="#007F00" points="179,177 175,201 183,208 187,183 "/>
<polygon opacity="0.1" fill="#007F00" points="175,201 171,220 178,226 183,208 "/>
<polygon opacity="0.1" fill="#007F00" points="171,220 166,230 174,237 178,226 "/>
<polygon opacity="0.1" fill="#007F00" points="166,230 162,233 169,240 174,237 "/>
<polygon opacity="0.1" fill="#007F00" points="162,233 158,227 165,235 169,240 "/>
<polygon opacity="0.1" fill="#007F00" points="158,227 153,215 161,223 165,235 "/>
<polygon opacity="0.1" fill="#007F00" points="153,215 149,200 156,207 161,223 "/>
<polygon opacity="0.1" fill="#007F00" points="149,200 144,183 152,189 156,207 "/>
<polygon opacity="0.1" fill="#007F00" points="144,183 140,166 148,172 152,189 "/>
<polygon opacity="0.1" fill="#007F00" points="140,166 135,151 143,158 148,172 "/>
<polygon opacity="0.1" fill="#007F00" points="135,151 131,140 139,146 143,158 "/>
<polygon opacity="0.1" fill="#007F00" points="131,140 126,132 134,138 139,146 "/>
<polygon opacity="0.1" fill="#007F00" points="126,132 122,126 130,132 134,138 "/>
<polygon opacity="0.1" fill="#007F00" points="122,126 118,124 125,129 130,132 "/>
<polygon opacity="0.1" fill="#007F00" points="209,65 205,81 213,89 217,74 "/>
<polygon opacity="0.1" fill="#007F00" points="205,81 201,102 208,109 213,89 "/>
<polygon opacity="0.1" fill="#007F00" points="201,102 196,128 204,133 208,109 "/>
<polygon opacity="0.1" fill="#007F00" points="196,128 192,155 199,159 204,133 "/>
<polygon opacity="0.1" fill="#007F00" points="192,155 187,183 195,185 199,159 "/>
<polygon opacity="0.1" fill="#007F00" points="187,183 183,208 191,208 195,185 "/>
<polygon opacity="0.1" fill="#007F00" points="183,208 178,226 186,226 191,208 "/>
<polygon opacity="0.1" fill="#007F00" points="178,226 174,237 182,237 186,226 "/>
<polygon opacity="0.1" fill="#007F00" points="174,237 169,240 177,240 182,237 "/>
<polygon opacity="0.1" fill="#007F00" points="169,240 165,235 173,235 177,240 "/>
<polygon opacity="0.1" fill="#007F00" points="165,235 161,223 168,224 173,235 "/>
<polygon opacity="0.1" fill="#007F00" points="161,223 156,207 164,209 168,224 "/>
<polygon opacity="0.1" fill="#007F00" points="156,207 152,189 160,194 164,209 "/>
<polygon opacity="0.1" fill="#007F00" points="152,189 148,172 155,177 160,194 "/>
<polygon opacity="0.1" fill="#007F00" points="148,172 143,158 151,164 155,177 "/>
<polygon opacity="0.1" fill="#007F00" points="143,158 139,146 147,152 151,164 "/>
<polygon opacity="0.1" fill="#007F00" points="139,146 134,138 142,145 147,152 "/>
<polygon opacity="0.1" fill="#007F00" points="134,138 130,132 138,140 142,145 "/>
<polygon opacity="0.1" fill="#007F00" points="130,132 125,129 133,136 138,140 "/>
<polygon opacity="0.1" fill="#007F00" points="217,74 213,89 221,101 225,87 "/>
<polygon opacity="0.1" fill="#007F00" points="213,89 208,109 217,118 221,101 "/>
<polygon opacity="0.1" fill="#007F00" points="208,109 204,133 212,139 217,118 "/>
<polygon opacity="0.1" fill="#007F00" points="204,133 199,159 208,161 212,139 "/>
<polygon opacity="0.1" fill="#007F00" points="199,159 195,185 203,183 208,161 "/>
<polygon opacity="0.1" fill="#007F00" points="195,185 191,208 199,203 203,183 "/>
<polygon opacity="0.1" fill="#007F00" points="191,208 186,226 194,220 199,203 "/>
<polygon opacity="0.1" fill="#007F00" points="186,226 182,237 190,229 194,220 "/>
<polygon opacity="0.1" fill="#007F00" points="182,237 177,240 186,232 190,229 "/>
<polygon opacity="0.1" fill="#007F00" points="177,240 173,235 181,229 186,232 "/>
<polygon opacity="0.1" fill="#007F00" points="173,235 168,224 177,220 181,229 "/>
<polygon opacity="0.1" fill="#007F00" points="168,224 164,209 173,208 177,220 "/>
<polygon opacity="0.1" fill="#007F00" points="164,209 160,194 168,194 173,208 "/>
<polygon opacity="0.1" fill="#007F00" points="160,194 155,177 164,181 168,194 "/>
<polygon opacity="0.1" fill="#007F00" points="155,177 151,164 159,170 164,181 "/>
<polygon opacity="0.1" fill="#007F00" points="151,164 147,152 155,160 159,170 "/>
<polygon opacity="0.1" fill="#007F00" points="147,152 142,145 150,153 155,160 "/>
<polygon opacity="0.1" fill="#007F00" points="142,145 138,140 146,149 150,153 "/>
<polygon opacity="0.1" fill="#007F00" points="138,140 133,136 142,145 146,149 "/>
<polygon opacity="0.1" fill="#007F00" points="225,87 221,101 229,116 233,104 "/>
<polygon opacity="0.1" fill="#007F00" points="221,101 217,118 224,129 229,116 "/>
<polygon opacity="0.1" fill="#007F00" points="217,118 212,139 220,144 224,129 "/>
<polygon opacity="0.1" fill="#007F00" points="212,139 208,161 216,161 220,144 "/>
<polygon opacity="0.1" fill="#007F00" points="208,161 203,183 211,178 216,161 "/>
<polygon opacity="0.1" fill="#007F00" points="203,183 199,203 207,194 211,178 "/>
<polygon opacity="0.1" fill="#007F00" points="199,203 194,220 202,206 207,194 "/>
<polygon opacity="0.1" fill="#007F00" points="194,220 190,229 198,215 202,206 "/>
<polygon opacity="0.1" fill="#007F00" points="190,229 186,232 193,218 198,215 "/>
<polygon opacity="0.1" fill="#007F00" points="186,232 181,229 189,216 193,218 "/>
<polygon opacity="0.1" fill="#007F00" points="181,229 177,220 185,210 189,216 "/>
<polygon opacity="0.1" fill="#007F00" points="177,220 173,208 180,202 185,210 "/>
<polygon opacity="0.1" fill="#007F00" points="173,208 168,194 176,193 180,202 "/>
<polygon opacity="0.1" fill="#007F00" points="168,194 164,181 172,184 176,193 "/>
<polygon opacity="0.1" fill="#007F00" points="164,181 159,170 167,176 172,184 "/>
<polygon opacity="0.1" fill="#007F00" points="159,170 155,160 163,169 167,176 "/>
<polygon opacity="0.1" fill="#007F00" points="155,160 150,153 158,164 163,169 "/>
<polygon opacity="0.1" fill="#007F00" points="150,153 146,149 154,160 158,164 "/>
<polygon opacity="0.1" fill="#007F00" points="146,149 142,145 149,157 154,160 "/>
<polygon opacity="0.1" fill="#007F00" points="233,104 229,116 237,133 241,125 "/>
<polygon opacity="0.1" fill="#007F00" points="229,116 224,129 233,141 237,133 "/>
<polygon opacity="0.1" fill="#007F00" points="224,129 220,144 228,151 233,141 "/>
<polygon opacity="0.1" fill="#007F00" points="220,144 216,161 224,161 228,151 "/>
<polygon opacity="0.1" fill="#007F00" points="216,161 211,178 219,172 224,161 "/>
<polygon opacity="0.1" fill="#007F00" points="211,178 207,194 215,181 219,172 "/>
<polygon opacity="0.1" fill="#007F00" points="207,194 202,206 211,190 215,181 "/>
<polygon opacity="0.1" fill="#007F00" points="202,206 198,215 206,196 211,190 "/>
<polygon opacity="0.1" fill="#007F00" points="198,215 193,218 202,199 206,196 "/>
<polygon opacity="0.1" fill="#007F00" points="193,218 189,216 198,200 202,199 "/>
<polygon opacity="0.1" fill="#007F00" points="189,216 185,210 193,199 198,200 "/>
<polygon opacity="0.1" fill="#007F00" points="185,210 180,202 189,195 193,199 "/>
<polygon opacity="0.1" fill="#007F00" points="180,202 176,193 184,191 189,195 "/>
<polygon opacity="0.1" fill="#007F00" points="176,193 172,184 180,187 184,191 "/>
<polygon opacity="0.1" fill="#007F00" points="172,184 167,176 175,183 180,187 "/>
<polygon opacity="0.1" fill="#007F00" points="167,176 163,169 171,180 175,183 "/>
<polygon opacity="0.1" fill="#007F00" points="163,169 158,164 167,177 171,180 "/>
<polygon opacity="0.1" fill="#007F00" points="158,164 154,160 162,175 167,177 "/>
<polygon opacity="0.1" fill="#007F00" points="154,160 149,157 158,171 162,175 "/>
<polygon opacity="0.1" fill="#007F00" points="241,125 237,133 245,153 249,149 "/>
<polygon opacity="0.1" fill="#007F00" points="237,133 233,141 241,156 245,153 "/>
<polygon opacity="0.1" fill="#007F00" points="233,141 228,151 236,159 241,156 "/>
<polygon opacity="0.1" fill="#007F00" points="228,151 224,161 232,161 236,159 "/>
<polygon opacity="0.1" fill="#007F00" points="224,161 219,172 227,164 232,161 "/>
<polygon opacity="0.1" fill="#007F00" points="219,172 215,181 223,168 227,164 "/>
<polygon opacity="0.1" fill="#007F00" points="215,181 211,190 218,172 223,168 "/>
<polygon opacity="0.1" fill="#007F00" points="211,190 206,196 214,176 218,172 "/>
<polygon opacity="0.1" fill="#007F00" points="206,196 202,199 210,180 214,176 "/>
<polygon opacity="0.1" fill="#007F00" points="202,199 198,200 205,183 210,180 "/>
<polygon opacity="0.1" fill="#007F00" points="198,200 193,199 201,186 205,183 "/>
<polygon opacity="0.1" fill="#007F00" points="193,199 189,195 196,188 201,186 "/>
<polygon opacity="0.1" fill="#007F00" points="189,195 184,191 192,190 196,188 "/>
<polygon opacity="0.1" fill="#007F00" points="184,191 180,187 188,191 192,190 "/>
<polygon opacity="0.1" fill="#007F00" points="180,187 175,183 183,193 188,191 "/>
<polygon opacity="0.1" fill="#007F00" points="175,183 171,180 179,194 183,193 "/>
<polygon opacity="0.1" fill="#007F00" points="171,180 167,177 174,194 179,194 "/>
<polygon opacity="0.1" fill="#007F00" points="167,177 162,175 170,192 174,194 "/>
<polygon opacity="0.1" fill="#007F00" points="162,175 158,171 165,189 170,192 "/>
<polygon opacity="0.1" fill="#007F00" points="249,149 245,153 253,175 257,173 "/>
<polygon opacity="0.1" fill="#007F00" points="245,153 241,156 249,172 253,175 "/>
<polygon opacity="0.1" fill="#007F00" points="241,156 236,159 244,169 249,172 "/>
<polygon opacity="0.1" fill="#007F00" points="236,159 232,161 240,163 244,169 "/>
<polygon opacity="0.1" fill="#007F00" points="232,161 227,164 236,159 240,163 "/>
<polygon opacity="0.1" fill="#007F00" points="227,164 223,168 231,156 236,159 "/>
<polygon opacity="0.1" fill="#007F00" points="223,168 218,172 227,155 231,156 "/>
<polygon opacity="0.1" fill="#007F00" points="218,172 214,176 223,157 227,155 "/>
<polygon opacity="0.1" fill="#007F00" points="214,176 210,180 218,161 223,157 "/>
<polygon opacity="0.1" fill="#007F00" points="210,180 205,183 214,167 218,161 "/>
<polygon opacity="0.1" fill="#007F00" points="205,183 201,186 209,174 214,167 "/>
<polygon opacity="0.1" fill="#007F00" points="201,186 196,188 205,182 209,174 "/>
<polygon opacity="0.1" fill="#007F00" points="196,188 192,190 200,190 205,182 "/>
<polygon opacity="0.1" fill="#007F00" points="192,190 188,191 196,198 200,190 "/>
<polygon opacity="0.1" fill="#007F00" points="188,191 183,193 191,205 196,198 "/>
<polygon opacity="0.1" fill="#007F00" points="183,193 179,194 187,209 191,205 "/>
<polygon opacity="0.1" fill="#007F00" points="179,194 174,194 183,212 187,209 "/>
<polygon opacity="0.1" fill="#007F00" points="174,194 170,192 178,211 183,212 "/>
<polygon opacity="0.1" fill="#007F00" points="170,192 165,189 174,208 178,211 "/>
<polygon opacity="0.1" fill="#007F00" points="257,173 253,175 261,195 265,196 "/>
<polygon opacity="0.1" fill="#007F00" points="253,175 249,172 257,189 261,195 "/>
<polygon opacity="0.1" fill="#007F00" points="249,172 244,169 252,179 257,189 "/>
<polygon opacity="0.1" fill="#007F00" points="244,169 240,163 248,167 252,179 "/>
<polygon opacity="0.1" fill="#007F00" points="240,163 236,159 243,155 248,167 "/>
<polygon opacity="0.1" fill="#007F00" points="236,159 231,156 239,147 243,155 "/>
<polygon opacity="0.1" fill="#007F00" points="231,156 227,155 234,142 239,147 "/>
<polygon opacity="0.1" fill="#007F00" points="227,155 223,157 230,141 234,142 "/>
<polygon opacity="0.1" fill="#007F00" points="223,157 218,161 226,145 230,141 "/>
<polygon opacity="0.1" fill="#007F00" points="218,161 214,167 221,154 226,145 "/>
<polygon opacity="0.1" fill="#007F00" points="214,167 209,174 217,164 221,154 "/>
<polygon opacity="0.1" fill="#007F00" points="209,174 205,182 213,178 217,164 "/>
<polygon opacity="0.1" fill="#007F00" points="205,182 200,190 208,192 213,178 "/>
<polygon opacity="0.1" fill="#007F00" points="200,190 196,198 204,206 208,192 "/>
<polygon opacity="0.1" fill="#007F00" points="196,198 191,205 199,218 204,206 "/>
<polygon opacity="0.1" fill="#007F00" points="191,205 187,209 195,227 199,218 "/>
<polygon opacity="0.1" fill="#007F00" points="187,209 183,212 190,232 195,227 "/>
<polygon opacity="0.1" fill="#007F00" points="183,212 178,211 186,232 190,232 "/>
<polygon opacity="0.1" fill="#007F00" points="178,211 174,208 182,229 186,232 "/>
<polygon opacity="0.1" fill="#007F00" points="265,196 261,195 269,213 274,215 "/>
<polygon opacity="0.1" fill="#007F00" points="261,195 257,189 265,203 269,213 "/>
<polygon opacity="0.1" fill="#007F00" points="257,189 252,179 261,189 265,203 "/>
<polygon opacity="0.1" fill="#007F00" points="252,179 248,167 256,172 261,189 "/>
<polygon opacity="0.1" fill="#007F00" points="248,167 243,155 252,155 256,172 "/>
<polygon opacity="0.1" fill="#007F00" points="243,155 239,147 248,142 252,155 "/>
<polygon opacity="0.1" fill="#007F00" points="239,147 234,142 243,133 248,142 "/>
<polygon opacity="0.1" fill="#007F00" points="234,142 230,141 239,131 243,133 "/>
<polygon opacity="0.1" fill="#007F00" points="230,141 226,145 234,135 239,131 "/>
<polygon opacity="0.1" fill="#007F00" points="226,145 221,154 230,145 234,135 "/>
<polygon opacity="0.1" fill="#007F00" points="221,154 217,164 225,160 230,145 "/>
<polygon opacity="0.1" fill="#007F00" points="217,164 213,178 221,177 225,160 "/>
<polygon opacity="0.1" fill="#007F00" points="213,178 208,192 216,197 221,177 "/>
<polygon opacity="0.1" fill="#007F00" points="208,192 204,206 212,215 216,197 "/>
<polygon opacity="0.1" fill="#007F00" points="204,206 199,218 208,231 212,215 "/>
<polygon opacity="0.1" fill="#007F00" points="199,218 195,227 203,243 208,231 "/>
<polygon opacity="0.1" fill="#007F00" points="195,227 190,232 199,251 203,243 "/>
<polygon opacity="0.1" fill="#007F00" points="190,232 186,232 195,252 199,251 "/>
<polygon opacity="0.1" fill="#007F00" points="186,232 182,229 190,248 195,252 "/>
<polygon opacity="0.1" fill="#007F00" points="274,215 269,213 277,227 281,230 "/>
<polygon opacity="0.1" fill="#007F00" points="269,213 265,203 273,215 277,227 "/>
<polygon opacity="0.1" fill="#007F00" points="265,203 261,189 268,198 273,215 "/>
<polygon opacity="0.1" fill="#007F00" points="261,189 256,172 264,178 268,198 "/>
<polygon opacity="0.1" fill="#007F00" points="256,172 252,155 259,158 264,178 "/>
<polygon opacity="0.1" fill="#007F00" points="252,155 248,142 255,141 259,158 "/>
<polygon opacity="0.1" fill="#007F00" points="248,142 243,133 251,130 255,141 "/>
<polygon opacity="0.1" fill="#007F00" points="243,133 239,131 246,126 251,130 "/>
<polygon opacity="0.1" fill="#007F00" points="239,131 234,135 242,130 246,126 "/>
<polygon opacity="0.1" fill="#007F00" points="234,135 230,145 238,142 242,130 "/>
<polygon opacity="0.1" fill="#007F00" points="230,145 225,160 233,159 238,142 "/>
<polygon opacity="0.1" fill="#007F00" points="225,160 221,177 229,179 233,159 "/>
<polygon opacity="0.1" fill="#007F00" points="221,177 216,197 224,202 229,179 "/>
<polygon opacity="0.1" fill="#007F00" points="216,197 212,215 220,225 224,202 "/>
<polygon opacity="0.1" fill="#007F00" points="212,215 208,231 215,244 220,225 "/>
<polygon opacity="0.1" fill="#007F00" points="208,231 203,243 211,259 215,244 "/>
<polygon opacity="0.1" fill="#007F00" points="203,243 199,251 207,268 211,259 "/>
<polygon opacity="0.1" fill="#007F00" points="199,251 195,252 202,269 207,268 "/>
<polygon opacity="0.1" fill="#007F00" points="195,252 190,248 198,265 202,269 "/>
<polygon opacity="0.1" fill="#007F00" points="281,230 277,227 286,235 290,238 "/>
<polygon opacity="0.1" fill="#007F00" points="277,227 273,215 281,223 286,235 "/>
<polygon opacity="0.1" fill="#007F00" points="273,215 268,198 277,205 281,223 "/>
<polygon opacity="0.1" fill="#007F00" points="268,198 264,178 272,184 277,205 "/>
<polygon opacity="0.1" fill="#007F00" points="264,178 259,158 268,162 272,184 "/>
<polygon opacity="0.1" fill="#007F00" points="259,158 255,141 264,143 268,162 "/>
<polygon opacity="0.1" fill="#007F00" points="255,141 251,130 259,131 264,143 "/>
<polygon opacity="0.1" fill="#007F00" points="251,130 246,126 255,127 259,131 "/>
<polygon opacity="0.1" fill="#007F00" points="246,126 242,130 250,131 255,127 "/>
<polygon opacity="0.1" fill="#007F00" points="242,130 238,142 246,142 250,131 "/>
<polygon opacity="0.1" fill="#007F00" points="238,142 233,159 241,161 246,142 "/>
<polygon opacity="0.1" fill="#007F00" points="233,159 229,179 237,184 241,161 "/>
<polygon opacity="0.1" fill="#007F00" points="229,179 224,202 233,208 237,184 "/>
<polygon opacity="0.1" fill="#007F00" points="224,202 220,225 228,233 233,208 "/>
<polygon opacity="0.1" fill="#007F00" points="220,225 215,244 224,254 228,233 "/>
<polygon opacity="0.1" fill="#007F00" points="215,244 211,259 220,270 224,254 "/>
<polygon opacity="0.1" fill="#007F00" points="211,259 207,268 215,281 220,270 "/>
<polygon opacity="0.1" fill="#007F00" points="207,268 202,269 211,283 215,281 "/>
<polygon opacity="0.1" fill="#007F00" points="202,269 198,265 206,278 211,283 "/>
<polygon opacity="0.1" fill="#007F00" points="290,238 286,235 293,237 297,239 "/>
<polygon opacity="0.1" fill="#007F00" points="286,235 281,223 289,226 293,237 "/>
<polygon opacity="0.1" fill="#007F00" points="281,223 277,205 284,209 289,226 "/>
<polygon opacity="0.1" fill="#007F00" points="277,205 272,184 280,188 284,209 "/>
<polygon opacity="0.1" fill="#007F00" points="272,184 268,162 276,167 280,188 "/>
<polygon opacity="0.1" fill="#007F00" points="268,162 264,143 271,148 276,167 "/>
<polygon opacity="0.1" fill="#007F00" points="264,143 259,131 267,136 271,148 "/>
<polygon opacity="0.1" fill="#007F00" points="259,131 255,127 263,131 267,136 "/>
<polygon opacity="0.1" fill="#007F00" points="255,127 250,131 258,135 263,131 "/>
<polygon opacity="0.1" fill="#007F00" points="250,131 246,142 254,147 258,135 "/>
<polygon opacity="0.1" fill="#007F00" points="246,142 241,161 249,164 254,147 "/>
<polygon opacity="0.1" fill="#007F00" points="241,161 237,184 245,188 249,164 "/>
<polygon opacity="0.1" fill="#007F00" points="237,184 233,208 240,213 245,188 "/>
<polygon opacity="0.1" fill="#007F00" points="233,208 228,233 236,238 240,213 "/>
<polygon opacity="0.1" fill="#007F00" points="228,233 224,254 231,260 236,238 "/>
<polygon opacity="0.1" fill="#007F00" points="224,254 220,270 227,277 231,260 "/>
<polygon opacity="0.1" fill="#007F00" points="220,270 215,281 223,287 227,277 "/>
<polygon opacity="0.1" fill="#007F00" points="215,281 211,283 218,289 223,287 "/>
<polygon opacity="0.1" fill="#007F00" points="211,283 206,278 214,284 218,289 "/>
<polygon opacity="0.1" fill="#007F00" points="297,239 293,237 302,234 306,234 "/>
<polygon opacity="0.1" fill="#007F00" points="293,237 289,226 297,224 302,234 "/>
<polygon opacity="0.1" fill="#007F00" points="289,226 284,209 293,210 297,224 "/>
<polygon opacity="0.1" fill="#007F00" points="284,209 280,188 289,191 293,210 "/>
<polygon opacity="0.1" fill="#007F00" points="280,188 276,167 284,172 289,191 "/>
<polygon opacity="0.1" fill="#007F00" points="276,167 271,148 280,155 284,172 "/>
<polygon opacity="0.1" fill="#007F00" points="271,148 267,136 275,143 280,155 "/>
<polygon opacity="0.1" fill="#007F00" points="267,136 263,131 271,139 275,143 "/>
<polygon opacity="0.1" fill="#007F00" points="263,131 258,135 266,142 271,139 "/>
<polygon opacity="0.1" fill="#007F00" points="258,135 254,147 262,152 266,142 "/>
<polygon opacity="0.1" fill="#007F00" points="254,147 249,164 258,170 262,152 "/>
<polygon opacity="0.1" fill="#007F00" points="249,164 245,188 253,192 258,170 "/>
<polygon opacity="0.1" fill="#007F00" points="245,188 240,213 249,216 253,192 "/>
<polygon opacity="0.1" fill="#007F00" points="240,213 236,238 245,240 249,216 "/>
<polygon opacity="0.1" fill="#007F00" points="236,238 231,260 240,262 245,240 "/>
<polygon opacity="0.1" fill="#007F00" points="231,260 227,277 236,278 240,262 "/>
<polygon opacity="0.1" fill="#007F00" points="227,277 223,287 231,287 236,278 "/>
<polygon opacity="0.1" fill="#007F00" points="223,287 218,289 227,289 231,287 "/>
<polygon opacity="0.1" fill="#007F00" points="218,289 214,284 222,284 227,289 "/>
<polygon opacity="0.1" fill="#007F00" points="306,234 302,234 309,225 314,224 "/>
<polygon opacity="0.1" fill="#007F00" points="302,234 297,224 305,219 309,225 "/>
<polygon opacity="0.1" fill="#007F00" points="297,224 293,210 301,207 305,219 "/>
<polygon opacity="0.1" fill="#007F00" points="293,210 289,191 296,192 301,207 "/>
<polygon opacity="0.1" fill="#007F00" points="289,191 284,172 292,176 296,192 "/>
<polygon opacity="0.1" fill="#007F00" points="284,172 280,155 288,162 292,176 "/>
<polygon opacity="0.1" fill="#007F00" points="280,155 275,143 283,151 288,162 "/>
<polygon opacity="0.1" fill="#007F00" points="275,143 271,139 279,147 283,151 "/>
<polygon opacity="0.1" fill="#007F00" points="271,139 266,142 274,149 279,147 "/>
<polygon opacity="0.1" fill="#007F00" points="266,142 262,152 270,158 274,149 "/>
<polygon opacity="0.1" fill="#007F00" points="262,152 258,170 265,174 270,158 "/>
<polygon opacity="0.1" fill="#007F00" points="258,170 253,192 261,193 265,174 "/>
<polygon opacity="0.1" fill="#007F00" points="253,192 249,216 256,215 261,193 "/>
<polygon opacity="0.1" fill="#007F00" points="249,216 245,240 252,237 256,215 "/>
<polygon opacity="0.1" fill="#007F00" points="245,240 240,262 248,257 252,237 "/>
<polygon opacity="0.1" fill="#007F00" points="240,262 236,278 243,272 248,257 "/>
<polygon opacity="0.1" fill="#007F00" points="236,278 231,287 239,281 243,272 "/>
<polygon opacity="0.1" fill="#007F00" points="231,287 227,289 235,282 239,281 "/>
<polygon opacity="0.1" fill="#007F00" points="227,289 222,284 230,277 235,282 "/>
<polygon opacity="0.1" fill="#007F00" points="314,224 309,225 318,213 322,210 "/>
<polygon opacity="0.1" fill="#007F00" points="309,225 305,219 314,211 318,213 "/>
<polygon opacity="0.1" fill="#007F00" points="305,219 301,207 309,203 314,211 "/>
<polygon opacity="0.1" fill="#007F00" points="301,207 296,192 305,192 309,203 "/>
<polygon opacity="0.1" fill="#007F00" points="296,192 292,176 300,179 305,192 "/>
<polygon opacity="0.1" fill="#007F00" points="292,176 288,162 296,168 300,179 "/>
<polygon opacity="0.1" fill="#007F00" points="288,162 283,151 291,160 296,168 "/>
<polygon opacity="0.1" fill="#007F00" points="283,151 279,147 287,155 291,160 "/>
<polygon opacity="0.1" fill="#007F00" points="279,147 274,149 283,157 287,155 "/>
<polygon opacity="0.1" fill="#007F00" points="274,149 270,158 278,164 283,157 "/>
<polygon opacity="0.1" fill="#007F00" points="270,158 265,174 274,177 278,164 "/>
<polygon opacity="0.1" fill="#007F00" points="265,174 261,193 269,193 274,177 "/>
<polygon opacity="0.1" fill="#007F00" points="261,193 256,215 265,212 269,193 "/>
<polygon opacity="0.1" fill="#007F00" points="256,215 252,237 261,230 265,212 "/>
<polygon opacity="0.1" fill="#007F00" points="252,237 248,257 256,247 261,230 "/>
<polygon opacity="0.1" fill="#007F00" points="248,257 243,272 252,260 256,247 "/>
<polygon opacity="0.1" fill="#007F00" points="243,272 239,281 247,268 252,260 "/>
<polygon opacity="0.1" fill="#007F00" points="239,281 235,282 243,270 247,268 "/>
<polygon opacity="0.1" fill="#007F00" points="235,282 230,277 238,265 243,270 "/>
<polygon opacity="0.1" fill="#007F00" points="322,210 318,213 326,200 330,195 "/>
<polygon opacity="0.1" fill="#007F00" points="318,213 314,211 321,201 326,200 "/>
<polygon opacity="0.1" fill="#007F00" points="314,211 309,203 317,196 321,201 "/>
<polygon opacity="0.1" fill="#007F00" points="309,203 305,192 312,189 317,196 "/>
<polygon opacity="0.1" fill="#007F00" points="305,192 300,179 308,181 312,189 "/>
<polygon opacity="0.1" fill="#007F00" points="300,179 296,168 304,172 308,181 "/>
<polygon opacity="0.1" fill="#007F00" points="296,168 291,160 299,165 304,172 "/>
<polygon opacity="0.1" fill="#007F00" points="291,160 287,155 295,162 299,165 "/>
<polygon opacity="0.1" fill="#007F00" points="287,155 283,157 290,162 295,162 "/>
<polygon opacity="0.1" fill="#007F00" points="283,157 278,164 286,168 290,162 "/>
<polygon opacity="0.1" fill="#007F00" points="278,164 274,177 281,177 286,168 "/>
<polygon opacity="0.1" fill="#007F00" points="274,177 269,193 277,190 281,177 "/>
<polygon opacity="0.1" fill="#007F00" points="269,193 265,212 273,205 277,190 "/>
<polygon opacity="0.1" fill="#007F00" points="265,212 261,230 268,220 273,205 "/>
<polygon opacity="0.1" fill="#007F00" points="261,230 256,247 264,235 268,220 "/>
<polygon opacity="0.1" fill="#007F00" points="256,247 252,260 260,246 264,235 "/>
<polygon opacity="0.1" fill="#007F00" points="252,260 247,268 255,252 260,246 "/>
<polygon opacity="0.1" fill="#007F00" points="247,268 243,270 251,253 255,252 "/>
<polygon opacity="0.1" fill="#007F00" points="243,270 238,265 246,249 251,253 "/>
<polygon opacity="0.1" fill="#007F00" points="330,195 326,200 334,187 338,180 "/>
<polygon opacity="0.1" fill="#007F00" points="326,200 321,201 330,189 334,187 "/>
<polygon opacity="0.1" fill="#007F00" points="321,201 317,196 325,189 330,189 "/>
<polygon opacity="0.1" fill="#007F00" points="317,196 312,189 321,185 325,189 "/>
<polygon opacity="0.1" fill="#007F00" points="312,189 308,181 316,180 321,185 "/>
<polygon opacity="0.1" fill="#007F00" points="308,181 304,172 312,175 316,180 "/>
<polygon opacity="0.1" fill="#007F00" points="304,172 299,165 307,170 312,175 "/>
<polygon opacity="0.1" fill="#007F00" points="299,165 295,162 303,167 307,170 "/>
<polygon opacity="0.1" fill="#007F00" points="295,162 290,162 299,167 303,167 "/>
<polygon opacity="0.1" fill="#007F00" points="290,162 286,168 294,170 299,167 "/>
<polygon opacity="0.1" fill="#007F00" points="286,168 281,177 290,176 294,170 "/>
<polygon opacity="0.1" fill="#007F00" points="281,177 277,190 286,185 290,176 "/>
<polygon opacity="0.1" fill="#007F00" points="277,190 273,205 281,197 286,185 "/>
<polygon opacity="0.1" fill="#007F00" points="273,205 268,220 277,209 281,197 "/>
<polygon opacity="0.1" fill="#007F00" points="268,220 264,235 272,219 277,209 "/>
<polygon opacity="0.1" fill="#007F00" points="264,235 260,246 268,228 272,219 "/>
<polygon opacity="0.1" fill="#007F00" points="260,246 255,252 263,233 268,228 "/>
<polygon opacity="0.1" fill="#007F00" points="255,252 251,253 259,234 263,233 "/>
<polygon opacity="0.1" fill="#007F00" points="251,253 246,249 255,231 259,234 "/>
<polygon opacity="0.1" fill="#007F00" points="338,180 334,187 342,174 346,166 "/>
<polygon opacity="0.1" fill="#007F00" points="334,187 330,189 337,178 342,174 "/>
<polygon opacity="0.1" fill="#007F00" points="330,189 325,189 333,181 337,178 "/>
<polygon opacity="0.1" fill="#007F00" points="325,189 321,185 329,181 333,181 "/>
<polygon opacity="0.1" fill="#007F00" points="321,185 316,180 324,178 329,181 "/>
<polygon opacity="0.1" fill="#007F00" points="316,180 312,175 320,175 324,178 "/>
<polygon opacity="0.1" fill="#007F00" points="312,175 307,170 315,172 320,175 "/>
<polygon opacity="0.1" fill="#007F00" points="307,170 303,167 311,169 315,172 "/>
<polygon opacity="0.1" fill="#007F00" points="303,167 299,167 306,169 311,169 "/>
<polygon opacity="0.1" fill="#007F00" points="299,167 294,170 302,170 306,169 "/>
<polygon opacity="0.1" fill="#007F00" points="294,170 290,176 298,174 302,170 "/>
<polygon opacity="0.1" fill="#007F00" points="290,176 286,185 293,180 298,174 "/>
<polygon opacity="0.1" fill="#007F00" points="286,185 281,197 289,188 293,180 "/>
<polygon opacity="0.1" fill="#007F00" points="281,197 277,209 285,196 289,188 "/>
<polygon opacity="0.1" fill="#007F00" points="277,209 272,219 280,204 285,196 "/>
<polygon opacity="0.1" fill="#007F00" points="272,219 268,228 276,210 280,204 "/>
<polygon opacity="0.1" fill="#007F00" points="268,228 263,233 271,214 276,210 "/>
<polygon opacity="0.1" fill="#007F00" points="263,233 259,234 267,215 271,214 "/>
<polygon opacity="0.1" fill="#007F00" points="259,234 255,231 262,213 267,215 "/>
<polygon opacity="0.1" fill="#007F00" points="346,166 342,174 350,162 354,153 "/>
<polygon opacity="0.1" fill="#007F00" points="342,174 337,178 346,168 350,162 "/>
<polygon opacity="0.1" fill="#007F00" points="337,178 333,181 341,173 346,168 "/>
<polygon opacity="0.1" fill="#007F00" points="333,181 329,181 337,174 341,173 "/>
<polygon opacity="0.1" fill="#007F00" points="329,181 324,178 332,174 337,174 "/>
<polygon opacity="0.1" fill="#007F00" points="324,178 320,175 328,174 332,174 "/>
<polygon opacity="0.1" fill="#007F00" points="320,175 315,172 324,172 328,174 "/>
<polygon opacity="0.1" fill="#007F00" points="315,172 311,169 319,169 324,172 "/>
<polygon opacity="0.1" fill="#007F00" points="311,169 306,169 315,168 319,169 "/>
<polygon opacity="0.1" fill="#007F00" points="306,169 302,170 311,168 315,168 "/>
<polygon opacity="0.1" fill="#007F00" points="302,170 298,174 306,170 311,168 "/>
<polygon opacity="0.1" fill="#007F00" points="298,174 293,180 302,173 306,170 "/>
<polygon opacity="0.1" fill="#007F00" points="293,180 289,188 297,178 302,173 "/>
<polygon opacity="0.1" fill="#007F00" points="289,188 285,196 293,184 297,178 "/>
<polygon opacity="0.1" fill="#007F00" points="285,196 280,204 288,189 293,184 "/>
<polygon opacity="0.1" fill="#007F00" points="280,204 276,210 284,194 288,189 "/>
<polygon opacity="0.1" fill="#007F00" points="276,210 271,214 280,197 284,194 "/>
<polygon opacity="0.1" fill="#007F00" points="271,214 267,215 275,198 280,197 "/>
<polygon opacity="0.1" fill="#007F00" points="267,215 262,213 271,196 275,198 "/>
<polyline fill="none" opacity="0.5" stroke="#007F00" stroke-width="1" points="201,59 197,75 193,97 188,122 184,150 179,177 175,201 171,220 166,230 162,233 158,227 153,215 149,200 144,183 140,166 135,151 131,140 126,132 122,126 118,124 "/>
<polyline fill="none" opacity="0.5" stroke="#007F00" stroke-width="1" points="209,65 205,81 201,102 196,128 192,155 187,183 183,208 178,226 174,237 169,240 165,235 161,223 156,207 152,189 148,172 143,158 139,146 134,138 130,132 125,129 "/>
<polyline fill="none" opacity="0.5" stroke="#007F00" stroke-width="1" points="217,74 213,89 208,109 204,133 199,159 195,185 191,208 186,226 182,237 177,240 173,235 168,224 164,209 160,194 155,177 151,164 147,152 142,145 138,140 133,136 "/>
<polyline fill="none" opacity="0.5" stroke="#007F00" stroke-width="1" points="225,87 221,101 217,118 212,139 208,161 203,183 199,203 194,220 190,229 186,232 181,229 177,220 173,208 168,194 164,181 159,170 155,160 150,153 146,149 142,145 "/>
<polyline fill="none" opacity="0.5" stroke="#007F00" stroke-width="1" points="233,104 229,116 224,129 220,144 216,161 211,178 207,194 202,206 198,215 193,218 189,216 185,210 180,202 176,193 172,184 167,176 163,169 158,164 154,160 149,157 "/>
<polyline fill="none" opacity="0.5" stroke="#007F00" stroke-width="1" points="241,125 237,133 233,141 228,151 224,161 219,172 215,181 211,190 206,196 202,199 198,200 193,199 189,195 184,191 180,187 175,183 171,180 167,177 162,175 158,171 "/>
<polyline fill="none" opacity="0.5" stroke="#007F00" stroke-width="1" points="249,149 245,153 241,156 236,159 232,161 227,164 223,168 218,172 214,176 210,180 205,183 201,186 196,188 192,190 188,191 183,193 179,194 174,194 170,192 165,189 "/>
<polyline fill="none" opacity="0.5" stroke="#007F00" stroke-width="1" points="257,173 253,175 249,172 244,169 240,163 236,159 231,156 227,155 223,157 218,161 214,167 209,174 205,182 200,190 196,198 191,205 187,209 183,212 178,211 174,208 "/>
<polyline fill="none" opacity="0.5" stroke="#007F00" stroke-width="1" points="265,196 261,195 257,189 252,179 248,167 243,155 239,147 234,142 230,141 226,145 221,154 217,164 213,178 208,192 204,206 199,218 195,227 190,232 186,232 182,229 "/>
<polyline fill="none" opacity="0.5" stroke="#007F00" stroke-width="1" points="274,215 269,213 265,203 261,189 256,172 252,155 248,142 243,133 239,131 234,135 230,145 225,160 221,177 216,197 212,215 208,231 203,243 199,251 195,252 190,248 "/>
<polyline fill="none" opacity="0.5" stroke="#007F00" stroke-width="1" points="281,230 277,227 273,215 268,198 264,178 259,158 255,141 251,130 246,126 242,130 238,142 233,159 229,179 224,202 220,225 215,244 211,259 207,268 202,269 198,265 "/>
<polyline fill="none" opacity="0.5" stroke="#007F00" stroke-width="1" points="290,238 286,235 281,223 277,205 272,184 268,162 264,143 259,131 255,127 250,131 246,142 241,161 237,184 233,208 228,233 224,254 220,270 215,281 211,283 206,278 "/>
<polyline fill="none" opacity="0.5" stroke="#007F00" stroke-width="1" points="297,239 293,237 289,226 284,209 280,188 276,167 271,148 267,136 263,131 258,135 254,147 249,164 245,188 240,213 236,238 231,260 227,277 223,287 218,289 214,284 "/>
<polyline fill="none" opacity="0.5" stroke="#007F00" stroke-width="1" points="306,234 302,234 297,224 293,210 289,191 284,172 280,155 275,143 271,139 266,142 262,152 258,170 253,192 249,216 245,240 240,262 236,278 231,287 227,289 222,284 "/>
<polyline fill="none" opacity="0.5" stroke="#007F00" stroke-width="1" points="314,224 309,225 305,219 301,207 296,192 292,176 288,162 283,151 279,147 274,149 270,158 265,174 261,193 256,215 252,237 248,257 243,272 239,281 235,282 230,277 "/>
<polyline fill="none" opacity="0.5" stroke="#007F00" stroke-width="1" points="322,210 318,213 314,211 309,203 305,192 300,179 296,168 291,160 287,155 283,157 278,164 274,177 269,193 265,212 261,230 256,247 252,260 247,268 243,270 238,265 "/>
<polyline fill="none" opacity="0.5" stroke="#007F00" stroke-width="1" points="330,195 326,200 321,201 317,196 312,189 308,181 304,172 299,165 295,162 290,162 286,168 281,177 277,190 273,205 268,220 264,235 260,246 255,252 251,253 246,249 "/>
<polyline fill="none" opacity="0.5" stroke="#007F00" stroke-width="1" points="338,180 334,187 330,189 325,189 321,185 316,180 312,175 307,170 303,167 299,167 294,170 290,176 286,185 281,197 277,209 272,219 268,228 263,233 259,234 255,231 "/>
<polyline fill="none" opacity="0.5" stroke="#007F00" stroke-width="1" points="346,166 342,174 337,178 333,181 329,181 324,178 320,175 315,172 311,169 306,169 302,170 298,174 293,180 289,188 285,196 280,204 276,210 271,214 267,215 262,213 "/>
<polyline fill="none" opacity="0.5" stroke="#007F00" stroke-width="1" points="354,153 350,162 346,168 341,173 337,174 332,174 328,174 324,172 319,169 315,168 311,168 306,170 302,173 297,178 293,184 288,189 284,194 280,197 275,198 271,196 "/>
<polyline fill="none" opacity="0.5" stroke="#007F00" stroke-width="1" points="201,59 209,65 217,74 225,87 233,104 241,125 249,149 257,173 265,196 274,215 281,230 290,238 297,239 306,234 314,224 322,210 330,195 338,180 346,166 354,153 "/>
<polyline fill="none" opacity="0.5" stroke="#007F00" stroke-width="1" points="197,75 205,81 213,89 221,101 229,116 237,133 245,153 253,175 261,195 269,213 277,227 286,235 293,237 302,234 309,225 318,213 326,200 334,187 342,174 350,162 "/>
<polyline fill="none" opacity="0.5" stroke="#007F00" stroke-width="1" points="193,97 201,102 208,109 217,118 224,129 233,141 241,156 249,172 257,189 265,203 273,215 281,223 289,226 297,224 305,219 314,211 321,201 330,189 337,178 346,168 "/>
<polyline fill="none" opacity="0.5" stroke="#007F00" stroke-width="1" points="188,122 196,128 204,133 212,139 220,144 228,151 236,159 244,169 252,179 261,189 268,198 277,205 284,209 293,210 301,207 309,203 317,196 325,189 333,181 341,173 "/>
<polyline fill="none" opacity="0.5" stroke="#007F00" stroke-width="1" points="184,150 192,155 199,159 208,161 216,161 224,161 232,161 240,163 248,167 256,172 264,178 272,184 280,188 289,191 296,192 305,192 312,189 321,185 329,181 337,174 "/>
<polyline fill="none" opacity="0.5" stroke="#007F00" stroke-width="1" points="179,177 187,183 195,185 203,183 211,178 219,172 227,164 236,159 243,155 252,155 259,158 268,162 276,167 284,172 292,176 300,179 308,181 316,180 324,178 332,174 "/>
<polyline fill="none" opacity="0.5" stroke="#007F00" stroke-width="1" points="175,201 183,208 191,208 199,203 207,194 215,181 223,168 231,156 239,147 248,142 255,141 264,143 271,148 280,155 288,162 296,168 304,172 312,175 320,175 328,174 "/>
<polyline fill="none" opacity="0.5" stroke="#007F00" stroke-width="1" points="171,220 178,226 186,226 194,220 202,206 211,190 218,172 227,155 234,142 243,133 251,130 259,131 267,136 275,143 283,151 291,160 299,165 307,170 315,172 324,172 "/>
<polyline fill="none" opacity="0.5" stroke="#007F00" stroke-width="1" points="166,230 174,237 182,237 190,229 198,215 206,196 214,176 223,157 230,141 239,131 246,126 255,127 263,131 271,139 279,147 287,155 295,162 303,167 311,169 319,169 "/>
<polyline fill="none" opacity="0.5" stroke="#007F00" stroke-width="1" points="162,233 169,240 177,240 186,232 193,218 202,199 210,180 218,161 226,145 234,135 242,130 250,131 258,135 266,142 274,149 283,157 290,162 299,167 306,169 315,168 "/>
<polyline fill="none" opacity="0.5" stroke="#007F00" stroke-width="1" points="158,227 165,235 173,235 181,229 189,216 198,200 205,183 214,167 221,154 230,145 238,142 246,142 254,147 262,152 270,158 278,164 286,168 294,170 302,170 311,168 "/>
<polyline fill="none" opacity="0.5" stroke="#007F00" stroke-width="1" points="153,215 161,223 168,224 177,220 185,210 193,199 201,186 209,174 217,164 225,160 233,159 241,161 249,164 258,170 265,174 274,177 281,177 290,176 298,174 306,170 "/>
<polyline fill="none" opacity="0.5" stroke="#007F00" stroke-width="1" points="149,200 156,207 164,209 173,208 180,202 189,195 196,188 205,182 213,178 221,177 229,179 237,184 245,188 253,192 261,193 269,193 277,190 286,185 293,180 302,173 "/>
<polyline fill="none" opacity="0.5" stroke="#007F00" stroke-width="1" points="144,183 152,189 160,194 168,194 176,193 184,191 192,190 200,190 208,192 216,197 224,202 233,208 240,213 249,216 256,215 265,212 273,205 281,197 289,188 297,178 "/>
<polyline fill="none" opacity="0.5" stroke="#007F00" stroke-width="1" points="140,166 148,172 155,177 164,181 172,184 180,187 188,191 196,198 204,206 212,215 220,225 228,233 236,238 245,240 252,237 261,230 268,220 277,209 285,196 293,184 "/>
<polyline fill="none" opacity="0.5" stroke="#007F00" stroke-width="1" points="135,151 143,158 151,164 159,170 167,176 175,183 183,193 191,205 199,218 208,231 215,244 224,254 231,260 240,262 248,257 256,247 264,235 272,219 280,204 288,189 "/>
<polyline fill="none" opacity="0.5" stroke="#007F00" stroke-width="1" points="131,140 139,146 147,152 155,160 163,169 171,180 179,194 187,209 195,227 203,243 211,259 220,270 227,277 236,278 243,272 252,260 260,246 268,228 276,210 284,194 "/>
<polyline fill="none" opacity="0.5" stroke="#007F00" stroke-width="1" points="126,132 134,138 142,145 150,153 158,164 167,177 174,194 183,212 190,232 199,251 207,268 215,281 223,287 231,287 239,281 247,268 255,252 263,233 271,214 280,197 "/>
<polyline fill="none" opacity="0.5" stroke="#007F00" stroke-width="1" points="122,126 130,132 138,140 146,149 154,160 162,175 170,192 178,211 186,232 195,252 202,269 211,283 218,289 227,289 235,282 243,270 251,253 259,234 267,215 275,198 "/>
<polyline fill="none" opacity="0.5" stroke="#007F00" stroke-width="1" points="118,124 125,129 133,136 142,145 149,157 158,171 165,189 174,208 182,229 190,248 198,265 206,278 214,284 222,284 230,277 238,265 246,249 255,231 262,213 271,196 "/>
<circle cx="231" cy="241" r="5" opacity="0.8" fill="#FF0000" stroke="none" stroke-width="1"/>
<circle cx="182" cy="242" r="5" opacity="0.8" fill="#FF0000" stroke="none" stroke-width="1"/>
<circle cx="229" cy="268" r="2" opacity="0.8" fill="#FF0000" stroke="none" stroke-width="1"/>
<circle cx="221" cy="152" r="5" opacity="0.8" fill="#FF0000" stroke="none" stroke-width="1"/>
<circle cx="255" cy="248" r="2" opacity="0.8" fill="#FF0000" stroke="none" stroke-width="1"/>
<circle cx="213" cy="96" r="5" opacity="0.8" fill="#FF0000" stroke="none" stroke-width="1"/>
<circle cx="163" cy="193" r="5" opacity="0.8" fill="#FF0000" stroke="none" stroke-width="1"/>
<circle cx="253" cy="146" r="5" opacity="0.8" fill="#FF0000" stroke="none" stroke-width="1"/>
<circle cx="293" cy="196" r="2" opacity="0.8" fill="#FF0000" stroke="none" stroke-width="1"/>
<circle cx="280" cy="236" r="5" opacity="0.8" fill="#FF0000" stroke="none" stroke-width="1"/>
<circle cx="208" cy="182" r="2" opacity="0.8" fill="#FF0000" stroke="none" stroke-width="1"/>
<circle cx="198" cy="187" r="2" opacity="0.8" fill="#FF0000" stroke="none" stroke-width="1"/>
<circle cx="327" cy="199" r="5" opacity="0.8" fill="#FF0000" stroke="none" stroke-width="1"/>
<circle cx="223" cy="289" r="5" opacity="0.8" fill="#FF0000" stroke="none" stroke-width="1"/>
<circle cx="278" cy="198" r="2" opacity="0.8" fill="#FF0000" stroke="none" stroke-width="1"/>
<circle cx="198" cy="196" r="2" opacity="0.8" fill="#FF0000" stroke="none" stroke-width="1"/>
<circle cx="305" cy="205" r="2" opacity="0.8" fill="#FF0000" stroke="none" stroke-width="1"/>
<circle cx="268" cy="213" r="2" opacity="0.8" fill="#FF0000" stroke="none" stroke-width="1"/>
<circle cx="324" cy="188" r="2" opacity="0.8" fill="#FF0000" stroke="none" stroke-width="1"/>
<circle cx="203" cy="205" r="2" opacity="0.8" fill="#FF0000" stroke="none" stroke-width="1"/>
</svg>
