<?xml version="1.0" encoding="utf-8" standalone="no"?>
<!DOCTYPE svg PUBLIC "-//W3C//DTD SVG 1.1//EN"
  "http://www.w3.org/Graphics/SVG/1.1/DTD/svg11.dtd">
<!-- Created with matplotlib (https://matplotlib.org/) -->
<svg height="345.6pt" version="1.1" viewBox="0 0 460.8 345.6" width="460.8pt" xmlns="http://www.w3.org/2000/svg" xmlns:xlink="http://www.w3.org/1999/xlink">
 <defs>
  <style type="text/css">
*{stroke-linecap:butt;stroke-linejoin:round;}
  </style>
 </defs>
 <g id="figure_1">
  <g id="patch_1">
   <path d="M 0 345.6 
L 460.8 345.6 
L 460.8 0 
L 0 0 
z
" style="fill:#ffffff;"/>
  </g>
  <g id="axes_1">
   <g id="patch_2">
    <path d="M 57.6 307.584 
L 414.72 307.584 
L 414.72 41.472 
L 57.6 41.472 
z
" style="fill:#ffffff;"/>
   </g>
   <g id="PathCollection_1">
    <path clip-path="url(#p0b0298b376)" d="M 393.199224 57.64441 
C 393.49573 57.64441 393.780132 57.526607 393.989794 57.316946 
C 394.199455 57.107284 394.317258 56.822882 394.317258 56.526376 
C 394.317258 56.22987 394.199455 55.945468 393.989794 55.735807 
C 393.780132 55.526145 393.49573 55.408342 393.199224 55.408342 
C 392.902718 55.408342 392.618316 55.526145 392.408655 55.735807 
C 392.198993 55.945468 392.08119 56.22987 392.08119 56.526376 
C 392.08119 56.822882 392.198993 57.107284 392.408655 57.316946 
C 392.618316 57.526607 392.902718 57.64441 393.199224 57.64441 
z
" style="fill:#0000ff;stroke:#0000ff;"/>
    <path clip-path="url(#p0b0298b376)" d="M 154.883871 46.93123 
C 155.180377 46.93123 155.464779 46.813427 155.67444 46.603766 
C 155.884102 46.394104 156.001905 46.109702 156.001905 45.813196 
C 156.001905 45.51669 155.884102 45.232288 155.67444 45.022627 
C 155.464779 44.812966 155.180377 44.695162 154.883871 44.695162 
C 154.587365 44.695162 154.302963 44.812966 154.093302 45.022627 
C 153.88364 45.232288 153.765837 45.51669 153.765837 45.813196 
C 153.765837 46.109702 153.88364 46.394104 154.093302 46.603766 
C 154.302963 46.813427 154.587365 46.93123 154.883871 46.93123 
z
" style="fill:#0000ff;stroke:#0000ff;"/>
    <path clip-path="url(#p0b0298b376)" d="M 253.685296 295.599007 
C 254.622931 295.599007 255.522289 295.226481 256.185296 294.563473 
C 256.848304 293.900465 257.22083 293.001107 257.22083 292.063473 
C 257.22083 291.125838 256.848304 290.226481 256.185296 289.563473 
C 255.522289 288.900465 254.622931 288.527939 253.685296 288.527939 
C 252.747662 288.527939 251.848304 288.900465 251.185296 289.563473 
C 250.522289 290.226481 250.149762 291.125838 250.149762 292.063473 
C 250.149762 293.001107 250.522289 293.900465 251.185296 294.563473 
C 251.848304 295.226481 252.747662 295.599007 253.685296 295.599007 
z
" style="fill:#0000ff;stroke:#0000ff;"/>
    <path clip-path="url(#p0b0298b376)" d="M 384.177849 131.81211 
C 385.115484 131.81211 386.014841 131.439584 386.677849 130.776576 
C 387.340857 130.113569 387.713383 129.214211 387.713383 128.276576 
C 387.713383 127.338942 387.340857 126.439584 386.677849 125.776576 
C 386.014841 125.113569 385.115484 124.741043 384.177849 124.741043 
C 383.240215 124.741043 382.340857 125.113569 381.677849 125.776576 
C 381.014841 126.439584 380.642315 127.338942 380.642315 128.276576 
C 380.642315 129.214211 381.014841 130.113569 381.677849 130.776576 
C 382.340857 131.439584 383.240215 131.81211 384.177849 131.81211 
z
" style="fill:#0000ff;stroke:#0000ff;"/>
    <path clip-path="url(#p0b0298b376)" d="M 218.186715 71.16866 
C 219.124349 71.16866 220.023707 70.796134 220.686715 70.133126 
C 221.349723 69.470118 221.722249 68.570761 221.722249 67.633126 
C 221.722249 66.695491 221.349723 65.796134 220.686715 65.133126 
C 220.023707 64.470118 219.124349 64.097592 218.186715 64.097592 
C 217.24908 64.097592 216.349723 64.470118 215.686715 65.133126 
C 215.023707 65.796134 214.651181 66.695491 214.651181 67.633126 
C 214.651181 68.570761 215.023707 69.470118 215.686715 70.133126 
C 216.349723 70.796134 217.24908 71.16866 218.186715 71.16866 
z
" style="fill:#0000ff;stroke:#0000ff;"/>
    <path clip-path="url(#p0b0298b376)" d="M 392.756467 207.303628 
C 393.052973 207.303628 393.337375 207.185825 393.547036 206.976163 
C 393.756698 206.766502 393.874501 206.4821 393.874501 206.185594 
C 393.874501 205.889088 393.756698 205.604686 393.547036 205.395025 
C 393.337375 205.185363 393.052973 205.06756 392.756467 205.06756 
C 392.459961 205.06756 392.175559 205.185363 391.965897 205.395025 
C 391.756236 205.604686 391.638433 205.889088 391.638433 206.185594 
C 391.638433 206.4821 391.756236 206.766502 391.965897 206.976163 
C 392.175559 207.185825 392.459961 207.303628 392.756467 207.303628 
z
" style="fill:#0000ff;stroke:#0000ff;"/>
    <path clip-path="url(#p0b0298b376)" d="M 107.254079 293.080826 
C 107.550585 293.080826 107.834986 292.963023 108.044648 292.753361 
C 108.254309 292.5437 108.372113 292.259298 108.372113 291.962792 
C 108.372113 291.666286 108.254309 291.381884 108.044648 291.172222 
C 107.834986 290.962561 107.550585 290.844758 107.254079 290.844758 
C 106.957572 290.844758 106.673171 290.962561 106.463509 291.172222 
C 106.253848 291.381884 106.136045 291.666286 106.136045 291.962792 
C 106.136045 292.259298 106.253848 292.5437 106.463509 292.753361 
C 106.673171 292.963023 106.957572 293.080826 107.254079 293.080826 
z
" style="fill:#0000ff;stroke:#0000ff;"/>
    <path clip-path="url(#p0b0298b376)" d="M 239.935322 282.865244 
C 240.872957 282.865244 241.772314 282.492718 242.435322 281.82971 
C 243.09833 281.166702 243.470856 280.267345 243.470856 279.32971 
C 243.470856 278.392075 243.09833 277.492718 242.435322 276.82971 
C 241.772314 276.166702 240.872957 275.794176 239.935322 275.794176 
C 238.997687 275.794176 238.09833 276.166702 237.435322 276.82971 
C 236.772314 277.492718 236.399788 278.392075 236.399788 279.32971 
C 236.399788 280.267345 236.772314 281.166702 237.435322 281.82971 
C 238.09833 282.492718 238.997687 282.865244 239.935322 282.865244 
z
" style="fill:#ff0000;stroke:#ff0000;"/>
    <path clip-path="url(#p0b0298b376)" d="M 291.745697 149.743488 
C 292.042203 149.743488 292.326605 149.625685 292.536266 149.416024 
C 292.745928 149.206362 292.863731 148.921961 292.863731 148.625454 
C 292.863731 148.328948 292.745928 148.044547 292.536266 147.834885 
C 292.326605 147.625224 292.042203 147.50742 291.745697 147.50742 
C 291.449191 147.50742 291.164789 147.625224 290.955127 147.834885 
C 290.745466 148.044547 290.627663 148.328948 290.627663 148.625454 
C 290.627663 148.921961 290.745466 149.206362 290.955127 149.416024 
C 291.164789 149.625685 291.449191 149.743488 291.745697 149.743488 
z
" style="fill:#0000ff;stroke:#0000ff;"/>
    <path clip-path="url(#p0b0298b376)" d="M 377.430292 84.201941 
C 377.726798 84.201941 378.0112 84.084138 378.220861 83.874476 
C 378.430523 83.664815 378.548326 83.380413 378.548326 83.083907 
C 378.548326 82.787401 378.430523 82.502999 378.220861 82.293337 
C 378.0112 82.083676 377.726798 81.965873 377.430292 81.965873 
C 377.133786 81.965873 376.849384 82.083676 376.639723 82.293337 
C 376.430061 82.502999 376.312258 82.787401 376.312258 83.083907 
C 376.312258 83.380413 376.430061 83.664815 376.639723 83.874476 
C 376.849384 84.084138 377.133786 84.201941 377.430292 84.201941 
z
" style="fill:#0000ff;stroke:#0000ff;"/>
    <path clip-path="url(#p0b0298b376)" d="M 239.992012 267.818048 
C 240.288518 267.818048 240.57292 267.700245 240.782581 267.490584 
C 240.992242 267.280922 241.110046 266.996521 241.110046 266.700014 
C 241.110046 266.403508 240.992242 266.119107 240.782581 265.909445 
C 240.57292 265.699784 240.288518 265.581981 239.992012 265.581981 
C 239.695505 265.581981 239.411104 265.699784 239.201442 265.909445 
C 238.991781 266.119107 238.873978 266.403508 238.873978 266.700014 
C 238.873978 266.996521 238.991781 267.280922 239.201442 267.490584 
C 239.411104 267.700245 239.695505 267.818048 239.992012 267.818048 
z
" style="fill:#ff0000;stroke:#ff0000;"/>
    <path clip-path="url(#p0b0298b376)" d="M 206.678238 101.969038 
C 207.615873 101.969038 208.51523 101.596511 209.178238 100.933504 
C 209.841246 100.270496 210.213772 99.371138 210.213772 98.433504 
C 210.213772 97.495869 209.841246 96.596511 209.178238 95.933504 
C 208.51523 95.270496 207.615873 94.89797 206.678238 94.89797 
C 205.740604 94.89797 204.841246 95.270496 204.178238 95.933504 
C 203.51523 96.596511 203.142704 97.495869 203.142704 98.433504 
C 203.142704 99.371138 203.51523 100.270496 204.178238 100.933504 
C 204.841246 101.596511 205.740604 101.969038 206.678238 101.969038 
z
" style="fill:#ff0000;stroke:#ff0000;"/>
    <path clip-path="url(#p0b0298b376)" d="M 237.574808 179.870299 
C 237.871314 179.870299 238.155716 179.752496 238.365377 179.542835 
C 238.575039 179.333173 238.692842 179.048771 238.692842 178.752265 
C 238.692842 178.455759 238.575039 178.171357 238.365377 177.961696 
C 238.155716 177.752034 237.871314 177.634231 237.574808 177.634231 
C 237.278302 177.634231 236.9939 177.752034 236.784238 177.961696 
C 236.574577 178.171357 236.456774 178.455759 236.456774 178.752265 
C 236.456774 179.048771 236.574577 179.333173 236.784238 179.542835 
C 236.9939 179.752496 237.278302 179.870299 237.574808 179.870299 
z
" style="fill:#0000ff;stroke:#0000ff;"/>
    <path clip-path="url(#p0b0298b376)" d="M 213.113605 286.321812 
C 213.410111 286.321812 213.694513 286.204009 213.904174 285.994348 
C 214.113836 285.784686 214.231639 285.500285 214.231639 285.203778 
C 214.231639 284.907272 214.113836 284.62287 213.904174 284.413209 
C 213.694513 284.203548 213.410111 284.085744 213.113605 284.085744 
C 212.817099 284.085744 212.532697 284.203548 212.323035 284.413209 
C 212.113374 284.62287 211.995571 284.907272 211.995571 285.203778 
C 211.995571 285.500285 212.113374 285.784686 212.323035 285.994348 
C 212.532697 286.204009 212.817099 286.321812 213.113605 286.321812 
z
" style="fill:#0000ff;stroke:#0000ff;"/>
    <path clip-path="url(#p0b0298b376)" d="M 324.212066 79.070384 
C 325.1497 79.070384 326.049058 78.697858 326.712066 78.03485 
C 327.375073 77.371842 327.7476 76.472485 327.7476 75.53485 
C 327.7476 74.597216 327.375073 73.697858 326.712066 73.03485 
C 326.049058 72.371842 325.1497 71.999316 324.212066 71.999316 
C 323.274431 71.999316 322.375073 72.371842 321.712066 73.03485 
C 321.049058 73.697858 320.676532 74.597216 320.676532 75.53485 
C 320.676532 76.472485 321.049058 77.371842 321.712066 78.03485 
C 322.375073 78.697858 323.274431 79.070384 324.212066 79.070384 
z
" style="fill:#0000ff;stroke:#0000ff;"/>
    <path clip-path="url(#p0b0298b376)" d="M 248.315436 191.709068 
C 248.611942 191.709068 248.896344 191.591265 249.106005 191.381604 
C 249.315667 191.171942 249.43347 190.88754 249.43347 190.591034 
C 249.43347 190.294528 249.315667 190.010126 249.106005 189.800465 
C 248.896344 189.590803 248.611942 189.473 248.315436 189.473 
C 248.01893 189.473 247.734528 189.590803 247.524866 189.800465 
C 247.315205 190.010126 247.197402 190.294528 247.197402 190.591034 
C 247.197402 190.88754 247.315205 191.171942 247.524866 191.381604 
C 247.734528 191.591265 248.01893 191.709068 248.315436 191.709068 
z
" style="fill:#0000ff;stroke:#0000ff;"/>
    <path clip-path="url(#p0b0298b376)" d="M 389.982558 197.671145 
C 390.920192 197.671145 391.81955 197.298619 392.482558 196.635611 
C 393.145566 195.972603 393.518092 195.073245 393.518092 194.135611 
C 393.518092 193.197976 393.145566 192.298619 392.482558 191.635611 
C 391.81955 190.972603 390.920192 190.600077 389.982558 190.600077 
C 389.044923 190.600077 388.145566 190.972603 387.482558 191.635611 
C 386.81955 192.298619 386.447024 193.197976 386.447024 194.135611 
C 386.447024 195.073245 386.81955 195.972603 387.482558 196.635611 
C 388.145566 197.298619 389.044923 197.671145 389.982558 197.671145 
z
" style="fill:#0000ff;stroke:#0000ff;"/>
    <path clip-path="url(#p0b0298b376)" d="M 121.570048 130.307318 
C 121.866554 130.307318 122.150956 130.189514 122.360617 129.979853 
C 122.570279 129.770192 122.688082 129.48579 122.688082 129.189284 
C 122.688082 128.892777 122.570279 128.608376 122.360617 128.398714 
C 122.150956 128.189053 121.866554 128.07125 121.570048 128.07125 
C 121.273542 128.07125 120.98914 128.189053 120.779478 128.398714 
C 120.569817 128.608376 120.452014 128.892777 120.452014 129.189284 
C 120.452014 129.48579 120.569817 129.770192 120.779478 129.979853 
C 120.98914 130.189514 121.273542 130.307318 121.570048 130.307318 
z
" style="fill:#ff0000;stroke:#ff0000;"/>
    <path clip-path="url(#p0b0298b376)" d="M 336.811571 284.545003 
C 337.749205 284.545003 338.648563 284.172477 339.311571 283.509469 
C 339.974578 282.846462 340.347105 281.947104 340.347105 281.009469 
C 340.347105 280.071835 339.974578 279.172477 339.311571 278.509469 
C 338.648563 277.846462 337.749205 277.473935 336.811571 277.473935 
C 335.873936 277.473935 334.974578 277.846462 334.311571 278.509469 
C 333.648563 279.172477 333.276037 280.071835 333.276037 281.009469 
C 333.276037 281.947104 333.648563 282.846462 334.311571 283.509469 
C 334.974578 284.172477 335.873936 284.545003 336.811571 284.545003 
z
" style="fill:#0000ff;stroke:#0000ff;"/>
    <path clip-path="url(#p0b0298b376)" d="M 345.482207 68.54083 
C 345.778714 68.54083 346.063115 68.423027 346.272777 68.213366 
C 346.482438 68.003704 346.600241 67.719302 346.600241 67.422796 
C 346.600241 67.12629 346.482438 66.841888 346.272777 66.632227 
C 346.063115 66.422565 345.778714 66.304762 345.482207 66.304762 
C 345.185701 66.304762 344.901299 66.422565 344.691638 66.632227 
C 344.481977 66.841888 344.364173 67.12629 344.364173 67.422796 
C 344.364173 67.719302 344.481977 68.003704 344.691638 68.213366 
C 344.901299 68.423027 345.185701 68.54083 345.482207 68.54083 
z
" style="fill:#0000ff;stroke:#0000ff;"/>
    <path clip-path="url(#p0b0298b376)" d="M 151.988054 125.378139 
C 152.28456 125.378139 152.568962 125.260336 152.778624 125.050675 
C 152.988285 124.841013 153.106088 124.556611 153.106088 124.260105 
C 153.106088 123.963599 152.988285 123.679197 152.778624 123.469536 
C 152.568962 123.259874 152.28456 123.142071 151.988054 123.142071 
C 151.691548 123.142071 151.407146 123.259874 151.197485 123.469536 
C 150.987823 123.679197 150.87002 123.963599 150.87002 124.260105 
C 150.87002 124.556611 150.987823 124.841013 151.197485 125.050675 
C 151.407146 125.260336 151.691548 125.378139 151.988054 125.378139 
z
" style="fill:#ff0000;stroke:#ff0000;"/>
    <path clip-path="url(#p0b0298b376)" d="M 89.864771 279.049617 
C 90.161277 279.049617 90.445679 278.931814 90.655341 278.722153 
C 90.865002 278.512491 90.982805 278.22809 90.982805 277.931583 
C 90.982805 277.635077 90.865002 277.350676 90.655341 277.141014 
C 90.445679 276.931353 90.161277 276.813549 89.864771 276.813549 
C 89.568265 276.813549 89.283863 276.931353 89.074202 277.141014 
C 88.864541 277.350676 88.746737 277.635077 88.746737 277.931583 
C 88.746737 278.22809 88.864541 278.512491 89.074202 278.722153 
C 89.283863 278.931814 89.568265 279.049617 89.864771 279.049617 
z
" style="fill:#0000ff;stroke:#0000ff;"/>
    <path clip-path="url(#p0b0298b376)" d="M 120.88082 279.544334 
C 121.177326 279.544334 121.461728 279.42653 121.671389 279.216869 
C 121.881051 279.007207 121.998854 278.722806 121.998854 278.4263 
C 121.998854 278.129793 121.881051 277.845392 121.671389 277.63573 
C 121.461728 277.426069 121.177326 277.308266 120.88082 277.308266 
C 120.584314 277.308266 120.299912 277.426069 120.090251 277.63573 
C 119.880589 277.845392 119.762786 278.129793 119.762786 278.4263 
C 119.762786 278.722806 119.880589 279.007207 120.090251 279.216869 
C 120.299912 279.42653 120.584314 279.544334 120.88082 279.544334 
z
" style="fill:#0000ff;stroke:#0000ff;"/>
    <path clip-path="url(#p0b0298b376)" d="M 272.948656 208.732245 
C 273.88629 208.732245 274.785648 208.359719 275.448656 207.696711 
C 276.111663 207.033704 276.48419 206.134346 276.48419 205.196711 
C 276.48419 204.259077 276.111663 203.359719 275.448656 202.696711 
C 274.785648 202.033704 273.88629 201.661177 272.948656 201.661177 
C 272.011021 201.661177 271.111663 202.033704 270.448656 202.696711 
C 269.785648 203.359719 269.413122 204.259077 269.413122 205.196711 
C 269.413122 206.134346 269.785648 207.033704 270.448656 207.696711 
C 271.111663 208.359719 272.011021 208.732245 272.948656 208.732245 
z
" style="fill:#0000ff;stroke:#0000ff;"/>
    <path clip-path="url(#p0b0298b376)" d="M 74.451352 130.471326 
C 74.747858 130.471326 75.03226 130.353523 75.241921 130.143862 
C 75.451583 129.9342 75.569386 129.649798 75.569386 129.353292 
C 75.569386 129.056786 75.451583 128.772384 75.241921 128.562723 
C 75.03226 128.353061 74.747858 128.235258 74.451352 128.235258 
C 74.154846 128.235258 73.870444 128.353061 73.660782 128.562723 
C 73.451121 128.772384 73.333318 129.056786 73.333318 129.353292 
C 73.333318 129.649798 73.451121 129.9342 73.660782 130.143862 
C 73.870444 130.353523 74.154846 130.471326 74.451352 130.471326 
z
" style="fill:#0000ff;stroke:#0000ff;"/>
    <path clip-path="url(#p0b0298b376)" d="M 74.663023 140.058514 
C 75.600658 140.058514 76.500015 139.685988 77.163023 139.02298 
C 77.826031 138.359972 78.198557 137.460614 78.198557 136.52298 
C 78.198557 135.585345 77.826031 134.685988 77.163023 134.02298 
C 76.500015 133.359972 75.600658 132.987446 74.663023 132.987446 
C 73.725389 132.987446 72.826031 133.359972 72.163023 134.02298 
C 71.500015 134.685988 71.127489 135.585345 71.127489 136.52298 
C 71.127489 137.460614 71.500015 138.359972 72.163023 139.02298 
C 72.826031 139.685988 73.725389 140.058514 74.663023 140.058514 
z
" style="fill:#0000ff;stroke:#0000ff;"/>
    <path clip-path="url(#p0b0298b376)" d="M 210.967441 207.214614 
C 211.263947 207.214614 211.548349 207.096811 211.758011 206.887149 
C 211.967672 206.677488 212.085475 206.393086 212.085475 206.09658 
C 212.085475 205.800074 211.967672 205.515672 211.758011 205.30601 
C 211.548349 205.096349 211.263947 204.978546 210.967441 204.978546 
C 210.670935 204.978546 210.386533 205.096349 210.176872 205.30601 
C 209.96721 205.515672 209.849407 205.800074 209.849407 206.09658 
C 209.849407 206.393086 209.96721 206.677488 210.176872 206.887149 
C 210.386533 207.096811 210.670935 207.214614 210.967441 207.214614 
z
" style="fill:#0000ff;stroke:#0000ff;"/>
    <path clip-path="url(#p0b0298b376)" d="M 330.32492 48.5354 
C 330.621426 48.5354 330.905828 48.417597 331.11549 48.207935 
C 331.325151 47.998274 331.442954 47.713872 331.442954 47.417366 
C 331.442954 47.12086 331.325151 46.836458 331.11549 46.626797 
C 330.905828 46.417135 330.621426 46.299332 330.32492 46.299332 
C 330.028414 46.299332 329.744012 46.417135 329.534351 46.626797 
C 329.32469 46.836458 329.206886 47.12086 329.206886 47.417366 
C 329.206886 47.713872 329.32469 47.998274 329.534351 48.207935 
C 329.744012 48.417597 330.028414 48.5354 330.32492 48.5354 
z
" style="fill:#0000ff;stroke:#0000ff;"/>
    <path clip-path="url(#p0b0298b376)" d="M 70.9276 199.657385 
C 71.865234 199.657385 72.764592 199.284859 73.4276 198.621851 
C 74.090607 197.958843 74.463134 197.059486 74.463134 196.121851 
C 74.463134 195.184216 74.090607 194.284859 73.4276 193.621851 
C 72.764592 192.958843 71.865234 192.586317 70.9276 192.586317 
C 69.989965 192.586317 69.090607 192.958843 68.4276 193.621851 
C 67.764592 194.284859 67.392066 195.184216 67.392066 196.121851 
C 67.392066 197.059486 67.764592 197.958843 68.4276 198.621851 
C 69.090607 199.284859 69.989965 199.657385 70.9276 199.657385 
z
" style="fill:#0000ff;stroke:#0000ff;"/>
    <path clip-path="url(#p0b0298b376)" d="M 79.505693 266.350393 
C 79.802199 266.350393 80.086601 266.23259 80.296262 266.022929 
C 80.505924 265.813267 80.623727 265.528866 80.623727 265.232359 
C 80.623727 264.935853 80.505924 264.651451 80.296262 264.44179 
C 80.086601 264.232129 79.802199 264.114325 79.505693 264.114325 
C 79.209187 264.114325 78.924785 264.232129 78.715124 264.44179 
C 78.505462 264.651451 78.387659 264.935853 78.387659 265.232359 
C 78.387659 265.528866 78.505462 265.813267 78.715124 266.022929 
C 78.924785 266.23259 79.209187 266.350393 79.505693 266.350393 
z
" style="fill:#0000ff;stroke:#0000ff;"/>
    <path clip-path="url(#p0b0298b376)" d="M 396.842588 216.183939 
C 397.139094 216.183939 397.423496 216.066136 397.633158 215.856474 
C 397.842819 215.646813 397.960622 215.362411 397.960622 215.065905 
C 397.960622 214.769399 397.842819 214.484997 397.633158 214.275335 
C 397.423496 214.065674 397.139094 213.947871 396.842588 213.947871 
C 396.546082 213.947871 396.26168 214.065674 396.052019 214.275335 
C 395.842357 214.484997 395.724554 214.769399 395.724554 215.065905 
C 395.724554 215.362411 395.842357 215.646813 396.052019 215.856474 
C 396.26168 216.066136 396.546082 216.183939 396.842588 216.183939 
z
" style="fill:#0000ff;stroke:#0000ff;"/>
    <path clip-path="url(#p0b0298b376)" d="M 58.014595 149.233891 
C 58.311101 149.233891 58.595503 149.116088 58.805164 148.906427 
C 59.014826 148.696765 59.132629 148.412363 59.132629 148.115857 
C 59.132629 147.819351 59.014826 147.534949 58.805164 147.325288 
C 58.595503 147.115626 58.311101 146.997823 58.014595 146.997823 
C 57.718089 146.997823 57.433687 147.115626 57.224025 147.325288 
C 57.014364 147.534949 56.896561 147.819351 56.896561 148.115857 
C 56.896561 148.412363 57.014364 148.696765 57.224025 148.906427 
C 57.433687 149.116088 57.718089 149.233891 58.014595 149.233891 
z
" style="fill:#0000ff;stroke:#0000ff;"/>
    <path clip-path="url(#p0b0298b376)" d="M 103.87743 185.574354 
C 104.815064 185.574354 105.714422 185.201828 106.37743 184.53882 
C 107.040438 183.875813 107.412964 182.976455 107.412964 182.03882 
C 107.412964 181.101186 107.040438 180.201828 106.37743 179.53882 
C 105.714422 178.875813 104.815064 178.503287 103.87743 178.503287 
C 102.939795 178.503287 102.040438 178.875813 101.37743 179.53882 
C 100.714422 180.201828 100.341896 181.101186 100.341896 182.03882 
C 100.341896 182.976455 100.714422 183.875813 101.37743 184.53882 
C 102.040438 185.201828 102.939795 185.574354 103.87743 185.574354 
z
" style="fill:#ff0000;stroke:#ff0000;"/>
    <path clip-path="url(#p0b0298b376)" d="M 199.345078 305.126074 
C 199.641584 305.126074 199.925986 305.008271 200.135647 304.79861 
C 200.345309 304.588948 200.463112 304.304546 200.463112 304.00804 
C 200.463112 303.711534 200.345309 303.427132 200.135647 303.217471 
C 199.925986 303.007809 199.641584 302.890006 199.345078 302.890006 
C 199.048572 302.890006 198.76417 303.007809 198.554508 303.217471 
C 198.344847 303.427132 198.227044 303.711534 198.227044 304.00804 
C 198.227044 304.304546 198.344847 304.588948 198.554508 304.79861 
C 198.76417 305.008271 199.048572 305.126074 199.345078 305.126074 
z
" style="fill:#0000ff;stroke:#0000ff;"/>
    <path clip-path="url(#p0b0298b376)" d="M 285.567403 196.248193 
C 285.863909 196.248193 286.148311 196.13039 286.357973 195.920728 
C 286.567634 195.711067 286.685437 195.426665 286.685437 195.130159 
C 286.685437 194.833653 286.567634 194.549251 286.357973 194.33959 
C 286.148311 194.129928 285.863909 194.012125 285.567403 194.012125 
C 285.270897 194.012125 284.986495 194.129928 284.776834 194.33959 
C 284.567172 194.549251 284.449369 194.833653 284.449369 195.130159 
C 284.449369 195.426665 284.567172 195.711067 284.776834 195.920728 
C 284.986495 196.13039 285.270897 196.248193 285.567403 196.248193 
z
" style="fill:#0000ff;stroke:#0000ff;"/>
    <path clip-path="url(#p0b0298b376)" d="M 369.603014 212.460946 
C 370.540649 212.460946 371.440006 212.08842 372.103014 211.425412 
C 372.766022 210.762404 373.138548 209.863047 373.138548 208.925412 
C 373.138548 207.987778 372.766022 207.08842 372.103014 206.425412 
C 371.440006 205.762404 370.540649 205.389878 369.603014 205.389878 
C 368.66538 205.389878 367.766022 205.762404 367.103014 206.425412 
C 366.440006 207.08842 366.06748 207.987778 366.06748 208.925412 
C 366.06748 209.863047 366.440006 210.762404 367.103014 211.425412 
C 367.766022 212.08842 368.66538 212.460946 369.603014 212.460946 
z
" style="fill:#ff0000;stroke:#ff0000;"/>
    <path clip-path="url(#p0b0298b376)" d="M 365.899984 276.883879 
C 366.19649 276.883879 366.480892 276.766076 366.690553 276.556415 
C 366.900215 276.346753 367.018018 276.062351 367.018018 275.765845 
C 367.018018 275.469339 366.900215 275.184937 366.690553 274.975276 
C 366.480892 274.765614 366.19649 274.647811 365.899984 274.647811 
C 365.603478 274.647811 365.319076 274.765614 365.109414 274.975276 
C 364.899753 275.184937 364.78195 275.469339 364.78195 275.765845 
C 364.78195 276.062351 364.899753 276.346753 365.109414 276.556415 
C 365.319076 276.766076 365.603478 276.883879 365.899984 276.883879 
z
" style="fill:#0000ff;stroke:#0000ff;"/>
    <path clip-path="url(#p0b0298b376)" d="M 213.931395 137.50711 
C 214.227901 137.50711 214.512303 137.389307 214.721964 137.179645 
C 214.931626 136.969984 215.049429 136.685582 215.049429 136.389076 
C 215.049429 136.09257 214.931626 135.808168 214.721964 135.598506 
C 214.512303 135.388845 214.227901 135.271042 213.931395 135.271042 
C 213.634889 135.271042 213.350487 135.388845 213.140825 135.598506 
C 212.931164 135.808168 212.813361 136.09257 212.813361 136.389076 
C 212.813361 136.685582 212.931164 136.969984 213.140825 137.179645 
C 213.350487 137.389307 213.634889 137.50711 213.931395 137.50711 
z
" style="fill:#0000ff;stroke:#0000ff;"/>
    <path clip-path="url(#p0b0298b376)" d="M 300.146267 295.041727 
C 300.442773 295.041727 300.727175 294.923924 300.936836 294.714263 
C 301.146498 294.504601 301.264301 294.220199 301.264301 293.923693 
C 301.264301 293.627187 301.146498 293.342785 300.936836 293.133124 
C 300.727175 292.923462 300.442773 292.805659 300.146267 292.805659 
C 299.849761 292.805659 299.565359 292.923462 299.355697 293.133124 
C 299.146036 293.342785 299.028233 293.627187 299.028233 293.923693 
C 299.028233 294.220199 299.146036 294.504601 299.355697 294.714263 
C 299.565359 294.923924 299.849761 295.041727 300.146267 295.041727 
z
" style="fill:#0000ff;stroke:#0000ff;"/>
    <path clip-path="url(#p0b0298b376)" d="M 119.416281 89.987731 
C 120.353915 89.987731 121.253273 89.615205 121.916281 88.952197 
C 122.579289 88.289189 122.951815 87.389831 122.951815 86.452197 
C 122.951815 85.514562 122.579289 84.615205 121.916281 83.952197 
C 121.253273 83.289189 120.353915 82.916663 119.416281 82.916663 
C 118.478646 82.916663 117.579289 83.289189 116.916281 83.952197 
C 116.253273 84.615205 115.880747 85.514562 115.880747 86.452197 
C 115.880747 87.389831 116.253273 88.289189 116.916281 88.952197 
C 117.579289 89.615205 118.478646 89.987731 119.416281 89.987731 
z
" style="fill:#0000ff;stroke:#0000ff;"/>
    <path clip-path="url(#p0b0298b376)" d="M 84.502014 257.279981 
C 84.79852 257.279981 85.082922 257.162178 85.292583 256.952517 
C 85.502245 256.742855 85.620048 256.458453 85.620048 256.161947 
C 85.620048 255.865441 85.502245 255.581039 85.292583 255.371378 
C 85.082922 255.161716 84.79852 255.043913 84.502014 255.043913 
C 84.205508 255.043913 83.921106 255.161716 83.711444 255.371378 
C 83.501783 255.581039 83.38398 255.865441 83.38398 256.161947 
C 83.38398 256.458453 83.501783 256.742855 83.711444 256.952517 
C 83.921106 257.162178 84.205508 257.279981 84.502014 257.279981 
z
" style="fill:#0000ff;stroke:#0000ff;"/>
    <path clip-path="url(#p0b0298b376)" d="M 215.05174 264.443934 
C 215.348246 264.443934 215.632648 264.326131 215.842309 264.11647 
C 216.051971 263.906808 216.169774 263.622406 216.169774 263.3259 
C 216.169774 263.029394 216.051971 262.744992 215.842309 262.535331 
C 215.632648 262.325669 215.348246 262.207866 215.05174 262.207866 
C 214.755234 262.207866 214.470832 262.325669 214.26117 262.535331 
C 214.051509 262.744992 213.933706 263.029394 213.933706 263.3259 
C 213.933706 263.622406 214.051509 263.906808 214.26117 264.11647 
C 214.470832 264.326131 214.755234 264.443934 215.05174 264.443934 
z
" style="fill:#ff0000;stroke:#ff0000;"/>
    <path clip-path="url(#p0b0298b376)" d="M 346.197412 138.994759 
C 347.135047 138.994759 348.034404 138.622232 348.697412 137.959225 
C 349.36042 137.296217 349.732946 136.396859 349.732946 135.459225 
C 349.732946 134.52159 349.36042 133.622232 348.697412 132.959225 
C 348.034404 132.296217 347.135047 131.923691 346.197412 131.923691 
C 345.259778 131.923691 344.36042 132.296217 343.697412 132.959225 
C 343.034404 133.622232 342.661878 134.52159 342.661878 135.459225 
C 342.661878 136.396859 343.034404 137.296217 343.697412 137.959225 
C 344.36042 138.622232 345.259778 138.994759 346.197412 138.994759 
z
" style="fill:#ff0000;stroke:#ff0000;"/>
    <path clip-path="url(#p0b0298b376)" d="M 166.756835 111.577872 
C 167.053341 111.577872 167.337743 111.460069 167.547405 111.250407 
C 167.757066 111.040746 167.874869 110.756344 167.874869 110.459838 
C 167.874869 110.163332 167.757066 109.87893 167.547405 109.669268 
C 167.337743 109.459607 167.053341 109.341804 166.756835 109.341804 
C 166.460329 109.341804 166.175927 109.459607 165.966266 109.669268 
C 165.756605 109.87893 165.638801 110.163332 165.638801 110.459838 
C 165.638801 110.756344 165.756605 111.040746 165.966266 111.250407 
C 166.175927 111.460069 166.460329 111.577872 166.756835 111.577872 
z
" style="fill:#ff0000;stroke:#ff0000;"/>
    <path clip-path="url(#p0b0298b376)" d="M 359.246577 185.668212 
C 360.184212 185.668212 361.083569 185.295686 361.746577 184.632678 
C 362.409585 183.96967 362.782111 183.070312 362.782111 182.132678 
C 362.782111 181.195043 362.409585 180.295686 361.746577 179.632678 
C 361.083569 178.96967 360.184212 178.597144 359.246577 178.597144 
C 358.308942 178.597144 357.409585 178.96967 356.746577 179.632678 
C 356.083569 180.295686 355.711043 181.195043 355.711043 182.132678 
C 355.711043 183.070312 356.083569 183.96967 356.746577 184.632678 
C 357.409585 185.295686 358.308942 185.668212 359.246577 185.668212 
z
" style="fill:#ff0000;stroke:#ff0000;"/>
    <path clip-path="url(#p0b0298b376)" d="M 198.816505 247.45436 
C 199.113011 247.45436 199.397413 247.336557 199.607075 247.126895 
C 199.816736 246.917234 199.934539 246.632832 199.934539 246.336326 
C 199.934539 246.03982 199.816736 245.755418 199.607075 245.545757 
C 199.397413 245.336095 199.113011 245.218292 198.816505 245.218292 
C 198.519999 245.218292 198.235597 245.336095 198.025936 245.545757 
C 197.816274 245.755418 197.698471 246.03982 197.698471 246.336326 
C 197.698471 246.632832 197.816274 246.917234 198.025936 247.126895 
C 198.235597 247.336557 198.519999 247.45436 198.816505 247.45436 
z
" style="fill:#ff0000;stroke:#ff0000;"/>
    <path clip-path="url(#p0b0298b376)" d="M 365.479703 272.893899 
C 365.776209 272.893899 366.060611 272.776096 366.270272 272.566434 
C 366.479933 272.356773 366.597737 272.072371 366.597737 271.775865 
C 366.597737 271.479359 366.479933 271.194957 366.270272 270.985295 
C 366.060611 270.775634 365.776209 270.657831 365.479703 270.657831 
C 365.183196 270.657831 364.898795 270.775634 364.689133 270.985295 
C 364.479472 271.194957 364.361669 271.479359 364.361669 271.775865 
C 364.361669 272.072371 364.479472 272.356773 364.689133 272.566434 
C 364.898795 272.776096 365.183196 272.893899 365.479703 272.893899 
z
" style="fill:#0000ff;stroke:#0000ff;"/>
    <path clip-path="url(#p0b0298b376)" d="M 250.934799 52.675059 
C 251.231305 52.675059 251.515707 52.557256 251.725368 52.347594 
C 251.935029 52.137933 252.052833 51.853531 252.052833 51.557025 
C 252.052833 51.260519 251.935029 50.976117 251.725368 50.766455 
C 251.515707 50.556794 251.231305 50.438991 250.934799 50.438991 
C 250.638293 50.438991 250.353891 50.556794 250.144229 50.766455 
C 249.934568 50.976117 249.816765 51.260519 249.816765 51.557025 
C 249.816765 51.853531 249.934568 52.137933 250.144229 52.347594 
C 250.353891 52.557256 250.638293 52.675059 250.934799 52.675059 
z
" style="fill:#0000ff;stroke:#0000ff;"/>
    <path clip-path="url(#p0b0298b376)" d="M 190.855244 150.769455 
C 191.792879 150.769455 192.692237 150.396929 193.355244 149.733921 
C 194.018252 149.070913 194.390778 148.171556 194.390778 147.233921 
C 194.390778 146.296287 194.018252 145.396929 193.355244 144.733921 
C 192.692237 144.070913 191.792879 143.698387 190.855244 143.698387 
C 189.91761 143.698387 189.018252 144.070913 188.355244 144.733921 
C 187.692237 145.396929 187.319711 146.296287 187.319711 147.233921 
C 187.319711 148.171556 187.692237 149.070913 188.355244 149.733921 
C 189.018252 150.396929 189.91761 150.769455 190.855244 150.769455 
z
" style="fill:#0000ff;stroke:#0000ff;"/>
    <path clip-path="url(#p0b0298b376)" d="M 222.111525 290.346506 
C 223.04916 290.346506 223.948517 289.973979 224.611525 289.310972 
C 225.274533 288.647964 225.647059 287.748606 225.647059 286.810972 
C 225.647059 285.873337 225.274533 284.973979 224.611525 284.310972 
C 223.948517 283.647964 223.04916 283.275438 222.111525 283.275438 
C 221.17389 283.275438 220.274533 283.647964 219.611525 284.310972 
C 218.948517 284.973979 218.575991 285.873337 218.575991 286.810972 
C 218.575991 287.748606 218.948517 288.647964 219.611525 289.310972 
C 220.274533 289.973979 221.17389 290.346506 222.111525 290.346506 
z
" style="fill:#0000ff;stroke:#0000ff;"/>
   </g>
   <g id="matplotlib.axis_1">
    <g id="xtick_1">
     <g id="line2d_1">
      <defs>
       <path d="M 0 0 
L 0 3.5 
" id="m178dcdf1e5" style="stroke:#000000;stroke-width:0.8;"/>
      </defs>
      <g>
       <use style="stroke:#000000;stroke-width:0.8;" x="57.6" xlink:href="#m178dcdf1e5" y="307.584"/>
      </g>
     </g>
     <g id="text_1">
      <!-- 0.0 -->
      <defs>
       <path d="M 31.78125 66.40625 
Q 24.171875 66.40625 20.328125 58.90625 
Q 16.5 51.421875 16.5 36.375 
Q 16.5 21.390625 20.328125 13.890625 
Q 24.171875 6.390625 31.78125 6.390625 
Q 39.453125 6.390625 43.28125 13.890625 
Q 47.125 21.390625 47.125 36.375 
Q 47.125 51.421875 43.28125 58.90625 
Q 39.453125 66.40625 31.78125 66.40625 
z
M 31.78125 74.21875 
Q 44.046875 74.21875 50.515625 64.515625 
Q 56.984375 54.828125 56.984375 36.375 
Q 56.984375 17.96875 50.515625 8.265625 
Q 44.046875 -1.421875 31.78125 -1.421875 
Q 19.53125 -1.421875 13.0625 8.265625 
Q 6.59375 17.96875 6.59375 36.375 
Q 6.59375 54.828125 13.0625 64.515625 
Q 19.53125 74.21875 31.78125 74.21875 
z
" id="DejaVuSans-48"/>
       <path d="M 10.6875 12.40625 
L 21 12.40625 
L 21 0 
L 10.6875 0 
z
" id="DejaVuSans-46"/>
      </defs>
      <g transform="translate(49.648438 322.182437)scale(0.1 -0.1)">
       <use xlink:href="#DejaVuSans-48"/>
       <use x="63.623047" xlink:href="#DejaVuSans-46"/>
       <use x="95.410156" xlink:href="#DejaVuSans-48"/>
      </g>
     </g>
    </g>
    <g id="xtick_2">
     <g id="line2d_2">
      <g>
       <use style="stroke:#000000;stroke-width:0.8;" x="129.024" xlink:href="#m178dcdf1e5" y="307.584"/>
      </g>
     </g>
     <g id="text_2">
      <!-- 0.2 -->
      <defs>
       <path d="M 19.1875 8.296875 
L 53.609375 8.296875 
L 53.609375 0 
L 7.328125 0 
L 7.328125 8.296875 
Q 12.9375 14.109375 22.625 23.890625 
Q 32.328125 33.6875 34.8125 36.53125 
Q 39.546875 41.84375 41.421875 45.53125 
Q 43.3125 49.21875 43.3125 52.78125 
Q 43.3125 58.59375 39.234375 62.25 
Q 35.15625 65.921875 28.609375 65.921875 
Q 23.96875 65.921875 18.8125 64.3125 
Q 13.671875 62.703125 7.8125 59.421875 
L 7.8125 69.390625 
Q 13.765625 71.78125 18.9375 73 
Q 24.125 74.21875 28.421875 74.21875 
Q 39.75 74.21875 46.484375 68.546875 
Q 53.21875 62.890625 53.21875 53.421875 
Q 53.21875 48.921875 51.53125 44.890625 
Q 49.859375 40.875 45.40625 35.40625 
Q 44.1875 33.984375 37.640625 27.21875 
Q 31.109375 20.453125 19.1875 8.296875 
z
" id="DejaVuSans-50"/>
      </defs>
      <g transform="translate(121.072438 322.182437)scale(0.1 -0.1)">
       <use xlink:href="#DejaVuSans-48"/>
       <use x="63.623047" xlink:href="#DejaVuSans-46"/>
       <use x="95.410156" xlink:href="#DejaVuSans-50"/>
      </g>
     </g>
    </g>
    <g id="xtick_3">
     <g id="line2d_3">
      <g>
       <use style="stroke:#000000;stroke-width:0.8;" x="200.448" xlink:href="#m178dcdf1e5" y="307.584"/>
      </g>
     </g>
     <g id="text_3">
      <!-- 0.4 -->
      <defs>
       <path d="M 37.796875 64.3125 
L 12.890625 25.390625 
L 37.796875 25.390625 
z
M 35.203125 72.90625 
L 47.609375 72.90625 
L 47.609375 25.390625 
L 58.015625 25.390625 
L 58.015625 17.1875 
L 47.609375 17.1875 
L 47.609375 0 
L 37.796875 0 
L 37.796875 17.1875 
L 4.890625 17.1875 
L 4.890625 26.703125 
z
" id="DejaVuSans-52"/>
      </defs>
      <g transform="translate(192.496438 322.182437)scale(0.1 -0.1)">
       <use xlink:href="#DejaVuSans-48"/>
       <use x="63.623047" xlink:href="#DejaVuSans-46"/>
       <use x="95.410156" xlink:href="#DejaVuSans-52"/>
      </g>
     </g>
    </g>
    <g id="xtick_4">
     <g id="line2d_4">
      <g>
       <use style="stroke:#000000;stroke-width:0.8;" x="271.872" xlink:href="#m178dcdf1e5" y="307.584"/>
      </g>
     </g>
     <g id="text_4">
      <!-- 0.6 -->
      <defs>
       <path d="M 33.015625 40.375 
Q 26.375 40.375 22.484375 35.828125 
Q 18.609375 31.296875 18.609375 23.390625 
Q 18.609375 15.53125 22.484375 10.953125 
Q 26.375 6.390625 33.015625 6.390625 
Q 39.65625 6.390625 43.53125 10.953125 
Q 47.40625 15.53125 47.40625 23.390625 
Q 47.40625 31.296875 43.53125 35.828125 
Q 39.65625 40.375 33.015625 40.375 
z
M 52.59375 71.296875 
L 52.59375 62.3125 
Q 48.875 64.0625 45.09375 64.984375 
Q 41.3125 65.921875 37.59375 65.921875 
Q 27.828125 65.921875 22.671875 59.328125 
Q 17.53125 52.734375 16.796875 39.40625 
Q 19.671875 43.65625 24.015625 45.921875 
Q 28.375 48.1875 33.59375 48.1875 
Q 44.578125 48.1875 50.953125 41.515625 
Q 57.328125 34.859375 57.328125 23.390625 
Q 57.328125 12.15625 50.6875 5.359375 
Q 44.046875 -1.421875 33.015625 -1.421875 
Q 20.359375 -1.421875 13.671875 8.265625 
Q 6.984375 17.96875 6.984375 36.375 
Q 6.984375 53.65625 15.1875 63.9375 
Q 23.390625 74.21875 37.203125 74.21875 
Q 40.921875 74.21875 44.703125 73.484375 
Q 48.484375 72.75 52.59375 71.296875 
z
" id="DejaVuSans-54"/>
      </defs>
      <g transform="translate(263.920438 322.182437)scale(0.1 -0.1)">
       <use xlink:href="#DejaVuSans-48"/>
       <use x="63.623047" xlink:href="#DejaVuSans-46"/>
       <use x="95.410156" xlink:href="#DejaVuSans-54"/>
      </g>
     </g>
    </g>
    <g id="xtick_5">
     <g id="line2d_5">
      <g>
       <use style="stroke:#000000;stroke-width:0.8;" x="343.296" xlink:href="#m178dcdf1e5" y="307.584"/>
      </g>
     </g>
     <g id="text_5">
      <!-- 0.8 -->
      <defs>
       <path d="M 31.78125 34.625 
Q 24.75 34.625 20.71875 30.859375 
Q 16.703125 27.09375 16.703125 20.515625 
Q 16.703125 13.921875 20.71875 10.15625 
Q 24.75 6.390625 31.78125 6.390625 
Q 38.8125 6.390625 42.859375 10.171875 
Q 46.921875 13.96875 46.921875 20.515625 
Q 46.921875 27.09375 42.890625 30.859375 
Q 38.875 34.625 31.78125 34.625 
z
M 21.921875 38.8125 
Q 15.578125 40.375 12.03125 44.71875 
Q 8.5 49.078125 8.5 55.328125 
Q 8.5 64.0625 14.71875 69.140625 
Q 20.953125 74.21875 31.78125 74.21875 
Q 42.671875 74.21875 48.875 69.140625 
Q 55.078125 64.0625 55.078125 55.328125 
Q 55.078125 49.078125 51.53125 44.71875 
Q 48 40.375 41.703125 38.8125 
Q 48.828125 37.15625 52.796875 32.3125 
Q 56.78125 27.484375 56.78125 20.515625 
Q 56.78125 9.90625 50.3125 4.234375 
Q 43.84375 -1.421875 31.78125 -1.421875 
Q 19.734375 -1.421875 13.25 4.234375 
Q 6.78125 9.90625 6.78125 20.515625 
Q 6.78125 27.484375 10.78125 32.3125 
Q 14.796875 37.15625 21.921875 38.8125 
z
M 18.3125 54.390625 
Q 18.3125 48.734375 21.84375 45.5625 
Q 25.390625 42.390625 31.78125 42.390625 
Q 38.140625 42.390625 41.71875 45.5625 
Q 45.3125 48.734375 45.3125 54.390625 
Q 45.3125 60.0625 41.71875 63.234375 
Q 38.140625 66.40625 31.78125 66.40625 
Q 25.390625 66.40625 21.84375 63.234375 
Q 18.3125 60.0625 18.3125 54.390625 
z
" id="DejaVuSans-56"/>
      </defs>
      <g transform="translate(335.344438 322.182437)scale(0.1 -0.1)">
       <use xlink:href="#DejaVuSans-48"/>
       <use x="63.623047" xlink:href="#DejaVuSans-46"/>
       <use x="95.410156" xlink:href="#DejaVuSans-56"/>
      </g>
     </g>
    </g>
    <g id="xtick_6">
     <g id="line2d_6">
      <g>
       <use style="stroke:#000000;stroke-width:0.8;" x="414.72" xlink:href="#m178dcdf1e5" y="307.584"/>
      </g>
     </g>
     <g id="text_6">
      <!-- 1.0 -->
      <defs>
       <path d="M 12.40625 8.296875 
L 28.515625 8.296875 
L 28.515625 63.921875 
L 10.984375 60.40625 
L 10.984375 69.390625 
L 28.421875 72.90625 
L 38.28125 72.90625 
L 38.28125 8.296875 
L 54.390625 8.296875 
L 54.390625 0 
L 12.40625 0 
z
" id="DejaVuSans-49"/>
      </defs>
      <g transform="translate(406.768438 322.182437)scale(0.1 -0.1)">
       <use xlink:href="#DejaVuSans-49"/>
       <use x="63.623047" xlink:href="#DejaVuSans-46"/>
       <use x="95.410156" xlink:href="#DejaVuSans-48"/>
      </g>
     </g>
    </g>
   </g>
   <g id="matplotlib.axis_2">
    <g id="ytick_1">
     <g id="line2d_7">
      <defs>
       <path d="M 0 0 
L -3.5 0 
" id="m922cb90886" style="stroke:#000000;stroke-width:0.8;"/>
      </defs>
      <g>
       <use style="stroke:#000000;stroke-width:0.8;" x="57.6" xlink:href="#m922cb90886" y="307.584"/>
      </g>
     </g>
     <g id="text_7">
      <!-- 0.0 -->
      <g transform="translate(34.696875 311.383219)scale(0.1 -0.1)">
       <use xlink:href="#DejaVuSans-48"/>
       <use x="63.623047" xlink:href="#DejaVuSans-46"/>
       <use x="95.410156" xlink:href="#DejaVuSans-48"/>
      </g>
     </g>
    </g>
    <g id="ytick_2">
     <g id="line2d_8">
      <g>
       <use style="stroke:#000000;stroke-width:0.8;" x="57.6" xlink:href="#m922cb90886" y="254.3616"/>
      </g>
     </g>
     <g id="text_8">
      <!-- 0.2 -->
      <g transform="translate(34.696875 258.160819)scale(0.1 -0.1)">
       <use xlink:href="#DejaVuSans-48"/>
       <use x="63.623047" xlink:href="#DejaVuSans-46"/>
       <use x="95.410156" xlink:href="#DejaVuSans-50"/>
      </g>
     </g>
    </g>
    <g id="ytick_3">
     <g id="line2d_9">
      <g>
       <use style="stroke:#000000;stroke-width:0.8;" x="57.6" xlink:href="#m922cb90886" y="201.1392"/>
      </g>
     </g>
     <g id="text_9">
      <!-- 0.4 -->
      <g transform="translate(34.696875 204.938419)scale(0.1 -0.1)">
       <use xlink:href="#DejaVuSans-48"/>
       <use x="63.623047" xlink:href="#DejaVuSans-46"/>
       <use x="95.410156" xlink:href="#DejaVuSans-52"/>
      </g>
     </g>
    </g>
    <g id="ytick_4">
     <g id="line2d_10">
      <g>
       <use style="stroke:#000000;stroke-width:0.8;" x="57.6" xlink:href="#m922cb90886" y="147.9168"/>
      </g>
     </g>
     <g id="text_10">
      <!-- 0.6 -->
      <g transform="translate(34.696875 151.716019)scale(0.1 -0.1)">
       <use xlink:href="#DejaVuSans-48"/>
       <use x="63.623047" xlink:href="#DejaVuSans-46"/>
       <use x="95.410156" xlink:href="#DejaVuSans-54"/>
      </g>
     </g>
    </g>
    <g id="ytick_5">
     <g id="line2d_11">
      <g>
       <use style="stroke:#000000;stroke-width:0.8;" x="57.6" xlink:href="#m922cb90886" y="94.6944"/>
      </g>
     </g>
     <g id="text_11">
      <!-- 0.8 -->
      <g transform="translate(34.696875 98.493619)scale(0.1 -0.1)">
       <use xlink:href="#DejaVuSans-48"/>
       <use x="63.623047" xlink:href="#DejaVuSans-46"/>
       <use x="95.410156" xlink:href="#DejaVuSans-56"/>
      </g>
     </g>
    </g>
    <g id="ytick_6">
     <g id="line2d_12">
      <g>
       <use style="stroke:#000000;stroke-width:0.8;" x="57.6" xlink:href="#m922cb90886" y="41.472"/>
      </g>
     </g>
     <g id="text_12">
      <!-- 1.0 -->
      <g transform="translate(34.696875 45.271219)scale(0.1 -0.1)">
       <use xlink:href="#DejaVuSans-49"/>
       <use x="63.623047" xlink:href="#DejaVuSans-46"/>
       <use x="95.410156" xlink:href="#DejaVuSans-48"/>
      </g>
     </g>
    </g>
   </g>
   <g id="LineCollection_1"/>
   <g id="LineCollection_2">
    <path clip-path="url(#p0b0298b376)" d="M 226.762105 282.056296 
L 245.557895 285.587779 
L 264.353684 287.154318 
L 283.149474 286.650102 
L 301.945263 284.199804 
L 320.741053 279.973083 
L 322.066822 279.572211 
L 339.536842 272.61273 
L 353.708251 265.566316 
L 358.332632 262.184608 
L 370.257632 251.560421 
L 377.128421 240.748172 
L 378.797066 237.554526 
L 381.621316 223.548632 
L 381.311304 209.542737 
L 379.308612 195.536842 
L 377.128421 182.744168 
L 376.763941 181.530947 
L 373.564884 167.525053 
L 371.841715 153.519158 
L 370.65701 139.513263 
L 368.243385 125.507368 
L 362.665868 111.501474 
L 358.332632 105.750059 
L 347.644828 97.495579 
L 339.536842 93.395247 
L 320.741053 88.791757 
L 301.945263 87.082961 
L 283.149474 86.640325 
L 264.353684 85.5271 
L 253.595418 83.489684 
L 245.557895 82.779347 
L 226.762105 80.445881 
L 207.966316 78.376297 
L 189.170526 77.664807 
L 170.374737 79.106536 
L 151.578947 83.229941 
L 150.891691 83.489684 
L 132.783158 92.224462 
L 124.699132 97.495579 
L 113.987368 106.219675 
L 108.646338 111.501474 
L 96.941133 125.507368 
L 95.191579 128.047589 
L 88.782514 139.513263 
L 83.300633 153.519158 
L 80.774664 167.525053 
L 82.15751 181.530947 
L 87.876951 195.536842 
L 95.191579 205.908613 
L 99.096282 209.542737 
L 113.987368 220.989887 
L 118.535078 223.548632 
L 132.783158 231.098092 
L 143.191995 237.554526 
L 151.578947 241.993845 
L 163.934379 251.560421 
L 170.374737 254.999747 
L 185.686225 265.566316 
L 189.170526 267.114972 
L 207.966316 275.558731 
L 217.642708 279.572211 
L 226.762105 282.056296 
" style="fill:none;stroke:#000000;stroke-width:1.5;"/>
    <path clip-path="url(#p0b0298b376)" d="M 170.374737 210.580057 
L 169.059177 209.542737 
L 159.329773 195.536842 
L 157.4368 181.530947 
L 160.097343 167.525053 
L 168.171405 153.519158 
L 170.374737 151.201875 
L 182.258632 139.513263 
L 189.170526 134.495392 
L 206.676296 125.507368 
L 207.966316 124.750575 
L 226.762105 117.516135 
L 245.557895 114.661146 
L 264.353684 115.906205 
L 283.149474 123.81833 
L 285.26229 125.507368 
L 301.945263 138.537661 
L 302.915743 139.513263 
L 313.382302 153.519158 
L 316.669812 167.525053 
L 313.741879 181.530947 
L 302.804978 195.536842 
L 301.945263 196.149415 
L 283.149474 208.802255 
L 281.643066 209.542737 
L 264.353684 216.022406 
L 245.557895 220.147094 
L 226.762105 222.065723 
L 207.966316 222.002027 
L 189.170526 219.396082 
L 170.374737 210.580057 
" style="fill:none;stroke:#000000;stroke-width:1.5;"/>
   </g>
   <g id="LineCollection_3"/>
   <g id="patch_3">
    <path d="M 57.6 307.584 
L 57.6 41.472 
" style="fill:none;stroke:#000000;stroke-linecap:square;stroke-linejoin:miter;stroke-width:0.8;"/>
   </g>
   <g id="patch_4">
    <path d="M 414.72 307.584 
L 414.72 41.472 
" style="fill:none;stroke:#000000;stroke-linecap:square;stroke-linejoin:miter;stroke-width:0.8;"/>
   </g>
   <g id="patch_5">
    <path d="M 57.6 307.584 
L 414.72 307.584 
" style="fill:none;stroke:#000000;stroke-linecap:square;stroke-linejoin:miter;stroke-width:0.8;"/>
   </g>
   <g id="patch_6">
    <path d="M 57.6 41.472 
L 414.72 41.472 
" style="fill:none;stroke:#000000;stroke-linecap:square;stroke-linejoin:miter;stroke-width:0.8;"/>
   </g>
  </g>
 </g>
 <defs>
  <clipPath id="p0b0298b376">
   <rect height="266.112" width="357.12" x="57.6" y="41.472"/>
  </clipPath>
 </defs>
</svg>
